%TF.GenerationSoftware,KiCad,Pcbnew,10.0.2*%
%TF.CreationDate,2026-05-29T19:20:36+05:30*%
%TF.ProjectId,PulsePad,50756c73-6550-4616-942e-6b696361645f,rev?*%
%TF.SameCoordinates,Original*%
%TF.FileFunction,Copper,L1,Top*%
%TF.FilePolarity,Positive*%
%FSLAX46Y46*%
G04 Gerber Fmt 4.6, Leading zero omitted, Abs format (unit mm)*
G04 Created by KiCad (PCBNEW 10.0.2) date 2026-05-29 19:20:36*
%MOMM*%
%LPD*%
G01*
G04 APERTURE LIST*
G04 Aperture macros list*
%AMRoundRect*
0 Rectangle with rounded corners*
0 $1 Rounding radius*
0 $2 $3 $4 $5 $6 $7 $8 $9 X,Y pos of 4 corners*
0 Add a 4 corners polygon primitive as box body*
4,1,4,$2,$3,$4,$5,$6,$7,$8,$9,$2,$3,0*
0 Add four circle primitives for the rounded corners*
1,1,$1+$1,$2,$3*
1,1,$1+$1,$4,$5*
1,1,$1+$1,$6,$7*
1,1,$1+$1,$8,$9*
0 Add four rect primitives between the rounded corners*
20,1,$1+$1,$2,$3,$4,$5,0*
20,1,$1+$1,$4,$5,$6,$7,0*
20,1,$1+$1,$6,$7,$8,$9,0*
20,1,$1+$1,$8,$9,$2,$3,0*%
%AMFreePoly0*
4,1,37,0.800000,0.796148,0.878414,0.796148,1.032228,0.765552,1.177117,0.705537,1.307515,0.618408,1.418408,0.507515,1.505537,0.377117,1.565552,0.232228,1.596148,0.078414,1.596148,-0.078414,1.565552,-0.232228,1.505537,-0.377117,1.418408,-0.507515,1.307515,-0.618408,1.177117,-0.705537,1.032228,-0.765552,0.878414,-0.796148,0.800000,-0.796148,0.800000,-0.800000,-1.400000,-0.800000,
-1.403843,-0.796157,-1.439018,-0.796157,-1.511114,-0.766294,-1.566294,-0.711114,-1.596157,-0.639018,-1.596157,-0.603843,-1.600000,-0.600000,-1.600000,0.600000,-1.596157,0.603843,-1.596157,0.639018,-1.566294,0.711114,-1.511114,0.766294,-1.439018,0.796157,-1.403843,0.796157,-1.400000,0.800000,0.800000,0.800000,0.800000,0.796148,0.800000,0.796148,$1*%
%AMFreePoly1*
4,1,37,1.403843,0.796157,1.439018,0.796157,1.511114,0.766294,1.566294,0.711114,1.596157,0.639018,1.596157,0.603843,1.600000,0.600000,1.600000,-0.600000,1.596157,-0.603843,1.596157,-0.639018,1.566294,-0.711114,1.511114,-0.766294,1.439018,-0.796157,1.403843,-0.796157,1.400000,-0.800000,-0.800000,-0.800000,-0.800000,-0.796148,-0.878414,-0.796148,-1.032228,-0.765552,-1.177117,-0.705537,
-1.307515,-0.618408,-1.418408,-0.507515,-1.505537,-0.377117,-1.565552,-0.232228,-1.596148,-0.078414,-1.596148,0.078414,-1.565552,0.232228,-1.505537,0.377117,-1.418408,0.507515,-1.307515,0.618408,-1.177117,0.705537,-1.032228,0.765552,-0.878414,0.796148,-0.800000,0.796148,-0.800000,0.800000,1.400000,0.800000,1.403843,0.796157,1.403843,0.796157,$1*%
%AMFreePoly2*
4,1,37,0.603843,0.796157,0.639018,0.796157,0.711114,0.766294,0.766294,0.711114,0.796157,0.639018,0.796157,0.603843,0.800000,0.600000,0.800000,-0.600000,0.796157,-0.603843,0.796157,-0.639018,0.766294,-0.711114,0.711114,-0.766294,0.639018,-0.796157,0.603843,-0.796157,0.600000,-0.800000,0.000000,-0.800000,0.000000,-0.796148,-0.078414,-0.796148,-0.232228,-0.765552,-0.377117,-0.705537,
-0.507515,-0.618408,-0.618408,-0.507515,-0.705537,-0.377117,-0.765552,-0.232228,-0.796148,-0.078414,-0.796148,0.078414,-0.765552,0.232228,-0.705537,0.377117,-0.618408,0.507515,-0.507515,0.618408,-0.377117,0.705537,-0.232228,0.765552,-0.078414,0.796148,0.000000,0.796148,0.000000,0.800000,0.600000,0.800000,0.603843,0.796157,0.603843,0.796157,$1*%
%AMFreePoly3*
4,1,37,0.000000,0.796148,0.078414,0.796148,0.232228,0.765552,0.377117,0.705537,0.507515,0.618408,0.618408,0.507515,0.705537,0.377117,0.765552,0.232228,0.796148,0.078414,0.796148,-0.078414,0.765552,-0.232228,0.705537,-0.377117,0.618408,-0.507515,0.507515,-0.618408,0.377117,-0.705537,0.232228,-0.765552,0.078414,-0.796148,0.000000,-0.796148,0.000000,-0.800000,-0.600000,-0.800000,
-0.603843,-0.796157,-0.639018,-0.796157,-0.711114,-0.766294,-0.766294,-0.711114,-0.796157,-0.639018,-0.796157,-0.603843,-0.800000,-0.600000,-0.800000,0.600000,-0.796157,0.603843,-0.796157,0.639018,-0.766294,0.711114,-0.711114,0.766294,-0.639018,0.796157,-0.603843,0.796157,-0.600000,0.800000,0.000000,0.800000,0.000000,0.796148,0.000000,0.796148,$1*%
G04 Aperture macros list end*
%TA.AperFunction,NonConductor*%
%ADD10C,0.200000*%
%TD*%
%TA.AperFunction,ComponentPad*%
%ADD11C,2.200000*%
%TD*%
%TA.AperFunction,SMDPad,CuDef*%
%ADD12FreePoly0,0.000000*%
%TD*%
%TA.AperFunction,ComponentPad*%
%ADD13RoundRect,0.200000X-0.600000X-0.600000X0.600000X-0.600000X0.600000X0.600000X-0.600000X0.600000X0*%
%TD*%
%TA.AperFunction,SMDPad,CuDef*%
%ADD14RoundRect,0.800000X-0.800000X-0.000010X0.800000X-0.000010X0.800000X0.000010X-0.800000X0.000010X0*%
%TD*%
%TA.AperFunction,ComponentPad*%
%ADD15C,1.600000*%
%TD*%
%TA.AperFunction,SMDPad,CuDef*%
%ADD16FreePoly1,0.000000*%
%TD*%
%TA.AperFunction,ComponentPad*%
%ADD17FreePoly2,0.000000*%
%TD*%
%TA.AperFunction,ComponentPad*%
%ADD18FreePoly3,0.000000*%
%TD*%
%TA.AperFunction,Conductor*%
%ADD19C,0.200000*%
%TD*%
G04 APERTURE END LIST*
D10*
X107000000Y-60000000D02*
X107000000Y-141500000D01*
X107000000Y-141500000D02*
X158500000Y-141500000D01*
X157500000Y-61000000D02*
X107000000Y-60000000D01*
X158500000Y-141500000D02*
X157500000Y-61000000D01*
D11*
%TO.P,SW3,1,1_1*%
%TO.N,Net-(A1-GPIO4)*%
X147960000Y-105920000D03*
%TO.P,SW3,2,2_2*%
%TO.N,GND*%
X141610000Y-108460000D03*
%TD*%
%TO.P,SW1,1,1_1*%
%TO.N,Net-(A1-GPIO2)*%
X147960000Y-67920000D03*
%TO.P,SW1,2,2_2*%
%TO.N,GND*%
X141610000Y-70460000D03*
%TD*%
%TO.P,SW4,1,1_1*%
%TO.N,Net-(A1-GPIO5)*%
X147960000Y-124920000D03*
%TO.P,SW4,2,2_2*%
%TO.N,GND*%
X141610000Y-127460000D03*
%TD*%
D12*
%TO.P,A1,1,GPIO0_1*%
%TO.N,unconnected-(A1-GPIO0-Pad1)_1*%
X113875000Y-87520000D03*
D13*
%TO.N,unconnected-(A1-GPIO0-Pad1)*%
X114675000Y-87520000D03*
D14*
%TO.P,A1,2,GPIO1_2*%
%TO.N,unconnected-(A1-GPIO1-Pad2)_1*%
X113875000Y-90060000D03*
D15*
%TO.N,unconnected-(A1-GPIO1-Pad2)*%
X114675000Y-90060000D03*
D16*
%TO.P,A1,3,GND_3*%
%TO.N,GND*%
X113875000Y-92600000D03*
D17*
X114675000Y-92600000D03*
D14*
%TO.P,A1,4,GPIO2_4*%
%TO.N,Net-(A1-GPIO2)*%
X113875000Y-95140000D03*
D15*
X114675000Y-95140000D03*
D14*
%TO.P,A1,5,GPIO3_5*%
%TO.N,Net-(A1-GPIO3)*%
X113875000Y-97680000D03*
D15*
X114675000Y-97680000D03*
D14*
%TO.P,A1,6,GPIO4_6*%
%TO.N,Net-(A1-GPIO4)*%
X113875000Y-100220000D03*
D15*
X114675000Y-100220000D03*
D14*
%TO.P,A1,7,GPIO5_7*%
%TO.N,Net-(A1-GPIO5)*%
X113875000Y-102760000D03*
D15*
X114675000Y-102760000D03*
D16*
%TO.P,A1,8,GND_8*%
%TO.N,GND*%
X113875000Y-105300000D03*
D17*
X114675000Y-105300000D03*
D14*
%TO.P,A1,9,GPIO6_9*%
%TO.N,unconnected-(A1-GPIO6-Pad9)*%
X113875000Y-107840000D03*
D15*
%TO.N,unconnected-(A1-GPIO6-Pad9)_1*%
X114675000Y-107840000D03*
D14*
%TO.P,A1,10,GPIO7_10*%
%TO.N,unconnected-(A1-GPIO7-Pad10)*%
X113875000Y-110380000D03*
D15*
%TO.N,unconnected-(A1-GPIO7-Pad10)_1*%
X114675000Y-110380000D03*
D14*
%TO.P,A1,11,GPIO8_11*%
%TO.N,unconnected-(A1-GPIO8-Pad11)_1*%
X113875000Y-112920000D03*
D15*
%TO.N,unconnected-(A1-GPIO8-Pad11)*%
X114675000Y-112920000D03*
D14*
%TO.P,A1,12,GPIO9_12*%
%TO.N,unconnected-(A1-GPIO9-Pad12)_1*%
X113875000Y-115460000D03*
D15*
%TO.N,unconnected-(A1-GPIO9-Pad12)*%
X114675000Y-115460000D03*
D16*
%TO.P,A1,13,GND_13*%
%TO.N,GND*%
X113875000Y-118000000D03*
D17*
X114675000Y-118000000D03*
D14*
%TO.P,A1,14,GPIO10_14*%
%TO.N,unconnected-(A1-GPIO10-Pad14)*%
X113875000Y-120540000D03*
D15*
%TO.N,unconnected-(A1-GPIO10-Pad14)_1*%
X114675000Y-120540000D03*
D14*
%TO.P,A1,15,GPIO11_15*%
%TO.N,unconnected-(A1-GPIO11-Pad15)*%
X113875000Y-123080000D03*
D15*
%TO.N,unconnected-(A1-GPIO11-Pad15)_1*%
X114675000Y-123080000D03*
D14*
%TO.P,A1,16,GPIO12_16*%
%TO.N,unconnected-(A1-GPIO12-Pad16)_1*%
X113875000Y-125620000D03*
D15*
%TO.N,unconnected-(A1-GPIO12-Pad16)*%
X114675000Y-125620000D03*
D14*
%TO.P,A1,17,GPIO13_17*%
%TO.N,unconnected-(A1-GPIO13-Pad17)*%
X113875000Y-128160000D03*
D15*
%TO.N,unconnected-(A1-GPIO13-Pad17)_1*%
X114675000Y-128160000D03*
D16*
%TO.P,A1,18,GND_18*%
%TO.N,GND*%
X113875000Y-130700000D03*
D17*
X114675000Y-130700000D03*
D14*
%TO.P,A1,19,GPIO14_19*%
%TO.N,unconnected-(A1-GPIO14-Pad19)*%
X113875000Y-133240000D03*
D15*
%TO.N,unconnected-(A1-GPIO14-Pad19)_1*%
X114675000Y-133240000D03*
D14*
%TO.P,A1,20,GPIO15_20*%
%TO.N,unconnected-(A1-GPIO15-Pad20)*%
X113875000Y-135780000D03*
D15*
%TO.N,unconnected-(A1-GPIO15-Pad20)_1*%
X114675000Y-135780000D03*
%TO.P,A1,21,GPIO16_21*%
%TO.N,unconnected-(A1-GPIO16-Pad21)*%
X132455000Y-135780000D03*
D14*
%TO.N,unconnected-(A1-GPIO16-Pad21)_1*%
X133255000Y-135780000D03*
D15*
%TO.P,A1,22,GPIO17_22*%
%TO.N,unconnected-(A1-GPIO17-Pad22)_1*%
X132455000Y-133240000D03*
D14*
%TO.N,unconnected-(A1-GPIO17-Pad22)*%
X133255000Y-133240000D03*
D18*
%TO.P,A1,23,GND_23*%
%TO.N,GND*%
X132455000Y-130700000D03*
D12*
X133255000Y-130700000D03*
D15*
%TO.P,A1,24,GPIO18_24*%
%TO.N,unconnected-(A1-GPIO18-Pad24)*%
X132455000Y-128160000D03*
D14*
%TO.N,unconnected-(A1-GPIO18-Pad24)_1*%
X133255000Y-128160000D03*
D15*
%TO.P,A1,25,GPIO19_25*%
%TO.N,unconnected-(A1-GPIO19-Pad25)_1*%
X132455000Y-125620000D03*
D14*
%TO.N,unconnected-(A1-GPIO19-Pad25)*%
X133255000Y-125620000D03*
D15*
%TO.P,A1,26,GPIO20_26*%
%TO.N,unconnected-(A1-GPIO20-Pad26)_1*%
X132455000Y-123080000D03*
D14*
%TO.N,unconnected-(A1-GPIO20-Pad26)*%
X133255000Y-123080000D03*
D15*
%TO.P,A1,27,GPIO21_27*%
%TO.N,unconnected-(A1-GPIO21-Pad27)*%
X132455000Y-120540000D03*
D14*
%TO.N,unconnected-(A1-GPIO21-Pad27)_1*%
X133255000Y-120540000D03*
D18*
%TO.P,A1,28,GND_28*%
%TO.N,GND*%
X132455000Y-118000000D03*
D12*
X133255000Y-118000000D03*
D15*
%TO.P,A1,29,GPIO22_29*%
%TO.N,unconnected-(A1-GPIO22-Pad29)_1*%
X132455000Y-115460000D03*
D14*
%TO.N,unconnected-(A1-GPIO22-Pad29)*%
X133255000Y-115460000D03*
D15*
%TO.P,A1,30,RUN_30*%
%TO.N,unconnected-(A1-RUN-Pad30)_1*%
X132455000Y-112920000D03*
D14*
%TO.N,unconnected-(A1-RUN-Pad30)*%
X133255000Y-112920000D03*
D15*
%TO.P,A1,31,GPIO26_ADC0_31*%
%TO.N,unconnected-(A1-GPIO26_ADC0-Pad31)*%
X132455000Y-110380000D03*
D14*
%TO.N,unconnected-(A1-GPIO26_ADC0-Pad31)_1*%
X133255000Y-110380000D03*
D15*
%TO.P,A1,32,GPIO27_ADC1_32*%
%TO.N,unconnected-(A1-GPIO27_ADC1-Pad32)*%
X132455000Y-107840000D03*
D14*
%TO.N,unconnected-(A1-GPIO27_ADC1-Pad32)_1*%
X133255000Y-107840000D03*
D18*
%TO.P,A1,33,AGND_33*%
%TO.N,unconnected-(A1-AGND-Pad33)*%
X132455000Y-105300000D03*
D12*
%TO.N,unconnected-(A1-AGND-Pad33)_1*%
X133255000Y-105300000D03*
D15*
%TO.P,A1,34,GPIO28_ADC2_34*%
%TO.N,unconnected-(A1-GPIO28_ADC2-Pad34)*%
X132455000Y-102760000D03*
D14*
%TO.N,unconnected-(A1-GPIO28_ADC2-Pad34)_1*%
X133255000Y-102760000D03*
D15*
%TO.P,A1,35,ADC_VREF_35*%
%TO.N,unconnected-(A1-ADC_VREF-Pad35)_1*%
X132455000Y-100220000D03*
D14*
%TO.N,unconnected-(A1-ADC_VREF-Pad35)*%
X133255000Y-100220000D03*
D15*
%TO.P,A1,36,3V3_36*%
%TO.N,unconnected-(A1-3V3-Pad36)_1*%
X132455000Y-97680000D03*
D14*
%TO.N,unconnected-(A1-3V3-Pad36)*%
X133255000Y-97680000D03*
D15*
%TO.P,A1,37,3V3_EN_37*%
%TO.N,unconnected-(A1-3V3_EN-Pad37)_1*%
X132455000Y-95140000D03*
D14*
%TO.N,unconnected-(A1-3V3_EN-Pad37)*%
X133255000Y-95140000D03*
D18*
%TO.P,A1,38,GND_38*%
%TO.N,GND*%
X132455000Y-92600000D03*
D12*
X133255000Y-92600000D03*
D15*
%TO.P,A1,39,VSYS_39*%
%TO.N,unconnected-(A1-VSYS-Pad39)_1*%
X132455000Y-90060000D03*
D14*
%TO.N,unconnected-(A1-VSYS-Pad39)*%
X133255000Y-90060000D03*
D15*
%TO.P,A1,40,VBUS_40*%
%TO.N,unconnected-(A1-VBUS-Pad40)_1*%
X132455000Y-87520000D03*
D14*
%TO.N,unconnected-(A1-VBUS-Pad40)*%
X133255000Y-87520000D03*
%TD*%
D11*
%TO.P,SW2,1,1_1*%
%TO.N,Net-(A1-GPIO3)*%
X147960000Y-86920000D03*
%TO.P,SW2,2,2_2*%
%TO.N,GND*%
X141610000Y-89460000D03*
%TD*%
%TO.N,Net-(A1-GPIO4)*%
D19*
X137580000Y-105920000D02*
X137500000Y-106000000D01*
X121721827Y-102304364D02*
X116759364Y-102304364D01*
X137500000Y-106000000D02*
X137500000Y-102109364D01*
X122526191Y-101500000D02*
X121721827Y-102304364D01*
X147960000Y-105920000D02*
X137580000Y-105920000D01*
X116759364Y-102304364D02*
X114675000Y-100220000D01*
X136890636Y-101500000D02*
X122526191Y-101500000D01*
X137500000Y-102109364D02*
X136890636Y-101500000D01*
%TO.N,Net-(A1-GPIO2)*%
X122115000Y-100779819D02*
X122115000Y-93454496D01*
X120417477Y-93100000D02*
X120381410Y-93136067D01*
X120017139Y-93593032D02*
X120015000Y-93595171D01*
X127360505Y-96100000D02*
X126794819Y-96100000D01*
X118404829Y-93595171D02*
X117500000Y-94500000D01*
X117210635Y-94500000D02*
X115130635Y-96580000D01*
X115130635Y-96580000D02*
X114675000Y-96580000D01*
X121760504Y-93100000D02*
X120417477Y-93100000D01*
X120017139Y-93452357D02*
X120017139Y-93593032D01*
X120381410Y-93136067D02*
X120333429Y-93136067D01*
X136500000Y-85000000D02*
X136500000Y-93000000D01*
X147000000Y-85000000D02*
X136500000Y-85000000D01*
X120333429Y-93136067D02*
X120017139Y-93452357D01*
X126794819Y-96100000D02*
X122115000Y-100779819D01*
X114675000Y-96580000D02*
X114675000Y-95140000D01*
X129460505Y-94000000D02*
X127360505Y-96100000D01*
X117500000Y-94500000D02*
X117210635Y-94500000D01*
X147960000Y-84040000D02*
X147000000Y-85000000D01*
X147960000Y-67920000D02*
X147960000Y-84040000D01*
X122115000Y-93454496D02*
X121760504Y-93100000D01*
X136500000Y-93000000D02*
X135500000Y-94000000D01*
X120015000Y-93595171D02*
X118404829Y-93595171D01*
X135500000Y-94000000D02*
X129460505Y-94000000D01*
%TO.N,Net-(A1-GPIO5)*%
X131999365Y-103860000D02*
X131355000Y-103215635D01*
X134360000Y-103860000D02*
X131999365Y-103860000D01*
X147960000Y-124920000D02*
X137580000Y-124920000D01*
X116593678Y-102704364D02*
X116389315Y-102500000D01*
X137500000Y-107000000D02*
X134360000Y-103860000D01*
X131355000Y-102500000D02*
X122091877Y-102500000D01*
X121887512Y-102704364D02*
X116593678Y-102704364D01*
X114935000Y-102500000D02*
X114675000Y-102760000D01*
X131355000Y-103215635D02*
X131355000Y-102500000D01*
X137500000Y-125000000D02*
X137500000Y-107000000D01*
X122091877Y-102500000D02*
X121887512Y-102704364D01*
X116389315Y-102500000D02*
X114935000Y-102500000D01*
X137580000Y-124920000D02*
X137500000Y-125000000D01*
%TO.N,Net-(A1-GPIO3)*%
X147960000Y-86920000D02*
X147960000Y-86460000D01*
X134250636Y-96500000D02*
X126960505Y-96500000D01*
X147960000Y-86460000D02*
X147000000Y-85500000D01*
X136900000Y-85500000D02*
X136900000Y-93850636D01*
X118899364Y-101904364D02*
X114675000Y-97680000D01*
X121556141Y-101904364D02*
X118899364Y-101904364D01*
X136900000Y-93850636D02*
X134250636Y-96500000D01*
X126960505Y-96500000D02*
X121556141Y-101904364D01*
X147000000Y-85500000D02*
X136900000Y-85500000D01*
%TD*%
%TA.AperFunction,Conductor*%
%TO.N,GND*%
G36*
X113101777Y-60721444D02*
G01*
X113113838Y-60722273D01*
X113403899Y-60756541D01*
X113468166Y-60783955D01*
X113507410Y-60841763D01*
X113512495Y-60894233D01*
X113500000Y-61000000D01*
X127167598Y-61000000D01*
X127170052Y-61000023D01*
X156786727Y-61586492D01*
X156853361Y-61607500D01*
X156898061Y-61661200D01*
X156908259Y-61708928D01*
X157890434Y-140773960D01*
X157871584Y-140841239D01*
X157819353Y-140887646D01*
X157766444Y-140899500D01*
X107724500Y-140899500D01*
X107657461Y-140879815D01*
X107611706Y-140827011D01*
X107600500Y-140775500D01*
X107600500Y-86880219D01*
X111769500Y-86880219D01*
X111769500Y-88159784D01*
X111772395Y-88213814D01*
X111772396Y-88213818D01*
X111807976Y-88353221D01*
X111807980Y-88353233D01*
X111838419Y-88426719D01*
X111838431Y-88426747D01*
X111861779Y-88475548D01*
X111861782Y-88475553D01*
X111895430Y-88520500D01*
X111948006Y-88590733D01*
X111948010Y-88590737D01*
X111948015Y-88590743D01*
X112004252Y-88646980D01*
X112004261Y-88646988D01*
X112004267Y-88646994D01*
X112035970Y-88675472D01*
X112044524Y-88683156D01*
X112044532Y-88683162D01*
X112168263Y-88756573D01*
X112168262Y-88756573D01*
X112182615Y-88762518D01*
X112241774Y-88787022D01*
X112269662Y-88796860D01*
X112326332Y-88837725D01*
X112351913Y-88902743D01*
X112338283Y-88971271D01*
X112299531Y-89015371D01*
X112235856Y-89059956D01*
X112074954Y-89220858D01*
X111944432Y-89407265D01*
X111944431Y-89407267D01*
X111848261Y-89613502D01*
X111848258Y-89613511D01*
X111789366Y-89833302D01*
X111789364Y-89833312D01*
X111774500Y-90003214D01*
X111774500Y-90116785D01*
X111789364Y-90286687D01*
X111789366Y-90286697D01*
X111848258Y-90506488D01*
X111848261Y-90506497D01*
X111944431Y-90712732D01*
X111944432Y-90712734D01*
X112074954Y-90899141D01*
X112235858Y-91060045D01*
X112235861Y-91060047D01*
X112422266Y-91190568D01*
X112474219Y-91214794D01*
X112526659Y-91260966D01*
X112545811Y-91328159D01*
X112525596Y-91395041D01*
X112480269Y-91436534D01*
X112415499Y-91471155D01*
X112415478Y-91471167D01*
X112284469Y-91558704D01*
X112284463Y-91558708D01*
X112207935Y-91621514D01*
X112096514Y-91732935D01*
X112033708Y-91809463D01*
X112033704Y-91809469D01*
X111946167Y-91940478D01*
X111946155Y-91940498D01*
X111899490Y-92027801D01*
X111839185Y-92173387D01*
X111810443Y-92268139D01*
X111810440Y-92268150D01*
X111794160Y-92349999D01*
X111794161Y-92350000D01*
X114241988Y-92350000D01*
X114209075Y-92407007D01*
X114175000Y-92534174D01*
X114175000Y-92665826D01*
X114209075Y-92792993D01*
X114241988Y-92850000D01*
X111794160Y-92850000D01*
X111810440Y-92931849D01*
X111810443Y-92931860D01*
X111839185Y-93026612D01*
X111899490Y-93172198D01*
X111946155Y-93259501D01*
X111946167Y-93259521D01*
X112033704Y-93390530D01*
X112033708Y-93390536D01*
X112096514Y-93467064D01*
X112207935Y-93578485D01*
X112284463Y-93641291D01*
X112284469Y-93641295D01*
X112415478Y-93728832D01*
X112415506Y-93728849D01*
X112480268Y-93763465D01*
X112530112Y-93812427D01*
X112545573Y-93880565D01*
X112521741Y-93946244D01*
X112474221Y-93985205D01*
X112422264Y-94009433D01*
X112235858Y-94139954D01*
X112074954Y-94300858D01*
X111944432Y-94487265D01*
X111944431Y-94487267D01*
X111848261Y-94693502D01*
X111848258Y-94693511D01*
X111789366Y-94913302D01*
X111789364Y-94913312D01*
X111774500Y-95083214D01*
X111774500Y-95196785D01*
X111789364Y-95366687D01*
X111789366Y-95366697D01*
X111848258Y-95586488D01*
X111848261Y-95586497D01*
X111944431Y-95792732D01*
X111944432Y-95792734D01*
X112074954Y-95979141D01*
X112235858Y-96140045D01*
X112235861Y-96140047D01*
X112422266Y-96270568D01*
X112480275Y-96297618D01*
X112532714Y-96343791D01*
X112551866Y-96410984D01*
X112531650Y-96477865D01*
X112480275Y-96522382D01*
X112422267Y-96549431D01*
X112422265Y-96549432D01*
X112235858Y-96679954D01*
X112074954Y-96840858D01*
X111944432Y-97027265D01*
X111944431Y-97027267D01*
X111848261Y-97233502D01*
X111848258Y-97233511D01*
X111789366Y-97453302D01*
X111789364Y-97453312D01*
X111774500Y-97623214D01*
X111774500Y-97736785D01*
X111789364Y-97906687D01*
X111789366Y-97906697D01*
X111848258Y-98126488D01*
X111848261Y-98126497D01*
X111944431Y-98332732D01*
X111944432Y-98332734D01*
X112074954Y-98519141D01*
X112235858Y-98680045D01*
X112235861Y-98680047D01*
X112422266Y-98810568D01*
X112480275Y-98837618D01*
X112532714Y-98883791D01*
X112551866Y-98950984D01*
X112531650Y-99017865D01*
X112480275Y-99062382D01*
X112422267Y-99089431D01*
X112422265Y-99089432D01*
X112235858Y-99219954D01*
X112074954Y-99380858D01*
X111944432Y-99567265D01*
X111944431Y-99567267D01*
X111848261Y-99773502D01*
X111848258Y-99773511D01*
X111789366Y-99993302D01*
X111789364Y-99993312D01*
X111774500Y-100163214D01*
X111774500Y-100276785D01*
X111789364Y-100446687D01*
X111789366Y-100446697D01*
X111848258Y-100666488D01*
X111848261Y-100666497D01*
X111944431Y-100872732D01*
X111944432Y-100872734D01*
X112074954Y-101059141D01*
X112235858Y-101220045D01*
X112235861Y-101220047D01*
X112422266Y-101350568D01*
X112480275Y-101377618D01*
X112532714Y-101423791D01*
X112551866Y-101490984D01*
X112531650Y-101557865D01*
X112480275Y-101602382D01*
X112422267Y-101629431D01*
X112422265Y-101629432D01*
X112235858Y-101759954D01*
X112074954Y-101920858D01*
X111944432Y-102107265D01*
X111944431Y-102107267D01*
X111848261Y-102313502D01*
X111848258Y-102313511D01*
X111789366Y-102533302D01*
X111789364Y-102533312D01*
X111774500Y-102703214D01*
X111774500Y-102816785D01*
X111789364Y-102986687D01*
X111789366Y-102986697D01*
X111848258Y-103206488D01*
X111848261Y-103206497D01*
X111944431Y-103412732D01*
X111944432Y-103412734D01*
X112074954Y-103599141D01*
X112235858Y-103760045D01*
X112235861Y-103760047D01*
X112422266Y-103890568D01*
X112474219Y-103914794D01*
X112526659Y-103960966D01*
X112545811Y-104028159D01*
X112525596Y-104095041D01*
X112480269Y-104136534D01*
X112415499Y-104171155D01*
X112415478Y-104171167D01*
X112284469Y-104258704D01*
X112284463Y-104258708D01*
X112207935Y-104321514D01*
X112096514Y-104432935D01*
X112033708Y-104509463D01*
X112033704Y-104509469D01*
X111946167Y-104640478D01*
X111946155Y-104640498D01*
X111899490Y-104727801D01*
X111839185Y-104873387D01*
X111810443Y-104968139D01*
X111810440Y-104968150D01*
X111794160Y-105049999D01*
X111794161Y-105050000D01*
X114241988Y-105050000D01*
X114209075Y-105107007D01*
X114175000Y-105234174D01*
X114175000Y-105365826D01*
X114209075Y-105492993D01*
X114241988Y-105550000D01*
X111794160Y-105550000D01*
X111810440Y-105631849D01*
X111810443Y-105631860D01*
X111839185Y-105726612D01*
X111899490Y-105872198D01*
X111946155Y-105959501D01*
X111946167Y-105959521D01*
X112033704Y-106090530D01*
X112033708Y-106090536D01*
X112096514Y-106167064D01*
X112207935Y-106278485D01*
X112284463Y-106341291D01*
X112284469Y-106341295D01*
X112415478Y-106428832D01*
X112415506Y-106428849D01*
X112480268Y-106463465D01*
X112530112Y-106512427D01*
X112545573Y-106580565D01*
X112521741Y-106646244D01*
X112474221Y-106685205D01*
X112422264Y-106709433D01*
X112235858Y-106839954D01*
X112074954Y-107000858D01*
X111944432Y-107187265D01*
X111944431Y-107187267D01*
X111848261Y-107393502D01*
X111848258Y-107393511D01*
X111789366Y-107613302D01*
X111789364Y-107613312D01*
X111774500Y-107783214D01*
X111774500Y-107896785D01*
X111789364Y-108066687D01*
X111789366Y-108066697D01*
X111848258Y-108286488D01*
X111848261Y-108286497D01*
X111944431Y-108492732D01*
X111944432Y-108492734D01*
X112074954Y-108679141D01*
X112235858Y-108840045D01*
X112235861Y-108840047D01*
X112422266Y-108970568D01*
X112480275Y-108997618D01*
X112532714Y-109043791D01*
X112551866Y-109110984D01*
X112531650Y-109177865D01*
X112480275Y-109222382D01*
X112422267Y-109249431D01*
X112422265Y-109249432D01*
X112235858Y-109379954D01*
X112074954Y-109540858D01*
X111944432Y-109727265D01*
X111944431Y-109727267D01*
X111848261Y-109933502D01*
X111848258Y-109933511D01*
X111789366Y-110153302D01*
X111789364Y-110153312D01*
X111774500Y-110323214D01*
X111774500Y-110436785D01*
X111789364Y-110606687D01*
X111789366Y-110606697D01*
X111848258Y-110826488D01*
X111848261Y-110826497D01*
X111944431Y-111032732D01*
X111944432Y-111032734D01*
X112074954Y-111219141D01*
X112235858Y-111380045D01*
X112235861Y-111380047D01*
X112422266Y-111510568D01*
X112480275Y-111537618D01*
X112532714Y-111583791D01*
X112551866Y-111650984D01*
X112531650Y-111717865D01*
X112480275Y-111762382D01*
X112422267Y-111789431D01*
X112422265Y-111789432D01*
X112235858Y-111919954D01*
X112074954Y-112080858D01*
X111944432Y-112267265D01*
X111944431Y-112267267D01*
X111848261Y-112473502D01*
X111848258Y-112473511D01*
X111789366Y-112693302D01*
X111789364Y-112693312D01*
X111774500Y-112863214D01*
X111774500Y-112976785D01*
X111789364Y-113146687D01*
X111789366Y-113146697D01*
X111848258Y-113366488D01*
X111848261Y-113366497D01*
X111944431Y-113572732D01*
X111944432Y-113572734D01*
X112074954Y-113759141D01*
X112235858Y-113920045D01*
X112235861Y-113920047D01*
X112422266Y-114050568D01*
X112480275Y-114077618D01*
X112532714Y-114123791D01*
X112551866Y-114190984D01*
X112531650Y-114257865D01*
X112480275Y-114302382D01*
X112422267Y-114329431D01*
X112422265Y-114329432D01*
X112235858Y-114459954D01*
X112074954Y-114620858D01*
X111944432Y-114807265D01*
X111944431Y-114807267D01*
X111848261Y-115013502D01*
X111848258Y-115013511D01*
X111789366Y-115233302D01*
X111789364Y-115233312D01*
X111774500Y-115403214D01*
X111774500Y-115516785D01*
X111789364Y-115686687D01*
X111789366Y-115686697D01*
X111848258Y-115906488D01*
X111848261Y-115906497D01*
X111944431Y-116112732D01*
X111944432Y-116112734D01*
X112074954Y-116299141D01*
X112235858Y-116460045D01*
X112235861Y-116460047D01*
X112422266Y-116590568D01*
X112474219Y-116614794D01*
X112526659Y-116660966D01*
X112545811Y-116728159D01*
X112525596Y-116795041D01*
X112480269Y-116836534D01*
X112415499Y-116871155D01*
X112415478Y-116871167D01*
X112284469Y-116958704D01*
X112284463Y-116958708D01*
X112207935Y-117021514D01*
X112096514Y-117132935D01*
X112033708Y-117209463D01*
X112033704Y-117209469D01*
X111946167Y-117340478D01*
X111946155Y-117340498D01*
X111899490Y-117427801D01*
X111839185Y-117573387D01*
X111810443Y-117668139D01*
X111810440Y-117668150D01*
X111794160Y-117749999D01*
X111794161Y-117750000D01*
X114241988Y-117750000D01*
X114209075Y-117807007D01*
X114175000Y-117934174D01*
X114175000Y-118065826D01*
X114209075Y-118192993D01*
X114241988Y-118250000D01*
X111794160Y-118250000D01*
X111810440Y-118331849D01*
X111810443Y-118331860D01*
X111839185Y-118426612D01*
X111899490Y-118572198D01*
X111946155Y-118659501D01*
X111946167Y-118659521D01*
X112033704Y-118790530D01*
X112033708Y-118790536D01*
X112096514Y-118867064D01*
X112207935Y-118978485D01*
X112284463Y-119041291D01*
X112284469Y-119041295D01*
X112415478Y-119128832D01*
X112415506Y-119128849D01*
X112480268Y-119163465D01*
X112530112Y-119212427D01*
X112545573Y-119280565D01*
X112521741Y-119346244D01*
X112474221Y-119385205D01*
X112422264Y-119409433D01*
X112235858Y-119539954D01*
X112074954Y-119700858D01*
X111944432Y-119887265D01*
X111944431Y-119887267D01*
X111848261Y-120093502D01*
X111848258Y-120093511D01*
X111789366Y-120313302D01*
X111789364Y-120313312D01*
X111774500Y-120483214D01*
X111774500Y-120596785D01*
X111789364Y-120766687D01*
X111789366Y-120766697D01*
X111848258Y-120986488D01*
X111848261Y-120986497D01*
X111944431Y-121192732D01*
X111944432Y-121192734D01*
X112074954Y-121379141D01*
X112235858Y-121540045D01*
X112235861Y-121540047D01*
X112422266Y-121670568D01*
X112480275Y-121697618D01*
X112532714Y-121743791D01*
X112551866Y-121810984D01*
X112531650Y-121877865D01*
X112480275Y-121922382D01*
X112422267Y-121949431D01*
X112422265Y-121949432D01*
X112235858Y-122079954D01*
X112074954Y-122240858D01*
X111944432Y-122427265D01*
X111944431Y-122427267D01*
X111848261Y-122633502D01*
X111848258Y-122633511D01*
X111789366Y-122853302D01*
X111789364Y-122853312D01*
X111774500Y-123023214D01*
X111774500Y-123136785D01*
X111789364Y-123306687D01*
X111789366Y-123306697D01*
X111848258Y-123526488D01*
X111848261Y-123526497D01*
X111944431Y-123732732D01*
X111944432Y-123732734D01*
X112074954Y-123919141D01*
X112235858Y-124080045D01*
X112235861Y-124080047D01*
X112422266Y-124210568D01*
X112480275Y-124237618D01*
X112532714Y-124283791D01*
X112551866Y-124350984D01*
X112531650Y-124417865D01*
X112480275Y-124462382D01*
X112422267Y-124489431D01*
X112422265Y-124489432D01*
X112235858Y-124619954D01*
X112074954Y-124780858D01*
X111944432Y-124967265D01*
X111944431Y-124967267D01*
X111848261Y-125173502D01*
X111848258Y-125173511D01*
X111789366Y-125393302D01*
X111789364Y-125393312D01*
X111774500Y-125563214D01*
X111774500Y-125676785D01*
X111789364Y-125846687D01*
X111789366Y-125846697D01*
X111848258Y-126066488D01*
X111848261Y-126066497D01*
X111944431Y-126272732D01*
X111944432Y-126272734D01*
X112074954Y-126459141D01*
X112235858Y-126620045D01*
X112235861Y-126620047D01*
X112422266Y-126750568D01*
X112480275Y-126777618D01*
X112532714Y-126823791D01*
X112551866Y-126890984D01*
X112531650Y-126957865D01*
X112480275Y-127002382D01*
X112422267Y-127029431D01*
X112422265Y-127029432D01*
X112235858Y-127159954D01*
X112074954Y-127320858D01*
X111944432Y-127507265D01*
X111944431Y-127507267D01*
X111848261Y-127713502D01*
X111848258Y-127713511D01*
X111789366Y-127933302D01*
X111789364Y-127933312D01*
X111774500Y-128103214D01*
X111774500Y-128216785D01*
X111789364Y-128386687D01*
X111789366Y-128386697D01*
X111848258Y-128606488D01*
X111848261Y-128606497D01*
X111944431Y-128812732D01*
X111944432Y-128812734D01*
X112074954Y-128999141D01*
X112235858Y-129160045D01*
X112248957Y-129169217D01*
X112422266Y-129290568D01*
X112474219Y-129314794D01*
X112526659Y-129360966D01*
X112545811Y-129428159D01*
X112525596Y-129495041D01*
X112480269Y-129536534D01*
X112415499Y-129571155D01*
X112415478Y-129571167D01*
X112284469Y-129658704D01*
X112284463Y-129658708D01*
X112207935Y-129721514D01*
X112096514Y-129832935D01*
X112033708Y-129909463D01*
X112033704Y-129909469D01*
X111946167Y-130040478D01*
X111946155Y-130040498D01*
X111899490Y-130127801D01*
X111839185Y-130273387D01*
X111810443Y-130368139D01*
X111810440Y-130368150D01*
X111794160Y-130449999D01*
X111794161Y-130450000D01*
X114241988Y-130450000D01*
X114209075Y-130507007D01*
X114175000Y-130634174D01*
X114175000Y-130765826D01*
X114209075Y-130892993D01*
X114241988Y-130950000D01*
X111794160Y-130950000D01*
X111810440Y-131031849D01*
X111810443Y-131031860D01*
X111839185Y-131126612D01*
X111899490Y-131272198D01*
X111946155Y-131359501D01*
X111946167Y-131359521D01*
X112033704Y-131490530D01*
X112033708Y-131490536D01*
X112096514Y-131567064D01*
X112207935Y-131678485D01*
X112284463Y-131741291D01*
X112284469Y-131741295D01*
X112415478Y-131828832D01*
X112415506Y-131828849D01*
X112480268Y-131863465D01*
X112530112Y-131912427D01*
X112545573Y-131980565D01*
X112521741Y-132046244D01*
X112474221Y-132085205D01*
X112422264Y-132109433D01*
X112235858Y-132239954D01*
X112074954Y-132400858D01*
X111944432Y-132587265D01*
X111944431Y-132587267D01*
X111848261Y-132793502D01*
X111848258Y-132793511D01*
X111789366Y-133013302D01*
X111789364Y-133013312D01*
X111774500Y-133183214D01*
X111774500Y-133296785D01*
X111789364Y-133466687D01*
X111789366Y-133466697D01*
X111848258Y-133686488D01*
X111848261Y-133686497D01*
X111944431Y-133892732D01*
X111944432Y-133892734D01*
X112074954Y-134079141D01*
X112235858Y-134240045D01*
X112235861Y-134240047D01*
X112422266Y-134370568D01*
X112480275Y-134397618D01*
X112532714Y-134443791D01*
X112551866Y-134510984D01*
X112531650Y-134577865D01*
X112480275Y-134622382D01*
X112422267Y-134649431D01*
X112422265Y-134649432D01*
X112235858Y-134779954D01*
X112074954Y-134940858D01*
X111944432Y-135127265D01*
X111944431Y-135127267D01*
X111848261Y-135333502D01*
X111848258Y-135333511D01*
X111789366Y-135553302D01*
X111789364Y-135553312D01*
X111774500Y-135723214D01*
X111774500Y-135836785D01*
X111789364Y-136006687D01*
X111789366Y-136006697D01*
X111848258Y-136226488D01*
X111848261Y-136226497D01*
X111944431Y-136432732D01*
X111944432Y-136432734D01*
X112074954Y-136619141D01*
X112235858Y-136780045D01*
X112235861Y-136780047D01*
X112422266Y-136910568D01*
X112628504Y-137006739D01*
X112848308Y-137065635D01*
X113018214Y-137080499D01*
X113018215Y-137080500D01*
X113018216Y-137080500D01*
X114777350Y-137080500D01*
X114777352Y-137080500D01*
X114829308Y-137072270D01*
X114833582Y-137071592D01*
X114901692Y-137065635D01*
X114945766Y-137053825D01*
X114979534Y-137048477D01*
X115041404Y-137028373D01*
X115047617Y-137026534D01*
X115121490Y-137006741D01*
X115121492Y-137006739D01*
X115121496Y-137006739D01*
X115152532Y-136992266D01*
X115174219Y-136985220D01*
X115245172Y-136949067D01*
X115327734Y-136910568D01*
X115346446Y-136897465D01*
X115356610Y-136892287D01*
X115430199Y-136838821D01*
X115514139Y-136780047D01*
X115675047Y-136619139D01*
X115733821Y-136535199D01*
X115787287Y-136461610D01*
X115792465Y-136451446D01*
X115805568Y-136432734D01*
X115844067Y-136350172D01*
X115880220Y-136279219D01*
X115887266Y-136257532D01*
X115901739Y-136226496D01*
X115901742Y-136226488D01*
X115921534Y-136152617D01*
X115922377Y-136149471D01*
X115943477Y-136084534D01*
X115948825Y-136050766D01*
X115960635Y-136006692D01*
X115966215Y-135942892D01*
X115967270Y-135934306D01*
X115975500Y-135882350D01*
X115975500Y-135677649D01*
X115967270Y-135625691D01*
X115967270Y-135625690D01*
X115966592Y-135621414D01*
X115960635Y-135553308D01*
X115948825Y-135509233D01*
X115943477Y-135475466D01*
X115923378Y-135413609D01*
X115921535Y-135407386D01*
X115901742Y-135333513D01*
X115901740Y-135333510D01*
X115901739Y-135333504D01*
X115887266Y-135302467D01*
X115880220Y-135280781D01*
X115844067Y-135209827D01*
X115805568Y-135127266D01*
X115797436Y-135115652D01*
X115797436Y-135115651D01*
X115792462Y-135108548D01*
X115787287Y-135098390D01*
X115733821Y-135024800D01*
X115733215Y-135023935D01*
X115733205Y-135023920D01*
X115675045Y-134940858D01*
X115514140Y-134779953D01*
X115431078Y-134721793D01*
X115430180Y-134721164D01*
X115356610Y-134667713D01*
X115346448Y-134662535D01*
X115339346Y-134657562D01*
X115327736Y-134649433D01*
X115327727Y-134649429D01*
X115269723Y-134622380D01*
X115259066Y-134612996D01*
X115245866Y-134607773D01*
X115233368Y-134590369D01*
X115217285Y-134576208D01*
X115213393Y-134562552D01*
X115205112Y-134551021D01*
X115204007Y-134529621D01*
X115198134Y-134509014D01*
X115202241Y-134495423D01*
X115201510Y-134481244D01*
X115212149Y-134462644D01*
X115218350Y-134442133D01*
X115229830Y-134431737D01*
X115236204Y-134420597D01*
X115260623Y-134403856D01*
X115264872Y-134400010D01*
X115267252Y-134398770D01*
X115327734Y-134370568D01*
X115346002Y-134357775D01*
X115353207Y-134354025D01*
X115353416Y-134353983D01*
X115354180Y-134353524D01*
X115356610Y-134352287D01*
X115429358Y-134299432D01*
X115431047Y-134298227D01*
X115514139Y-134240047D01*
X115675047Y-134079139D01*
X115733821Y-133995199D01*
X115787287Y-133921610D01*
X115792465Y-133911446D01*
X115805568Y-133892734D01*
X115844067Y-133810172D01*
X115880220Y-133739219D01*
X115887266Y-133717532D01*
X115901739Y-133686496D01*
X115901742Y-133686488D01*
X115921534Y-133612617D01*
X115922377Y-133609471D01*
X115943477Y-133544534D01*
X115948825Y-133510766D01*
X115960635Y-133466692D01*
X115966215Y-133402892D01*
X115967270Y-133394306D01*
X115975500Y-133342350D01*
X115975500Y-133137649D01*
X115967270Y-133085691D01*
X115967270Y-133085690D01*
X115966592Y-133081414D01*
X115960635Y-133013308D01*
X115954361Y-132989895D01*
X116465000Y-132989895D01*
X119977057Y-135717343D01*
X120017931Y-135774007D01*
X120025000Y-135815277D01*
X120025000Y-137149966D01*
X120025476Y-137193635D01*
X120025476Y-137193641D01*
X120033083Y-137280590D01*
X120048238Y-137366537D01*
X120048241Y-137366550D01*
X120070824Y-137450834D01*
X120070825Y-137450837D01*
X120100674Y-137532851D01*
X120100675Y-137532854D01*
X120100680Y-137532866D01*
X120137567Y-137611969D01*
X120181207Y-137687556D01*
X120181211Y-137687562D01*
X120181218Y-137687573D01*
X120231269Y-137759053D01*
X120271820Y-137807379D01*
X120287371Y-137825912D01*
X120349088Y-137887629D01*
X120376886Y-137910954D01*
X120415946Y-137943730D01*
X120487426Y-137993781D01*
X120487433Y-137993785D01*
X120487444Y-137993793D01*
X120563031Y-138037433D01*
X120642134Y-138074320D01*
X120724151Y-138104171D01*
X120724161Y-138104173D01*
X120724162Y-138104174D01*
X120724165Y-138104175D01*
X120743131Y-138109256D01*
X120808457Y-138126761D01*
X120894412Y-138141917D01*
X120981360Y-138149524D01*
X121025000Y-138150000D01*
X121068640Y-138149524D01*
X121155588Y-138141917D01*
X121241543Y-138126761D01*
X121325849Y-138104171D01*
X121407866Y-138074320D01*
X121486969Y-138037433D01*
X121562556Y-137993793D01*
X121634052Y-137943731D01*
X121700912Y-137887629D01*
X121762629Y-137825912D01*
X121818731Y-137759052D01*
X121858065Y-137702876D01*
X121912641Y-137659252D01*
X121959640Y-137650000D01*
X122630360Y-137650000D01*
X122697399Y-137669685D01*
X122731935Y-137702877D01*
X122771269Y-137759053D01*
X122811820Y-137807379D01*
X122827371Y-137825912D01*
X122889088Y-137887629D01*
X122916886Y-137910954D01*
X122955946Y-137943730D01*
X123027426Y-137993781D01*
X123027433Y-137993785D01*
X123027444Y-137993793D01*
X123103031Y-138037433D01*
X123182134Y-138074320D01*
X123264151Y-138104171D01*
X123264161Y-138104173D01*
X123264162Y-138104174D01*
X123264165Y-138104175D01*
X123283131Y-138109256D01*
X123348457Y-138126761D01*
X123434412Y-138141917D01*
X123521360Y-138149524D01*
X123565000Y-138150000D01*
X123608640Y-138149524D01*
X123695588Y-138141917D01*
X123781543Y-138126761D01*
X123865849Y-138104171D01*
X123947866Y-138074320D01*
X124026969Y-138037433D01*
X124102556Y-137993793D01*
X124174052Y-137943731D01*
X124240912Y-137887629D01*
X124302629Y-137825912D01*
X124358731Y-137759052D01*
X124398065Y-137702876D01*
X124452641Y-137659252D01*
X124499640Y-137650000D01*
X125170562Y-137650000D01*
X125237601Y-137669685D01*
X125272132Y-137702870D01*
X125311409Y-137758958D01*
X125311416Y-137758968D01*
X125367509Y-137825813D01*
X125367513Y-137825817D01*
X125367514Y-137825818D01*
X125429231Y-137887531D01*
X125496092Y-137943630D01*
X125567589Y-137993689D01*
X125643176Y-138037326D01*
X125722279Y-138074209D01*
X125722289Y-138074212D01*
X125722292Y-138074214D01*
X125804278Y-138104051D01*
X125804281Y-138104052D01*
X125804295Y-138104057D01*
X125888601Y-138126643D01*
X125974555Y-138141795D01*
X125974558Y-138141795D01*
X125974561Y-138141796D01*
X126061477Y-138149397D01*
X126061487Y-138149397D01*
X126061502Y-138149399D01*
X126105141Y-138149925D01*
X126148780Y-138149448D01*
X126235727Y-138141837D01*
X126321679Y-138126679D01*
X126405983Y-138104087D01*
X126487998Y-138074233D01*
X126567099Y-138037346D01*
X126642684Y-137993705D01*
X126683648Y-137965020D01*
X126714155Y-137943659D01*
X126714162Y-137943653D01*
X126714177Y-137943643D01*
X126781036Y-137887540D01*
X126842751Y-137825824D01*
X126898853Y-137758965D01*
X126948914Y-137687470D01*
X126992553Y-137611884D01*
X127029440Y-137532783D01*
X127059292Y-137450768D01*
X127081882Y-137366464D01*
X127097040Y-137280511D01*
X127104648Y-137193564D01*
X127105141Y-137149925D01*
X127105141Y-135815168D01*
X127124826Y-135748129D01*
X127153082Y-135717235D01*
X130665000Y-132989895D01*
X130665000Y-131339785D01*
X131150000Y-131339785D01*
X131152893Y-131393762D01*
X131152893Y-131393764D01*
X131188438Y-131533030D01*
X131188440Y-131533037D01*
X131211863Y-131589583D01*
X131851447Y-130950000D01*
X131150000Y-130950000D01*
X131150000Y-131339785D01*
X130665000Y-131339785D01*
X130665000Y-130060219D01*
X131150000Y-130060219D01*
X131150000Y-130450000D01*
X131851447Y-130450000D01*
X131851447Y-130449999D01*
X131211862Y-129810415D01*
X131188449Y-129866940D01*
X131170455Y-129917946D01*
X131150000Y-130060219D01*
X130665000Y-130060219D01*
X130665000Y-128650000D01*
X116465000Y-128650000D01*
X116465000Y-132989895D01*
X115954361Y-132989895D01*
X115948825Y-132969233D01*
X115943477Y-132935466D01*
X115923378Y-132873609D01*
X115921535Y-132867386D01*
X115901742Y-132793513D01*
X115901740Y-132793510D01*
X115901739Y-132793504D01*
X115887266Y-132762467D01*
X115880220Y-132740781D01*
X115844067Y-132669827D01*
X115805568Y-132587266D01*
X115797436Y-132575652D01*
X115797436Y-132575651D01*
X115792462Y-132568548D01*
X115787287Y-132558390D01*
X115733821Y-132484800D01*
X115733215Y-132483935D01*
X115733205Y-132483920D01*
X115675045Y-132400858D01*
X115514143Y-132239956D01*
X115447620Y-132193376D01*
X115403996Y-132138799D01*
X115396803Y-132069300D01*
X115428325Y-132006946D01*
X115488082Y-131971652D01*
X115508025Y-131966562D01*
X115508035Y-131966559D01*
X115564582Y-131943135D01*
X114804409Y-131182962D01*
X114867993Y-131165925D01*
X114982007Y-131100099D01*
X115075099Y-131007007D01*
X115108012Y-130950000D01*
X115278552Y-130950000D01*
X115918135Y-131589582D01*
X115918137Y-131589582D01*
X115941552Y-131533053D01*
X115959544Y-131482053D01*
X115979999Y-131339780D01*
X115980000Y-131339779D01*
X115980000Y-130950000D01*
X115278552Y-130950000D01*
X115108012Y-130950000D01*
X115140925Y-130892993D01*
X115175000Y-130765826D01*
X115175000Y-130634174D01*
X115140925Y-130507007D01*
X115108011Y-130449999D01*
X115278552Y-130449999D01*
X115278553Y-130450000D01*
X115980000Y-130450000D01*
X115980000Y-130060214D01*
X115977106Y-130006237D01*
X115977106Y-130006235D01*
X115941558Y-129866960D01*
X115918136Y-129810415D01*
X115918135Y-129810415D01*
X115278552Y-130449999D01*
X115108011Y-130449999D01*
X115075099Y-130392993D01*
X114982007Y-130299901D01*
X114867993Y-130234075D01*
X114804409Y-130217037D01*
X115564583Y-129456863D01*
X115564583Y-129456862D01*
X115508052Y-129433447D01*
X115508024Y-129433436D01*
X115479834Y-129423491D01*
X115423163Y-129382624D01*
X115397582Y-129317605D01*
X115411214Y-129249078D01*
X115449965Y-129204980D01*
X115514139Y-129160047D01*
X115675047Y-128999139D01*
X115733821Y-128915199D01*
X115787287Y-128841610D01*
X115792465Y-128831446D01*
X115805568Y-128812734D01*
X115844067Y-128730172D01*
X115880220Y-128659219D01*
X115887266Y-128637532D01*
X115901739Y-128606496D01*
X115921539Y-128532600D01*
X115923378Y-128526389D01*
X115927742Y-128512959D01*
X115943477Y-128464534D01*
X115947810Y-128437171D01*
X115950505Y-128424496D01*
X115960635Y-128386692D01*
X115966215Y-128322892D01*
X115967270Y-128314306D01*
X115968847Y-128304354D01*
X115975500Y-128262352D01*
X115975500Y-128057648D01*
X115966593Y-128001417D01*
X115960635Y-127933308D01*
X115948825Y-127889233D01*
X115943477Y-127855466D01*
X115923378Y-127793609D01*
X115921535Y-127787386D01*
X115901742Y-127713513D01*
X115901740Y-127713510D01*
X115901739Y-127713504D01*
X115887266Y-127682467D01*
X115880220Y-127660781D01*
X115844067Y-127589827D01*
X115805568Y-127507266D01*
X115797436Y-127495652D01*
X115797436Y-127495651D01*
X115792462Y-127488548D01*
X115787287Y-127478390D01*
X115733821Y-127404800D01*
X115733215Y-127403935D01*
X115733205Y-127403920D01*
X115675045Y-127320858D01*
X115514140Y-127159953D01*
X115431078Y-127101793D01*
X115430180Y-127101164D01*
X115356610Y-127047713D01*
X115346448Y-127042535D01*
X115339346Y-127037562D01*
X115327736Y-127029433D01*
X115327727Y-127029429D01*
X115269723Y-127002380D01*
X115259066Y-126992996D01*
X115245866Y-126987773D01*
X115233368Y-126970369D01*
X115217285Y-126956208D01*
X115213393Y-126942552D01*
X115205112Y-126931021D01*
X115204007Y-126909621D01*
X115198134Y-126889014D01*
X115202241Y-126875423D01*
X115201510Y-126861244D01*
X115212149Y-126842644D01*
X115218350Y-126822133D01*
X115229830Y-126811737D01*
X115236204Y-126800597D01*
X115260623Y-126783856D01*
X115264872Y-126780010D01*
X115267252Y-126778770D01*
X115327734Y-126750568D01*
X115346002Y-126737775D01*
X115353207Y-126734025D01*
X115353416Y-126733983D01*
X115354180Y-126733524D01*
X115356610Y-126732287D01*
X115429358Y-126679432D01*
X115431047Y-126678227D01*
X115514139Y-126620047D01*
X115675047Y-126459139D01*
X115733821Y-126375199D01*
X115787287Y-126301610D01*
X115792465Y-126291446D01*
X115805568Y-126272734D01*
X115844067Y-126190172D01*
X115880220Y-126119219D01*
X115887266Y-126097532D01*
X115901739Y-126066496D01*
X115901742Y-126066488D01*
X115921534Y-125992617D01*
X115922377Y-125989471D01*
X115943477Y-125924534D01*
X115948825Y-125890766D01*
X115960635Y-125846692D01*
X115966215Y-125782892D01*
X115967270Y-125774306D01*
X115975500Y-125722350D01*
X115975500Y-125517649D01*
X115967270Y-125465691D01*
X115967270Y-125465690D01*
X115966592Y-125461414D01*
X115960635Y-125393308D01*
X115948825Y-125349233D01*
X115943477Y-125315466D01*
X115923378Y-125253609D01*
X115921535Y-125247386D01*
X115901742Y-125173513D01*
X115901740Y-125173510D01*
X115901739Y-125173504D01*
X115887266Y-125142467D01*
X115880220Y-125120781D01*
X115844067Y-125049827D01*
X115805568Y-124967266D01*
X115797436Y-124955652D01*
X115797436Y-124955651D01*
X115792462Y-124948548D01*
X115787287Y-124938390D01*
X115733821Y-124864800D01*
X115733215Y-124863935D01*
X115733205Y-124863920D01*
X115675045Y-124780858D01*
X115514140Y-124619953D01*
X115431078Y-124561793D01*
X115430180Y-124561164D01*
X115356610Y-124507713D01*
X115346448Y-124502535D01*
X115339346Y-124497562D01*
X115327736Y-124489433D01*
X115327727Y-124489429D01*
X115269723Y-124462380D01*
X115259066Y-124452996D01*
X115245866Y-124447773D01*
X115233368Y-124430369D01*
X115217285Y-124416208D01*
X115213393Y-124402552D01*
X115205112Y-124391021D01*
X115204007Y-124369621D01*
X115198134Y-124349014D01*
X115202241Y-124335423D01*
X115201510Y-124321244D01*
X115212149Y-124302644D01*
X115218350Y-124282133D01*
X115229830Y-124271737D01*
X115236204Y-124260597D01*
X115260623Y-124243856D01*
X115264872Y-124240010D01*
X115267252Y-124238770D01*
X115327734Y-124210568D01*
X115346002Y-124197775D01*
X115353207Y-124194025D01*
X115353416Y-124193983D01*
X115354180Y-124193524D01*
X115356610Y-124192287D01*
X115429358Y-124139432D01*
X115431047Y-124138227D01*
X115514139Y-124080047D01*
X115675047Y-123919139D01*
X115733821Y-123835199D01*
X115787287Y-123761610D01*
X115792465Y-123751446D01*
X115805568Y-123732734D01*
X115844067Y-123650172D01*
X115880220Y-123579219D01*
X115887266Y-123557532D01*
X115901739Y-123526496D01*
X115901742Y-123526488D01*
X115921534Y-123452617D01*
X115922377Y-123449471D01*
X115943477Y-123384534D01*
X115948825Y-123350766D01*
X115960635Y-123306692D01*
X115966215Y-123242892D01*
X115967270Y-123234306D01*
X115975500Y-123182350D01*
X115975500Y-122977649D01*
X115967270Y-122925691D01*
X115967270Y-122925690D01*
X115966592Y-122921414D01*
X115960635Y-122853308D01*
X115948825Y-122809233D01*
X115943477Y-122775466D01*
X115923378Y-122713609D01*
X115921535Y-122707386D01*
X115901742Y-122633513D01*
X115901740Y-122633510D01*
X115901739Y-122633504D01*
X115887266Y-122602467D01*
X115880220Y-122580781D01*
X115844067Y-122509827D01*
X115805568Y-122427266D01*
X115797436Y-122415652D01*
X115797436Y-122415651D01*
X115792462Y-122408548D01*
X115787287Y-122398390D01*
X115733821Y-122324800D01*
X115733215Y-122323935D01*
X115733205Y-122323920D01*
X115675045Y-122240858D01*
X115514140Y-122079953D01*
X115431078Y-122021793D01*
X115430180Y-122021164D01*
X115356610Y-121967713D01*
X115346448Y-121962535D01*
X115339346Y-121957562D01*
X115327736Y-121949433D01*
X115327727Y-121949429D01*
X115269723Y-121922380D01*
X115259066Y-121912996D01*
X115245866Y-121907773D01*
X115233368Y-121890369D01*
X115217285Y-121876208D01*
X115213393Y-121862552D01*
X115205112Y-121851021D01*
X115204007Y-121829621D01*
X115198134Y-121809014D01*
X115202241Y-121795423D01*
X115201510Y-121781244D01*
X115212149Y-121762644D01*
X115218350Y-121742133D01*
X115229830Y-121731737D01*
X115236204Y-121720597D01*
X115260623Y-121703856D01*
X115264872Y-121700010D01*
X115267252Y-121698770D01*
X115327734Y-121670568D01*
X115346002Y-121657775D01*
X115353207Y-121654025D01*
X115353416Y-121653983D01*
X115354180Y-121653524D01*
X115356610Y-121652287D01*
X115429358Y-121599432D01*
X115431047Y-121598227D01*
X115514139Y-121540047D01*
X115675047Y-121379139D01*
X115733821Y-121295199D01*
X115787287Y-121221610D01*
X115792465Y-121211446D01*
X115805568Y-121192734D01*
X115844067Y-121110172D01*
X115880220Y-121039219D01*
X115887266Y-121017532D01*
X115901739Y-120986496D01*
X115901742Y-120986488D01*
X115921534Y-120912617D01*
X115922377Y-120909471D01*
X115943477Y-120844534D01*
X115948825Y-120810766D01*
X115960635Y-120766692D01*
X115966215Y-120702892D01*
X115967270Y-120694306D01*
X115975500Y-120642350D01*
X115975500Y-120441827D01*
X115975500Y-120437648D01*
X115967155Y-120384967D01*
X115967057Y-120384297D01*
X115967079Y-120384138D01*
X115966215Y-120377098D01*
X115960635Y-120313308D01*
X115948825Y-120269233D01*
X115943477Y-120235466D01*
X115922377Y-120170528D01*
X115918072Y-120154462D01*
X115901742Y-120093513D01*
X115901740Y-120093510D01*
X115901739Y-120093504D01*
X115887266Y-120062467D01*
X115880220Y-120040781D01*
X115844067Y-119969827D01*
X115805568Y-119887266D01*
X115797436Y-119875652D01*
X115797436Y-119875651D01*
X115792462Y-119868548D01*
X115787287Y-119858390D01*
X115733821Y-119784800D01*
X115733215Y-119783935D01*
X115733205Y-119783920D01*
X115675045Y-119700858D01*
X115514143Y-119539956D01*
X115447620Y-119493376D01*
X115403996Y-119438799D01*
X115396803Y-119369300D01*
X115428325Y-119306946D01*
X115488082Y-119271652D01*
X115508025Y-119266562D01*
X115508035Y-119266559D01*
X115564582Y-119243135D01*
X114804409Y-118482962D01*
X114867993Y-118465925D01*
X114982007Y-118400099D01*
X115075099Y-118307007D01*
X115108012Y-118250000D01*
X115278552Y-118250000D01*
X115918135Y-118889582D01*
X115918137Y-118889582D01*
X115941552Y-118833053D01*
X115959544Y-118782053D01*
X115979998Y-118639785D01*
X131150000Y-118639785D01*
X131152893Y-118693762D01*
X131152893Y-118693764D01*
X131188438Y-118833030D01*
X131188440Y-118833037D01*
X131211863Y-118889583D01*
X131851447Y-118250000D01*
X131150000Y-118250000D01*
X131150000Y-118639785D01*
X115979998Y-118639785D01*
X115979999Y-118639780D01*
X115980000Y-118639779D01*
X115980000Y-118250000D01*
X115278552Y-118250000D01*
X115108012Y-118250000D01*
X115140925Y-118192993D01*
X115175000Y-118065826D01*
X115175000Y-117934174D01*
X115140925Y-117807007D01*
X115108011Y-117749999D01*
X115278552Y-117749999D01*
X115278553Y-117750000D01*
X115980000Y-117750000D01*
X115980000Y-117360214D01*
X115977106Y-117306237D01*
X115977106Y-117306235D01*
X115941558Y-117166960D01*
X115918136Y-117110415D01*
X115918135Y-117110415D01*
X115278552Y-117749999D01*
X115108011Y-117749999D01*
X115075099Y-117692993D01*
X114982007Y-117599901D01*
X114867993Y-117534075D01*
X114804409Y-117517037D01*
X115564583Y-116756863D01*
X115564583Y-116756862D01*
X115508052Y-116733447D01*
X115508024Y-116733436D01*
X115479834Y-116723491D01*
X115469998Y-116716398D01*
X115458237Y-116713446D01*
X115442186Y-116696342D01*
X115423163Y-116682624D01*
X115418723Y-116671339D01*
X115410425Y-116662497D01*
X115406169Y-116639431D01*
X115397582Y-116617605D01*
X115399948Y-116605711D01*
X115397748Y-116593787D01*
X115406637Y-116572083D01*
X115408524Y-116562600D01*
X123161700Y-116562600D01*
X123161700Y-118137400D01*
X123163622Y-118176800D01*
X123178700Y-118213201D01*
X123193778Y-118249603D01*
X123249496Y-118305321D01*
X123249497Y-118305321D01*
X123249498Y-118305322D01*
X123322300Y-118335478D01*
X123361700Y-118337400D01*
X123361715Y-118337400D01*
X124936485Y-118337400D01*
X124936500Y-118337400D01*
X124975900Y-118335478D01*
X125048702Y-118305323D01*
X125104423Y-118249602D01*
X125134578Y-118176800D01*
X125136500Y-118137400D01*
X125136500Y-117336146D01*
X125697019Y-117336146D01*
X125697019Y-117336153D01*
X125713221Y-117529101D01*
X125713222Y-117529107D01*
X125766596Y-117715245D01*
X125855108Y-117887471D01*
X125975387Y-118039225D01*
X126122851Y-118164726D01*
X126122854Y-118164728D01*
X126122857Y-118164730D01*
X126173428Y-118192993D01*
X126291882Y-118259195D01*
X126476044Y-118319033D01*
X126668321Y-118341960D01*
X126861390Y-118327105D01*
X127047896Y-118275031D01*
X127220736Y-118187724D01*
X127373325Y-118068507D01*
X127499853Y-117921923D01*
X127595500Y-117753555D01*
X127656622Y-117569816D01*
X127680891Y-117377703D01*
X127681278Y-117350000D01*
X127679920Y-117336146D01*
X128237019Y-117336146D01*
X128237019Y-117336153D01*
X128253221Y-117529101D01*
X128253222Y-117529107D01*
X128306596Y-117715245D01*
X128395108Y-117887471D01*
X128515387Y-118039225D01*
X128662851Y-118164726D01*
X128662854Y-118164728D01*
X128662857Y-118164730D01*
X128713428Y-118192993D01*
X128831882Y-118259195D01*
X129016044Y-118319033D01*
X129208321Y-118341960D01*
X129401390Y-118327105D01*
X129587896Y-118275031D01*
X129760736Y-118187724D01*
X129913325Y-118068507D01*
X130039853Y-117921923D01*
X130135500Y-117753555D01*
X130196622Y-117569816D01*
X130220891Y-117377703D01*
X130221135Y-117360219D01*
X131150000Y-117360219D01*
X131150000Y-117750000D01*
X131851447Y-117750000D01*
X131851447Y-117749999D01*
X131211862Y-117110415D01*
X131188449Y-117166940D01*
X131170455Y-117217946D01*
X131150000Y-117360219D01*
X130221135Y-117360219D01*
X130221278Y-117350000D01*
X130202382Y-117157285D01*
X130146414Y-116971910D01*
X130146413Y-116971908D01*
X130146413Y-116971907D01*
X130074433Y-116836534D01*
X130055506Y-116800937D01*
X129933120Y-116650877D01*
X129783919Y-116527447D01*
X129613584Y-116435348D01*
X129613583Y-116435347D01*
X129613580Y-116435346D01*
X129428609Y-116378087D01*
X129236029Y-116357846D01*
X129236027Y-116357846D01*
X129162670Y-116364522D01*
X129043182Y-116375396D01*
X128857426Y-116430067D01*
X128857422Y-116430069D01*
X128685831Y-116519773D01*
X128685819Y-116519781D01*
X128534910Y-116641115D01*
X128534909Y-116641116D01*
X128410444Y-116789446D01*
X128410442Y-116789449D01*
X128317154Y-116959139D01*
X128258602Y-117143718D01*
X128258602Y-117143719D01*
X128237019Y-117336146D01*
X127679920Y-117336146D01*
X127662382Y-117157285D01*
X127606414Y-116971910D01*
X127606413Y-116971908D01*
X127606413Y-116971907D01*
X127534433Y-116836534D01*
X127515506Y-116800937D01*
X127393120Y-116650877D01*
X127243919Y-116527447D01*
X127073584Y-116435348D01*
X127073583Y-116435347D01*
X127073580Y-116435346D01*
X126888609Y-116378087D01*
X126696029Y-116357846D01*
X126696027Y-116357846D01*
X126622670Y-116364522D01*
X126503182Y-116375396D01*
X126317426Y-116430067D01*
X126317422Y-116430069D01*
X126145831Y-116519773D01*
X126145819Y-116519781D01*
X125994910Y-116641115D01*
X125994909Y-116641116D01*
X125870444Y-116789446D01*
X125870442Y-116789449D01*
X125777154Y-116959139D01*
X125718602Y-117143718D01*
X125718602Y-117143719D01*
X125697019Y-117336146D01*
X125136500Y-117336146D01*
X125136500Y-116562600D01*
X125134578Y-116523200D01*
X125104423Y-116450398D01*
X125048702Y-116394677D01*
X125048698Y-116394675D01*
X125048696Y-116394674D01*
X124975901Y-116364522D01*
X124975903Y-116364522D01*
X124967457Y-116364110D01*
X124936500Y-116362600D01*
X124149100Y-116362600D01*
X123361700Y-116362600D01*
X123322300Y-116364522D01*
X123249496Y-116394678D01*
X123249495Y-116394680D01*
X123193780Y-116450395D01*
X123193778Y-116450396D01*
X123165038Y-116519781D01*
X123163622Y-116523200D01*
X123161700Y-116562600D01*
X115408524Y-116562600D01*
X115411214Y-116549078D01*
X115420291Y-116538748D01*
X115424231Y-116529130D01*
X115449968Y-116504979D01*
X115514139Y-116460047D01*
X115675044Y-116299142D01*
X115675045Y-116299141D01*
X115675047Y-116299139D01*
X115733821Y-116215199D01*
X115787287Y-116141610D01*
X115792465Y-116131446D01*
X115805568Y-116112734D01*
X115844067Y-116030172D01*
X115880220Y-115959219D01*
X115887266Y-115937532D01*
X115901739Y-115906496D01*
X115901742Y-115906488D01*
X115921534Y-115832617D01*
X115922377Y-115829471D01*
X115943477Y-115764534D01*
X115948825Y-115730766D01*
X115960635Y-115686692D01*
X115966215Y-115622892D01*
X115967270Y-115614306D01*
X115975500Y-115562350D01*
X115975500Y-115357649D01*
X115967270Y-115305691D01*
X115967270Y-115305690D01*
X115966592Y-115301414D01*
X115960635Y-115233308D01*
X115948825Y-115189233D01*
X115943477Y-115155466D01*
X115923378Y-115093609D01*
X115921535Y-115087386D01*
X115901742Y-115013513D01*
X115901740Y-115013510D01*
X115901739Y-115013504D01*
X115887266Y-114982467D01*
X115880220Y-114960781D01*
X115844067Y-114889827D01*
X115805568Y-114807266D01*
X115797436Y-114795652D01*
X115797436Y-114795651D01*
X115792462Y-114788548D01*
X115787287Y-114778390D01*
X115733821Y-114704800D01*
X115733215Y-114703935D01*
X115733205Y-114703920D01*
X115675045Y-114620858D01*
X115514140Y-114459953D01*
X115431078Y-114401793D01*
X115430180Y-114401164D01*
X115356610Y-114347713D01*
X115346448Y-114342535D01*
X115339346Y-114337562D01*
X115327736Y-114329433D01*
X115327727Y-114329429D01*
X115269723Y-114302380D01*
X115259066Y-114292996D01*
X115245866Y-114287773D01*
X115233368Y-114270369D01*
X115217285Y-114256208D01*
X115213393Y-114242552D01*
X115205112Y-114231021D01*
X115204007Y-114209621D01*
X115198134Y-114189014D01*
X115202241Y-114175423D01*
X115201510Y-114161244D01*
X115212149Y-114142644D01*
X115218350Y-114122133D01*
X115229830Y-114111737D01*
X115236204Y-114100597D01*
X115260623Y-114083856D01*
X115264872Y-114080010D01*
X115267252Y-114078770D01*
X115327734Y-114050568D01*
X115346002Y-114037775D01*
X115353207Y-114034025D01*
X115353416Y-114033983D01*
X115354180Y-114033524D01*
X115356610Y-114032287D01*
X115429358Y-113979432D01*
X115431047Y-113978227D01*
X115514139Y-113920047D01*
X115675047Y-113759139D01*
X115733821Y-113675199D01*
X115787287Y-113601610D01*
X115792465Y-113591446D01*
X115805568Y-113572734D01*
X115844067Y-113490172D01*
X115880220Y-113419219D01*
X115887266Y-113397532D01*
X115901739Y-113366496D01*
X115901742Y-113366488D01*
X115921534Y-113292617D01*
X115922377Y-113289471D01*
X115943477Y-113224534D01*
X115948825Y-113190766D01*
X115960635Y-113146692D01*
X115966215Y-113082892D01*
X115967270Y-113074306D01*
X115975438Y-113022745D01*
X115975500Y-113022352D01*
X115975500Y-112817648D01*
X115966593Y-112761417D01*
X115960635Y-112693308D01*
X115948825Y-112649233D01*
X115943477Y-112615466D01*
X115923378Y-112553609D01*
X115921535Y-112547386D01*
X115901742Y-112473513D01*
X115901740Y-112473510D01*
X115901739Y-112473504D01*
X115887266Y-112442467D01*
X115880220Y-112420781D01*
X115844067Y-112349827D01*
X115805568Y-112267266D01*
X115797436Y-112255652D01*
X115797436Y-112255651D01*
X115792462Y-112248548D01*
X115787287Y-112238390D01*
X115733821Y-112164800D01*
X115733215Y-112163935D01*
X115733205Y-112163920D01*
X115675045Y-112080858D01*
X115514140Y-111919953D01*
X115431078Y-111861793D01*
X115430180Y-111861164D01*
X115356610Y-111807713D01*
X115346448Y-111802535D01*
X115339346Y-111797562D01*
X115327736Y-111789433D01*
X115327727Y-111789429D01*
X115269723Y-111762380D01*
X115259066Y-111752996D01*
X115245866Y-111747773D01*
X115233368Y-111730369D01*
X115217285Y-111716208D01*
X115213393Y-111702552D01*
X115205112Y-111691021D01*
X115204007Y-111669621D01*
X115198134Y-111649014D01*
X115202241Y-111635423D01*
X115201510Y-111621244D01*
X115212149Y-111602644D01*
X115218350Y-111582133D01*
X115229830Y-111571737D01*
X115236204Y-111560597D01*
X115260623Y-111543856D01*
X115264872Y-111540010D01*
X115267252Y-111538770D01*
X115327734Y-111510568D01*
X115346002Y-111497775D01*
X115353207Y-111494025D01*
X115353416Y-111493983D01*
X115354180Y-111493524D01*
X115356610Y-111492287D01*
X115429358Y-111439432D01*
X115431047Y-111438227D01*
X115514139Y-111380047D01*
X115675047Y-111219139D01*
X115733821Y-111135199D01*
X115787287Y-111061610D01*
X115792465Y-111051446D01*
X115805568Y-111032734D01*
X115844067Y-110950172D01*
X115880220Y-110879219D01*
X115887266Y-110857532D01*
X115901739Y-110826496D01*
X115901742Y-110826488D01*
X115921534Y-110752617D01*
X115922377Y-110749471D01*
X115943477Y-110684534D01*
X115948825Y-110650766D01*
X115960635Y-110606692D01*
X115966215Y-110542892D01*
X115967270Y-110534306D01*
X115975500Y-110482350D01*
X115975500Y-110277649D01*
X115975086Y-110275038D01*
X115966593Y-110221417D01*
X115960635Y-110153308D01*
X115948825Y-110109233D01*
X115943477Y-110075466D01*
X115923378Y-110013609D01*
X115921535Y-110007386D01*
X115901742Y-109933513D01*
X115901740Y-109933510D01*
X115901739Y-109933504D01*
X115887266Y-109902467D01*
X115880220Y-109880781D01*
X115844067Y-109809827D01*
X115805568Y-109727266D01*
X115797436Y-109715652D01*
X115797436Y-109715651D01*
X115792462Y-109708548D01*
X115787287Y-109698390D01*
X115733821Y-109624800D01*
X115733215Y-109623935D01*
X115733205Y-109623920D01*
X115675045Y-109540858D01*
X115514140Y-109379953D01*
X115431078Y-109321793D01*
X115430180Y-109321164D01*
X115356610Y-109267713D01*
X115346448Y-109262535D01*
X115339346Y-109257562D01*
X115327736Y-109249433D01*
X115327727Y-109249429D01*
X115269723Y-109222380D01*
X115259066Y-109212996D01*
X115245866Y-109207773D01*
X115233368Y-109190369D01*
X115217285Y-109176208D01*
X115213393Y-109162552D01*
X115205112Y-109151021D01*
X115204007Y-109129621D01*
X115198134Y-109109014D01*
X115202241Y-109095423D01*
X115201510Y-109081244D01*
X115212149Y-109062644D01*
X115218350Y-109042133D01*
X115229830Y-109031737D01*
X115236204Y-109020597D01*
X115260623Y-109003856D01*
X115264872Y-109000010D01*
X115267252Y-108998770D01*
X115327734Y-108970568D01*
X115346002Y-108957775D01*
X115353207Y-108954025D01*
X115353416Y-108953983D01*
X115354180Y-108953524D01*
X115356610Y-108952287D01*
X115429358Y-108899432D01*
X115431047Y-108898227D01*
X115514139Y-108840047D01*
X115675047Y-108679139D01*
X115733821Y-108595199D01*
X115787287Y-108521610D01*
X115792465Y-108511446D01*
X115805568Y-108492734D01*
X115844067Y-108410172D01*
X115880220Y-108339219D01*
X115887266Y-108317532D01*
X115901739Y-108286496D01*
X115901742Y-108286488D01*
X115921534Y-108212617D01*
X115922377Y-108209471D01*
X115943477Y-108144534D01*
X115948825Y-108110766D01*
X115960635Y-108066692D01*
X115966215Y-108002892D01*
X115967270Y-107994306D01*
X115975500Y-107942350D01*
X115975500Y-107737649D01*
X115971120Y-107710000D01*
X115966593Y-107681417D01*
X115960635Y-107613308D01*
X115948825Y-107569233D01*
X115943477Y-107535466D01*
X115923378Y-107473609D01*
X115921535Y-107467386D01*
X115901742Y-107393513D01*
X115901740Y-107393510D01*
X115901739Y-107393504D01*
X115887266Y-107362467D01*
X115880220Y-107340781D01*
X115844067Y-107269827D01*
X115805568Y-107187266D01*
X115797436Y-107175652D01*
X115797436Y-107175651D01*
X115792462Y-107168548D01*
X115787287Y-107158390D01*
X115733821Y-107084800D01*
X115733215Y-107083935D01*
X115733205Y-107083920D01*
X115675045Y-107000858D01*
X115514143Y-106839956D01*
X115447620Y-106793376D01*
X115403996Y-106738799D01*
X115396803Y-106669300D01*
X115428325Y-106606946D01*
X115488082Y-106571652D01*
X115508025Y-106566562D01*
X115508035Y-106566559D01*
X115564582Y-106543135D01*
X115221446Y-106199999D01*
X123615000Y-106199999D01*
X123615000Y-107100000D01*
X123617138Y-107165541D01*
X123617138Y-107165544D01*
X123617139Y-107165545D01*
X123651068Y-107292167D01*
X123716612Y-107405694D01*
X123809306Y-107498388D01*
X123922833Y-107563932D01*
X124049455Y-107597861D01*
X124115000Y-107600000D01*
X125015000Y-107600000D01*
X125080545Y-107597861D01*
X125207167Y-107563933D01*
X125320694Y-107498388D01*
X125413388Y-107405694D01*
X125478933Y-107292167D01*
X125512861Y-107165545D01*
X125515000Y-107100000D01*
X125515000Y-106200000D01*
X125512861Y-106134455D01*
X125478933Y-106007833D01*
X125413388Y-105894306D01*
X125320694Y-105801612D01*
X125207167Y-105736067D01*
X125080545Y-105702139D01*
X125015000Y-105700000D01*
X124565000Y-105700000D01*
X124115000Y-105700000D01*
X124049458Y-105702138D01*
X123922832Y-105736068D01*
X123809307Y-105801611D01*
X123809304Y-105801613D01*
X123716613Y-105894304D01*
X123716611Y-105894307D01*
X123651068Y-106007832D01*
X123617138Y-106134458D01*
X123615000Y-106199999D01*
X115221446Y-106199999D01*
X114804409Y-105782962D01*
X114867993Y-105765925D01*
X114982007Y-105700099D01*
X115075099Y-105607007D01*
X115108012Y-105550000D01*
X115278552Y-105550000D01*
X115918135Y-106189582D01*
X115918136Y-106189582D01*
X115934317Y-106150522D01*
X115934317Y-106150521D01*
X115941553Y-106133051D01*
X115959544Y-106082053D01*
X115979999Y-105939780D01*
X115980000Y-105939779D01*
X115980000Y-105550000D01*
X115278552Y-105550000D01*
X115108012Y-105550000D01*
X115140925Y-105492993D01*
X115175000Y-105365826D01*
X115175000Y-105234174D01*
X115140925Y-105107007D01*
X115108011Y-105049999D01*
X115278552Y-105049999D01*
X115278553Y-105050000D01*
X115980000Y-105050000D01*
X115980000Y-104660214D01*
X115977106Y-104606237D01*
X115977106Y-104606235D01*
X115941558Y-104466960D01*
X115918136Y-104410415D01*
X115918135Y-104410415D01*
X115278552Y-105049999D01*
X115108011Y-105049999D01*
X115075099Y-104992993D01*
X114982007Y-104899901D01*
X114867993Y-104834075D01*
X114804409Y-104817037D01*
X115564583Y-104056863D01*
X115564583Y-104056862D01*
X115508052Y-104033447D01*
X115508024Y-104033436D01*
X115479834Y-104023491D01*
X115423163Y-103982624D01*
X115397582Y-103917605D01*
X115411214Y-103849078D01*
X115449965Y-103804980D01*
X115514139Y-103760047D01*
X115675047Y-103599139D01*
X115733821Y-103515199D01*
X115787287Y-103441610D01*
X115792465Y-103431446D01*
X115805568Y-103412734D01*
X115844067Y-103330172D01*
X115880220Y-103259219D01*
X115887266Y-103237532D01*
X115901739Y-103206496D01*
X115905513Y-103192407D01*
X115941877Y-103132748D01*
X116004723Y-103102217D01*
X116025289Y-103100500D01*
X116089216Y-103100500D01*
X116156255Y-103120185D01*
X116176897Y-103136819D01*
X116224962Y-103184884D01*
X116224964Y-103184885D01*
X116224968Y-103184888D01*
X116361891Y-103263940D01*
X116361894Y-103263941D01*
X116397326Y-103273434D01*
X116397331Y-103273437D01*
X116397332Y-103273436D01*
X116514619Y-103304865D01*
X116680330Y-103304865D01*
X116680346Y-103304864D01*
X121808453Y-103304864D01*
X121966568Y-103304865D01*
X122078372Y-103274906D01*
X122078373Y-103274906D01*
X122078373Y-103274905D01*
X122119296Y-103263941D01*
X122256228Y-103184884D01*
X122304293Y-103136819D01*
X122365616Y-103103334D01*
X122391974Y-103100500D01*
X130630499Y-103100500D01*
X130697538Y-103120185D01*
X130743293Y-103172989D01*
X130754499Y-103224500D01*
X130754499Y-103294689D01*
X130754498Y-103294689D01*
X130795424Y-103447424D01*
X130795425Y-103447425D01*
X130820747Y-103491283D01*
X130820748Y-103491285D01*
X130874475Y-103584344D01*
X130874481Y-103584352D01*
X130993349Y-103703220D01*
X130993355Y-103703225D01*
X131336019Y-104045890D01*
X131369504Y-104107213D01*
X131364520Y-104176905D01*
X131336024Y-104221247D01*
X131328020Y-104229250D01*
X131291843Y-104269524D01*
X131291837Y-104269532D01*
X131218426Y-104393263D01*
X131187978Y-104466774D01*
X131187970Y-104466795D01*
X131169976Y-104517800D01*
X131149500Y-104660219D01*
X131149500Y-105939784D01*
X131152395Y-105993814D01*
X131152396Y-105993818D01*
X131187976Y-106133221D01*
X131187980Y-106133233D01*
X131218419Y-106206719D01*
X131218431Y-106206747D01*
X131241779Y-106255548D01*
X131241781Y-106255551D01*
X131328006Y-106370733D01*
X131328010Y-106370737D01*
X131328015Y-106370743D01*
X131384252Y-106426980D01*
X131384261Y-106426988D01*
X131384267Y-106426994D01*
X131386790Y-106429260D01*
X131424524Y-106463156D01*
X131424532Y-106463162D01*
X131548263Y-106536573D01*
X131548262Y-106536573D01*
X131555329Y-106539500D01*
X131621774Y-106567022D01*
X131634898Y-106571652D01*
X131649660Y-106576860D01*
X131706332Y-106617726D01*
X131731913Y-106682745D01*
X131718281Y-106751272D01*
X131679531Y-106795370D01*
X131615858Y-106839955D01*
X131454954Y-107000859D01*
X131396781Y-107083934D01*
X131396782Y-107083935D01*
X131396132Y-107084863D01*
X131342713Y-107158390D01*
X131337535Y-107168550D01*
X131332560Y-107175656D01*
X131332558Y-107175656D01*
X131324433Y-107187262D01*
X131286838Y-107267882D01*
X131285920Y-107269849D01*
X131249780Y-107340781D01*
X131242735Y-107362458D01*
X131239532Y-107369329D01*
X131239529Y-107369338D01*
X131228261Y-107393503D01*
X131228261Y-107393504D01*
X131208459Y-107467404D01*
X131208458Y-107467403D01*
X131207614Y-107470551D01*
X131186523Y-107535466D01*
X131181175Y-107569224D01*
X131179492Y-107575507D01*
X131179492Y-107575511D01*
X131169366Y-107613304D01*
X131169364Y-107613313D01*
X131163783Y-107677106D01*
X131162728Y-107685697D01*
X131154500Y-107737643D01*
X131154500Y-107737648D01*
X131154500Y-107942352D01*
X131163406Y-107998582D01*
X131169365Y-108066692D01*
X131181171Y-108110756D01*
X131182188Y-108117175D01*
X131182190Y-108117181D01*
X131186521Y-108144525D01*
X131186522Y-108144530D01*
X131206617Y-108206378D01*
X131208460Y-108212600D01*
X131228260Y-108286494D01*
X131239529Y-108310662D01*
X131242733Y-108317532D01*
X131249780Y-108339219D01*
X131285930Y-108410169D01*
X131286844Y-108412128D01*
X131324432Y-108492734D01*
X131332562Y-108504346D01*
X131337535Y-108511448D01*
X131342713Y-108521610D01*
X131396173Y-108595192D01*
X131396780Y-108596059D01*
X131454954Y-108679141D01*
X131615858Y-108840045D01*
X131615861Y-108840047D01*
X131699800Y-108898821D01*
X131773390Y-108952287D01*
X131783547Y-108957462D01*
X131790648Y-108962434D01*
X131790652Y-108962436D01*
X131802266Y-108970568D01*
X131802270Y-108970570D01*
X131860272Y-108997617D01*
X131870927Y-109006999D01*
X131884131Y-109012224D01*
X131896629Y-109029629D01*
X131912712Y-109043789D01*
X131916604Y-109057444D01*
X131924886Y-109068977D01*
X131925990Y-109090375D01*
X131931864Y-109110982D01*
X131927755Y-109124573D01*
X131928488Y-109138754D01*
X131917848Y-109157352D01*
X131911649Y-109177864D01*
X131900167Y-109188259D01*
X131893794Y-109199401D01*
X131869369Y-109216145D01*
X131865126Y-109219988D01*
X131862711Y-109221244D01*
X131802266Y-109249432D01*
X131784002Y-109262219D01*
X131776792Y-109265973D01*
X131776591Y-109266012D01*
X131775847Y-109266460D01*
X131773397Y-109267708D01*
X131773394Y-109267710D01*
X131700696Y-109320526D01*
X131698939Y-109321779D01*
X131615859Y-109379954D01*
X131454954Y-109540859D01*
X131396781Y-109623934D01*
X131396782Y-109623935D01*
X131396132Y-109624863D01*
X131342713Y-109698390D01*
X131337535Y-109708550D01*
X131332560Y-109715656D01*
X131332558Y-109715656D01*
X131324433Y-109727262D01*
X131286838Y-109807882D01*
X131285920Y-109809849D01*
X131249780Y-109880781D01*
X131242735Y-109902458D01*
X131239532Y-109909329D01*
X131239529Y-109909338D01*
X131228261Y-109933503D01*
X131228261Y-109933504D01*
X131208459Y-110007404D01*
X131208458Y-110007403D01*
X131207614Y-110010551D01*
X131186523Y-110075466D01*
X131181175Y-110109224D01*
X131179492Y-110115507D01*
X131179492Y-110115511D01*
X131169366Y-110153304D01*
X131169364Y-110153313D01*
X131163783Y-110217106D01*
X131162728Y-110225697D01*
X131154500Y-110277643D01*
X131154500Y-110277648D01*
X131154500Y-110482352D01*
X131163406Y-110538582D01*
X131169365Y-110606692D01*
X131181171Y-110650756D01*
X131182188Y-110657175D01*
X131182190Y-110657181D01*
X131186521Y-110684525D01*
X131186522Y-110684530D01*
X131206617Y-110746378D01*
X131208460Y-110752600D01*
X131228260Y-110826494D01*
X131239529Y-110850662D01*
X131242733Y-110857532D01*
X131249780Y-110879219D01*
X131285930Y-110950169D01*
X131286844Y-110952128D01*
X131324432Y-111032734D01*
X131332562Y-111044346D01*
X131337535Y-111051448D01*
X131342713Y-111061610D01*
X131396164Y-111135180D01*
X131396793Y-111136078D01*
X131454953Y-111219140D01*
X131615858Y-111380045D01*
X131615861Y-111380047D01*
X131699800Y-111438821D01*
X131773390Y-111492287D01*
X131783547Y-111497462D01*
X131790648Y-111502434D01*
X131790652Y-111502436D01*
X131802266Y-111510568D01*
X131802270Y-111510570D01*
X131860272Y-111537617D01*
X131870927Y-111546999D01*
X131884131Y-111552224D01*
X131896629Y-111569629D01*
X131912712Y-111583789D01*
X131916604Y-111597444D01*
X131924886Y-111608977D01*
X131925990Y-111630375D01*
X131931864Y-111650982D01*
X131927755Y-111664573D01*
X131928488Y-111678754D01*
X131917848Y-111697352D01*
X131911649Y-111717864D01*
X131900167Y-111728259D01*
X131893794Y-111739401D01*
X131869369Y-111756145D01*
X131865126Y-111759988D01*
X131862711Y-111761244D01*
X131802266Y-111789432D01*
X131784002Y-111802219D01*
X131776792Y-111805973D01*
X131776591Y-111806012D01*
X131775847Y-111806460D01*
X131773397Y-111807708D01*
X131773394Y-111807710D01*
X131700696Y-111860526D01*
X131698939Y-111861779D01*
X131615859Y-111919954D01*
X131454954Y-112080859D01*
X131396781Y-112163934D01*
X131396782Y-112163935D01*
X131396132Y-112164863D01*
X131342713Y-112238390D01*
X131337535Y-112248550D01*
X131332560Y-112255656D01*
X131332558Y-112255656D01*
X131324433Y-112267262D01*
X131286838Y-112347882D01*
X131285920Y-112349849D01*
X131249780Y-112420781D01*
X131242735Y-112442458D01*
X131239532Y-112449329D01*
X131239529Y-112449338D01*
X131228261Y-112473503D01*
X131228261Y-112473504D01*
X131208459Y-112547404D01*
X131208458Y-112547403D01*
X131207614Y-112550551D01*
X131186523Y-112615466D01*
X131181175Y-112649224D01*
X131179492Y-112655507D01*
X131179492Y-112655511D01*
X131169366Y-112693304D01*
X131169364Y-112693313D01*
X131163783Y-112757106D01*
X131162728Y-112765697D01*
X131154500Y-112817643D01*
X131154500Y-112817648D01*
X131154500Y-113022352D01*
X131163406Y-113078582D01*
X131169365Y-113146692D01*
X131181171Y-113190756D01*
X131182188Y-113197175D01*
X131182190Y-113197181D01*
X131186521Y-113224525D01*
X131186522Y-113224530D01*
X131186523Y-113224534D01*
X131194960Y-113250500D01*
X131206617Y-113286378D01*
X131208460Y-113292600D01*
X131228260Y-113366494D01*
X131239529Y-113390662D01*
X131242733Y-113397532D01*
X131249780Y-113419219D01*
X131285930Y-113490169D01*
X131286844Y-113492128D01*
X131324432Y-113572734D01*
X131332562Y-113584346D01*
X131337535Y-113591448D01*
X131342713Y-113601610D01*
X131396164Y-113675180D01*
X131396793Y-113676078D01*
X131454953Y-113759140D01*
X131615858Y-113920045D01*
X131615861Y-113920047D01*
X131699800Y-113978821D01*
X131773390Y-114032287D01*
X131783547Y-114037462D01*
X131790648Y-114042434D01*
X131790652Y-114042436D01*
X131802266Y-114050568D01*
X131802270Y-114050570D01*
X131860272Y-114077617D01*
X131870927Y-114086999D01*
X131884131Y-114092224D01*
X131896629Y-114109629D01*
X131912712Y-114123789D01*
X131916604Y-114137444D01*
X131924886Y-114148977D01*
X131925990Y-114170375D01*
X131931864Y-114190982D01*
X131927755Y-114204573D01*
X131928488Y-114218754D01*
X131917848Y-114237352D01*
X131911649Y-114257864D01*
X131900167Y-114268259D01*
X131893794Y-114279401D01*
X131869369Y-114296145D01*
X131865126Y-114299988D01*
X131862711Y-114301244D01*
X131802266Y-114329432D01*
X131784002Y-114342219D01*
X131776792Y-114345973D01*
X131776591Y-114346012D01*
X131775847Y-114346460D01*
X131773397Y-114347708D01*
X131773394Y-114347710D01*
X131700696Y-114400526D01*
X131698939Y-114401779D01*
X131615859Y-114459954D01*
X131454954Y-114620859D01*
X131396781Y-114703934D01*
X131396782Y-114703935D01*
X131396132Y-114704863D01*
X131342713Y-114778390D01*
X131337535Y-114788550D01*
X131332560Y-114795656D01*
X131332558Y-114795656D01*
X131324433Y-114807262D01*
X131286838Y-114887882D01*
X131285920Y-114889849D01*
X131249780Y-114960781D01*
X131242735Y-114982458D01*
X131239532Y-114989329D01*
X131239529Y-114989338D01*
X131228261Y-115013503D01*
X131228261Y-115013504D01*
X131208459Y-115087404D01*
X131208458Y-115087403D01*
X131207614Y-115090551D01*
X131186523Y-115155466D01*
X131181175Y-115189224D01*
X131179492Y-115195507D01*
X131179492Y-115195511D01*
X131169366Y-115233304D01*
X131169364Y-115233313D01*
X131163783Y-115297106D01*
X131162728Y-115305697D01*
X131154500Y-115357643D01*
X131154500Y-115357648D01*
X131154500Y-115562352D01*
X131163406Y-115618582D01*
X131169365Y-115686692D01*
X131181171Y-115730756D01*
X131182188Y-115737175D01*
X131182190Y-115737181D01*
X131186521Y-115764525D01*
X131186522Y-115764530D01*
X131206617Y-115826378D01*
X131208460Y-115832600D01*
X131228260Y-115906494D01*
X131239529Y-115930662D01*
X131242733Y-115937532D01*
X131249780Y-115959219D01*
X131285930Y-116030169D01*
X131286844Y-116032128D01*
X131324432Y-116112734D01*
X131332562Y-116124346D01*
X131337535Y-116131448D01*
X131342713Y-116141610D01*
X131396164Y-116215180D01*
X131396793Y-116216078D01*
X131454953Y-116299140D01*
X131615858Y-116460045D01*
X131682379Y-116506623D01*
X131726004Y-116561199D01*
X131733198Y-116630698D01*
X131701676Y-116693052D01*
X131641922Y-116728346D01*
X131621970Y-116733438D01*
X131621956Y-116733442D01*
X131565415Y-116756862D01*
X132325590Y-117517037D01*
X132262007Y-117534075D01*
X132147993Y-117599901D01*
X132054901Y-117692993D01*
X131989075Y-117807007D01*
X131955000Y-117934174D01*
X131955000Y-118065826D01*
X131989075Y-118192993D01*
X132054901Y-118307007D01*
X132147993Y-118400099D01*
X132262007Y-118465925D01*
X132325589Y-118482962D01*
X131565415Y-119243135D01*
X131565415Y-119243136D01*
X131621947Y-119266553D01*
X131650159Y-119276505D01*
X131706832Y-119317370D01*
X131732415Y-119382388D01*
X131718786Y-119450915D01*
X131680035Y-119495016D01*
X131615859Y-119539954D01*
X131454954Y-119700859D01*
X131396781Y-119783934D01*
X131396782Y-119783935D01*
X131396132Y-119784863D01*
X131342713Y-119858390D01*
X131337535Y-119868550D01*
X131332560Y-119875656D01*
X131332558Y-119875656D01*
X131324433Y-119887262D01*
X131286838Y-119967882D01*
X131285920Y-119969849D01*
X131249780Y-120040781D01*
X131242735Y-120062458D01*
X131239532Y-120069329D01*
X131239529Y-120069338D01*
X131228261Y-120093503D01*
X131228261Y-120093504D01*
X131208459Y-120167404D01*
X131208458Y-120167403D01*
X131207614Y-120170551D01*
X131186523Y-120235466D01*
X131181175Y-120269224D01*
X131179492Y-120275507D01*
X131179492Y-120275511D01*
X131169366Y-120313304D01*
X131169364Y-120313313D01*
X131163783Y-120377106D01*
X131162728Y-120385697D01*
X131154500Y-120437643D01*
X131154500Y-120437648D01*
X131154500Y-120642352D01*
X131163406Y-120698582D01*
X131169365Y-120766692D01*
X131181171Y-120810756D01*
X131182188Y-120817175D01*
X131182190Y-120817181D01*
X131186521Y-120844525D01*
X131186522Y-120844530D01*
X131206617Y-120906378D01*
X131208460Y-120912600D01*
X131228260Y-120986494D01*
X131239529Y-121010662D01*
X131242733Y-121017532D01*
X131249780Y-121039219D01*
X131285930Y-121110169D01*
X131286844Y-121112128D01*
X131324432Y-121192734D01*
X131332562Y-121204346D01*
X131337535Y-121211448D01*
X131342713Y-121221610D01*
X131396164Y-121295180D01*
X131396793Y-121296078D01*
X131454953Y-121379140D01*
X131615858Y-121540045D01*
X131615861Y-121540047D01*
X131699800Y-121598821D01*
X131773390Y-121652287D01*
X131783547Y-121657462D01*
X131790648Y-121662434D01*
X131790652Y-121662436D01*
X131802266Y-121670568D01*
X131802270Y-121670570D01*
X131860272Y-121697617D01*
X131870927Y-121706999D01*
X131884131Y-121712224D01*
X131896629Y-121729629D01*
X131912712Y-121743789D01*
X131916604Y-121757444D01*
X131924886Y-121768977D01*
X131925990Y-121790375D01*
X131931864Y-121810982D01*
X131927755Y-121824573D01*
X131928488Y-121838754D01*
X131917848Y-121857352D01*
X131911649Y-121877864D01*
X131900167Y-121888259D01*
X131893794Y-121899401D01*
X131869369Y-121916145D01*
X131865126Y-121919988D01*
X131862711Y-121921244D01*
X131802266Y-121949432D01*
X131784002Y-121962219D01*
X131776792Y-121965973D01*
X131776591Y-121966012D01*
X131775847Y-121966460D01*
X131773397Y-121967708D01*
X131773394Y-121967710D01*
X131700696Y-122020526D01*
X131698939Y-122021779D01*
X131615859Y-122079954D01*
X131454954Y-122240859D01*
X131396781Y-122323934D01*
X131396782Y-122323935D01*
X131396132Y-122324863D01*
X131342713Y-122398390D01*
X131337535Y-122408550D01*
X131332560Y-122415656D01*
X131332558Y-122415656D01*
X131324433Y-122427262D01*
X131286838Y-122507882D01*
X131285920Y-122509849D01*
X131249780Y-122580781D01*
X131242735Y-122602458D01*
X131239532Y-122609329D01*
X131239529Y-122609338D01*
X131228261Y-122633503D01*
X131228261Y-122633504D01*
X131208459Y-122707404D01*
X131208458Y-122707403D01*
X131207614Y-122710551D01*
X131186523Y-122775466D01*
X131181175Y-122809224D01*
X131179492Y-122815507D01*
X131179492Y-122815511D01*
X131169366Y-122853304D01*
X131169364Y-122853313D01*
X131163783Y-122917106D01*
X131162728Y-122925697D01*
X131154500Y-122977643D01*
X131154500Y-122977648D01*
X131154500Y-123182352D01*
X131163406Y-123238582D01*
X131169365Y-123306692D01*
X131181171Y-123350756D01*
X131182188Y-123357175D01*
X131182190Y-123357181D01*
X131186521Y-123384525D01*
X131186522Y-123384530D01*
X131206617Y-123446378D01*
X131208460Y-123452600D01*
X131228260Y-123526494D01*
X131239529Y-123550662D01*
X131242733Y-123557532D01*
X131249780Y-123579219D01*
X131285930Y-123650169D01*
X131286844Y-123652128D01*
X131324432Y-123732734D01*
X131332562Y-123744346D01*
X131337535Y-123751448D01*
X131342713Y-123761610D01*
X131396164Y-123835180D01*
X131396793Y-123836078D01*
X131454953Y-123919140D01*
X131615858Y-124080045D01*
X131615861Y-124080047D01*
X131699800Y-124138821D01*
X131773390Y-124192287D01*
X131783547Y-124197462D01*
X131790648Y-124202434D01*
X131790652Y-124202436D01*
X131802266Y-124210568D01*
X131802270Y-124210570D01*
X131860272Y-124237617D01*
X131870927Y-124246999D01*
X131884131Y-124252224D01*
X131896629Y-124269629D01*
X131912712Y-124283789D01*
X131916604Y-124297444D01*
X131924886Y-124308977D01*
X131925990Y-124330375D01*
X131931864Y-124350982D01*
X131927755Y-124364573D01*
X131928488Y-124378754D01*
X131917848Y-124397352D01*
X131911649Y-124417864D01*
X131900167Y-124428259D01*
X131893794Y-124439401D01*
X131869369Y-124456145D01*
X131865126Y-124459988D01*
X131862711Y-124461244D01*
X131802266Y-124489432D01*
X131784002Y-124502219D01*
X131776792Y-124505973D01*
X131776591Y-124506012D01*
X131775847Y-124506460D01*
X131773397Y-124507708D01*
X131773394Y-124507710D01*
X131700696Y-124560526D01*
X131698939Y-124561779D01*
X131615859Y-124619954D01*
X131454954Y-124780859D01*
X131396781Y-124863934D01*
X131396782Y-124863935D01*
X131396132Y-124864863D01*
X131342713Y-124938390D01*
X131337535Y-124948550D01*
X131332560Y-124955656D01*
X131332558Y-124955656D01*
X131324433Y-124967262D01*
X131286838Y-125047882D01*
X131285920Y-125049849D01*
X131249780Y-125120781D01*
X131242735Y-125142458D01*
X131239532Y-125149329D01*
X131239529Y-125149338D01*
X131228261Y-125173503D01*
X131228261Y-125173504D01*
X131208459Y-125247404D01*
X131208458Y-125247403D01*
X131207614Y-125250551D01*
X131186523Y-125315466D01*
X131181175Y-125349224D01*
X131179492Y-125355507D01*
X131179492Y-125355511D01*
X131169366Y-125393304D01*
X131169364Y-125393313D01*
X131163783Y-125457106D01*
X131162728Y-125465697D01*
X131154500Y-125517643D01*
X131154500Y-125517648D01*
X131154500Y-125722352D01*
X131163406Y-125778582D01*
X131169365Y-125846692D01*
X131181171Y-125890756D01*
X131182188Y-125897175D01*
X131182190Y-125897181D01*
X131186521Y-125924525D01*
X131186522Y-125924530D01*
X131206617Y-125986378D01*
X131208460Y-125992600D01*
X131228260Y-126066494D01*
X131239529Y-126090662D01*
X131242733Y-126097532D01*
X131249780Y-126119219D01*
X131285930Y-126190169D01*
X131286844Y-126192128D01*
X131324432Y-126272734D01*
X131332562Y-126284346D01*
X131337535Y-126291448D01*
X131342713Y-126301610D01*
X131396164Y-126375180D01*
X131396793Y-126376078D01*
X131454953Y-126459140D01*
X131615858Y-126620045D01*
X131615861Y-126620047D01*
X131699800Y-126678821D01*
X131773390Y-126732287D01*
X131783547Y-126737462D01*
X131790648Y-126742434D01*
X131790652Y-126742436D01*
X131802266Y-126750568D01*
X131802270Y-126750570D01*
X131860272Y-126777617D01*
X131870927Y-126786999D01*
X131884131Y-126792224D01*
X131896629Y-126809629D01*
X131912712Y-126823789D01*
X131916604Y-126837444D01*
X131924886Y-126848977D01*
X131925990Y-126870375D01*
X131931864Y-126890982D01*
X131927755Y-126904573D01*
X131928488Y-126918754D01*
X131917848Y-126937352D01*
X131911649Y-126957864D01*
X131900167Y-126968259D01*
X131893794Y-126979401D01*
X131869369Y-126996145D01*
X131865126Y-126999988D01*
X131862711Y-127001244D01*
X131802266Y-127029432D01*
X131784002Y-127042219D01*
X131776792Y-127045973D01*
X131776591Y-127046012D01*
X131775847Y-127046460D01*
X131773397Y-127047708D01*
X131773394Y-127047710D01*
X131700696Y-127100526D01*
X131698939Y-127101779D01*
X131615859Y-127159954D01*
X131454954Y-127320859D01*
X131396781Y-127403934D01*
X131396782Y-127403935D01*
X131396132Y-127404863D01*
X131342713Y-127478390D01*
X131337535Y-127488550D01*
X131332560Y-127495656D01*
X131332558Y-127495656D01*
X131324433Y-127507262D01*
X131286838Y-127587882D01*
X131285920Y-127589849D01*
X131249780Y-127660781D01*
X131242735Y-127682458D01*
X131239532Y-127689329D01*
X131239529Y-127689338D01*
X131228261Y-127713503D01*
X131228261Y-127713504D01*
X131208459Y-127787404D01*
X131208458Y-127787403D01*
X131207614Y-127790551D01*
X131186523Y-127855466D01*
X131181175Y-127889224D01*
X131179492Y-127895507D01*
X131179492Y-127895511D01*
X131169366Y-127933304D01*
X131169364Y-127933313D01*
X131163783Y-127997106D01*
X131162728Y-128005697D01*
X131154500Y-128057643D01*
X131154500Y-128057648D01*
X131154500Y-128262352D01*
X131163406Y-128318582D01*
X131169365Y-128386692D01*
X131181171Y-128430756D01*
X131182188Y-128437175D01*
X131182190Y-128437181D01*
X131186521Y-128464525D01*
X131186522Y-128464530D01*
X131206617Y-128526378D01*
X131208460Y-128532600D01*
X131228260Y-128606494D01*
X131239529Y-128630662D01*
X131242733Y-128637532D01*
X131249780Y-128659219D01*
X131285930Y-128730169D01*
X131286844Y-128732128D01*
X131324432Y-128812734D01*
X131332562Y-128824346D01*
X131337535Y-128831448D01*
X131342713Y-128841610D01*
X131396164Y-128915180D01*
X131396793Y-128916078D01*
X131454953Y-128999140D01*
X131615858Y-129160045D01*
X131682379Y-129206623D01*
X131726004Y-129261199D01*
X131733198Y-129330698D01*
X131701676Y-129393052D01*
X131641922Y-129428346D01*
X131621970Y-129433438D01*
X131621956Y-129433442D01*
X131565415Y-129456862D01*
X132325590Y-130217037D01*
X132262007Y-130234075D01*
X132147993Y-130299901D01*
X132054901Y-130392993D01*
X131989075Y-130507007D01*
X131955000Y-130634174D01*
X131955000Y-130765826D01*
X131989075Y-130892993D01*
X132054901Y-131007007D01*
X132147993Y-131100099D01*
X132262007Y-131165925D01*
X132325589Y-131182962D01*
X131565415Y-131943135D01*
X131565415Y-131943136D01*
X131621947Y-131966553D01*
X131650159Y-131976505D01*
X131706832Y-132017370D01*
X131732415Y-132082388D01*
X131718786Y-132150915D01*
X131680035Y-132195016D01*
X131615859Y-132239954D01*
X131454954Y-132400859D01*
X131396781Y-132483934D01*
X131396782Y-132483935D01*
X131396132Y-132484863D01*
X131342713Y-132558390D01*
X131337535Y-132568550D01*
X131332560Y-132575656D01*
X131332558Y-132575656D01*
X131324433Y-132587262D01*
X131286838Y-132667882D01*
X131285920Y-132669849D01*
X131249780Y-132740781D01*
X131242735Y-132762458D01*
X131239532Y-132769329D01*
X131239529Y-132769338D01*
X131228261Y-132793503D01*
X131228261Y-132793504D01*
X131208459Y-132867404D01*
X131208458Y-132867403D01*
X131207614Y-132870551D01*
X131186523Y-132935466D01*
X131181175Y-132969224D01*
X131179492Y-132975507D01*
X131179492Y-132975511D01*
X131169366Y-133013304D01*
X131169364Y-133013313D01*
X131163783Y-133077106D01*
X131162942Y-133083954D01*
X131162941Y-133084301D01*
X131162837Y-133085007D01*
X131154500Y-133137648D01*
X131154500Y-133342352D01*
X131163406Y-133398582D01*
X131169365Y-133466692D01*
X131181171Y-133510756D01*
X131182188Y-133517175D01*
X131182190Y-133517181D01*
X131186521Y-133544525D01*
X131186522Y-133544530D01*
X131206617Y-133606378D01*
X131208460Y-133612600D01*
X131228260Y-133686494D01*
X131239529Y-133710662D01*
X131242733Y-133717532D01*
X131249780Y-133739219D01*
X131285930Y-133810169D01*
X131286844Y-133812128D01*
X131324432Y-133892734D01*
X131332562Y-133904346D01*
X131337535Y-133911448D01*
X131342713Y-133921610D01*
X131396164Y-133995180D01*
X131396793Y-133996078D01*
X131454953Y-134079140D01*
X131615858Y-134240045D01*
X131615861Y-134240047D01*
X131699800Y-134298821D01*
X131773390Y-134352287D01*
X131783547Y-134357462D01*
X131790648Y-134362434D01*
X131790652Y-134362436D01*
X131802266Y-134370568D01*
X131802270Y-134370570D01*
X131860272Y-134397617D01*
X131870927Y-134406999D01*
X131884131Y-134412224D01*
X131896629Y-134429629D01*
X131912712Y-134443789D01*
X131916604Y-134457444D01*
X131924886Y-134468977D01*
X131925990Y-134490375D01*
X131931864Y-134510982D01*
X131927755Y-134524573D01*
X131928488Y-134538754D01*
X131917848Y-134557352D01*
X131911649Y-134577864D01*
X131900167Y-134588259D01*
X131893794Y-134599401D01*
X131869369Y-134616145D01*
X131865126Y-134619988D01*
X131862711Y-134621244D01*
X131802266Y-134649432D01*
X131784002Y-134662219D01*
X131776792Y-134665973D01*
X131776591Y-134666012D01*
X131775847Y-134666460D01*
X131773397Y-134667708D01*
X131773394Y-134667710D01*
X131700696Y-134720526D01*
X131698939Y-134721779D01*
X131615859Y-134779954D01*
X131454954Y-134940859D01*
X131396781Y-135023934D01*
X131396782Y-135023935D01*
X131396132Y-135024863D01*
X131342713Y-135098390D01*
X131337535Y-135108550D01*
X131332560Y-135115656D01*
X131332558Y-135115656D01*
X131324433Y-135127262D01*
X131286838Y-135207882D01*
X131285920Y-135209849D01*
X131249780Y-135280781D01*
X131242735Y-135302458D01*
X131239532Y-135309329D01*
X131239529Y-135309338D01*
X131228261Y-135333503D01*
X131228261Y-135333504D01*
X131208459Y-135407404D01*
X131208458Y-135407403D01*
X131207614Y-135410551D01*
X131186523Y-135475466D01*
X131181175Y-135509224D01*
X131179492Y-135515507D01*
X131179492Y-135515511D01*
X131169366Y-135553304D01*
X131169364Y-135553313D01*
X131163783Y-135617106D01*
X131162728Y-135625697D01*
X131154500Y-135677643D01*
X131154500Y-135677648D01*
X131154500Y-135882352D01*
X131163406Y-135938582D01*
X131169365Y-136006692D01*
X131181171Y-136050756D01*
X131182188Y-136057175D01*
X131182190Y-136057181D01*
X131186521Y-136084525D01*
X131186522Y-136084530D01*
X131206617Y-136146378D01*
X131208460Y-136152600D01*
X131228260Y-136226494D01*
X131239529Y-136250662D01*
X131242733Y-136257532D01*
X131249780Y-136279219D01*
X131285930Y-136350169D01*
X131286844Y-136352128D01*
X131324432Y-136432734D01*
X131332562Y-136444346D01*
X131337535Y-136451448D01*
X131342713Y-136461610D01*
X131396164Y-136535180D01*
X131396793Y-136536078D01*
X131454953Y-136619140D01*
X131615858Y-136780045D01*
X131698904Y-136838194D01*
X131699800Y-136838821D01*
X131773390Y-136892287D01*
X131783547Y-136897462D01*
X131790648Y-136902434D01*
X131790652Y-136902436D01*
X131802265Y-136910567D01*
X131802266Y-136910568D01*
X131884827Y-136949067D01*
X131955781Y-136985220D01*
X131977467Y-136992266D01*
X132008504Y-137006739D01*
X132008510Y-137006740D01*
X132008513Y-137006742D01*
X132082386Y-137026535D01*
X132085528Y-137027377D01*
X132150466Y-137048477D01*
X132184233Y-137053825D01*
X132228308Y-137065635D01*
X132292103Y-137071215D01*
X132300690Y-137072269D01*
X132352648Y-137080500D01*
X132352649Y-137080500D01*
X134111785Y-137080500D01*
X134111785Y-137080499D01*
X134281692Y-137065635D01*
X134501496Y-137006739D01*
X134707734Y-136910568D01*
X134894139Y-136780047D01*
X135055047Y-136619139D01*
X135185568Y-136432734D01*
X135281739Y-136226496D01*
X135340635Y-136006692D01*
X135355500Y-135836784D01*
X135355500Y-135723216D01*
X135340635Y-135553308D01*
X135295916Y-135386415D01*
X135281741Y-135333511D01*
X135281738Y-135333503D01*
X135185568Y-135127266D01*
X135055047Y-134940861D01*
X135055045Y-134940858D01*
X134894141Y-134779954D01*
X134707734Y-134649432D01*
X134707728Y-134649429D01*
X134649725Y-134622382D01*
X134597285Y-134576210D01*
X134578133Y-134509017D01*
X134598348Y-134442135D01*
X134649725Y-134397618D01*
X134707734Y-134370568D01*
X134894139Y-134240047D01*
X135055047Y-134079139D01*
X135185568Y-133892734D01*
X135281739Y-133686496D01*
X135340635Y-133466692D01*
X135355500Y-133296784D01*
X135355500Y-133183216D01*
X135340635Y-133013308D01*
X135295916Y-132846415D01*
X135281741Y-132793511D01*
X135281738Y-132793503D01*
X135185568Y-132587266D01*
X135055047Y-132400861D01*
X135055045Y-132400858D01*
X134894141Y-132239954D01*
X134707734Y-132109432D01*
X134707732Y-132109431D01*
X134655779Y-132085205D01*
X134603340Y-132039032D01*
X134584188Y-131971839D01*
X134604404Y-131904958D01*
X134649732Y-131863464D01*
X134714500Y-131828844D01*
X134714521Y-131828832D01*
X134845530Y-131741295D01*
X134845536Y-131741291D01*
X134922064Y-131678485D01*
X135033485Y-131567064D01*
X135096291Y-131490536D01*
X135096295Y-131490530D01*
X135183832Y-131359521D01*
X135183844Y-131359501D01*
X135230509Y-131272198D01*
X135290814Y-131126612D01*
X135319556Y-131031860D01*
X135319559Y-131031849D01*
X135335839Y-130950000D01*
X132888012Y-130950000D01*
X132920925Y-130892993D01*
X132955000Y-130765826D01*
X132955000Y-130634174D01*
X132920925Y-130507007D01*
X132888012Y-130450000D01*
X135335839Y-130450000D01*
X135335839Y-130449999D01*
X135319559Y-130368150D01*
X135319556Y-130368139D01*
X135290814Y-130273387D01*
X135230509Y-130127801D01*
X135183844Y-130040498D01*
X135183841Y-130040493D01*
X135141689Y-129977407D01*
X135141688Y-129977406D01*
X135098913Y-129913389D01*
X139239500Y-129913389D01*
X139239500Y-130086611D01*
X139266598Y-130257701D01*
X139320127Y-130422445D01*
X139398768Y-130576788D01*
X139500586Y-130716928D01*
X139623072Y-130839414D01*
X139763212Y-130941232D01*
X139917555Y-131019873D01*
X140082299Y-131073402D01*
X140253389Y-131100500D01*
X140253390Y-131100500D01*
X140426610Y-131100500D01*
X140426611Y-131100500D01*
X140597701Y-131073402D01*
X140762445Y-131019873D01*
X140916788Y-130941232D01*
X141056928Y-130839414D01*
X141179414Y-130716928D01*
X141281232Y-130576788D01*
X141359873Y-130422445D01*
X141413402Y-130257701D01*
X141440500Y-130086611D01*
X141440500Y-129913389D01*
X141430854Y-129852486D01*
X143169500Y-129852486D01*
X143169500Y-130147513D01*
X143198547Y-130368139D01*
X143208007Y-130439993D01*
X143282212Y-130716930D01*
X143284361Y-130724951D01*
X143284364Y-130724961D01*
X143397254Y-130997500D01*
X143397258Y-130997510D01*
X143544761Y-131252993D01*
X143724352Y-131487040D01*
X143724358Y-131487047D01*
X143932952Y-131695641D01*
X143932959Y-131695647D01*
X144167006Y-131875238D01*
X144422489Y-132022741D01*
X144422490Y-132022741D01*
X144422493Y-132022743D01*
X144695048Y-132135639D01*
X144980007Y-132211993D01*
X145272494Y-132250500D01*
X145272501Y-132250500D01*
X145567499Y-132250500D01*
X145567506Y-132250500D01*
X145859993Y-132211993D01*
X146144952Y-132135639D01*
X146417507Y-132022743D01*
X146672994Y-131875238D01*
X146907042Y-131695646D01*
X147115646Y-131487042D01*
X147295238Y-131252994D01*
X147442743Y-130997507D01*
X147555639Y-130724952D01*
X147631993Y-130439993D01*
X147670500Y-130147506D01*
X147670500Y-129913389D01*
X149399500Y-129913389D01*
X149399500Y-130086611D01*
X149426598Y-130257701D01*
X149480127Y-130422445D01*
X149558768Y-130576788D01*
X149660586Y-130716928D01*
X149783072Y-130839414D01*
X149923212Y-130941232D01*
X150077555Y-131019873D01*
X150242299Y-131073402D01*
X150413389Y-131100500D01*
X150413390Y-131100500D01*
X150586610Y-131100500D01*
X150586611Y-131100500D01*
X150757701Y-131073402D01*
X150922445Y-131019873D01*
X151076788Y-130941232D01*
X151216928Y-130839414D01*
X151339414Y-130716928D01*
X151441232Y-130576788D01*
X151519873Y-130422445D01*
X151573402Y-130257701D01*
X151600500Y-130086611D01*
X151600500Y-129913389D01*
X151573402Y-129742299D01*
X151519873Y-129577555D01*
X151441232Y-129423212D01*
X151339414Y-129283072D01*
X151216928Y-129160586D01*
X151076788Y-129058768D01*
X150959760Y-128999140D01*
X150922447Y-128980128D01*
X150922446Y-128980127D01*
X150922445Y-128980127D01*
X150757701Y-128926598D01*
X150757699Y-128926597D01*
X150757698Y-128926597D01*
X150626271Y-128905781D01*
X150586611Y-128899500D01*
X150413389Y-128899500D01*
X150373728Y-128905781D01*
X150242302Y-128926597D01*
X150077552Y-128980128D01*
X149923211Y-129058768D01*
X149867115Y-129099525D01*
X149783072Y-129160586D01*
X149783070Y-129160588D01*
X149783069Y-129160588D01*
X149660588Y-129283069D01*
X149660588Y-129283070D01*
X149660586Y-129283072D01*
X149637539Y-129314794D01*
X149558768Y-129423211D01*
X149480128Y-129577552D01*
X149426597Y-129742302D01*
X149400122Y-129909462D01*
X149399500Y-129913389D01*
X147670500Y-129913389D01*
X147670500Y-129852494D01*
X147631993Y-129560007D01*
X147555639Y-129275048D01*
X147442743Y-129002493D01*
X147440808Y-128999142D01*
X147295238Y-128747006D01*
X147115647Y-128512959D01*
X147115641Y-128512952D01*
X146907047Y-128304358D01*
X146907040Y-128304352D01*
X146672993Y-128124761D01*
X146417510Y-127977258D01*
X146417500Y-127977254D01*
X146144961Y-127864364D01*
X146144954Y-127864362D01*
X146144952Y-127864361D01*
X145859993Y-127788007D01*
X145811113Y-127781571D01*
X145567513Y-127749500D01*
X145567506Y-127749500D01*
X145272494Y-127749500D01*
X145272486Y-127749500D01*
X144994085Y-127786153D01*
X144980007Y-127788007D01*
X144805861Y-127834669D01*
X144695048Y-127864361D01*
X144695038Y-127864364D01*
X144422499Y-127977254D01*
X144422489Y-127977258D01*
X144167006Y-128124761D01*
X143932959Y-128304352D01*
X143932952Y-128304358D01*
X143724358Y-128512952D01*
X143724352Y-128512959D01*
X143544761Y-128747006D01*
X143397258Y-129002489D01*
X143397254Y-129002499D01*
X143284364Y-129275038D01*
X143284361Y-129275048D01*
X143225415Y-129495041D01*
X143208008Y-129560004D01*
X143208006Y-129560015D01*
X143169500Y-129852486D01*
X141430854Y-129852486D01*
X141413402Y-129742299D01*
X141359873Y-129577555D01*
X141281232Y-129423212D01*
X141179414Y-129283072D01*
X141126882Y-129230540D01*
X141093397Y-129169217D01*
X141098381Y-129099525D01*
X141140253Y-129043592D01*
X141205717Y-129019175D01*
X141233961Y-129020386D01*
X141484072Y-129060000D01*
X141735928Y-129060000D01*
X141984669Y-129020602D01*
X142224184Y-128942780D01*
X142448575Y-128828446D01*
X142448581Y-128828442D01*
X142550697Y-128754250D01*
X142550698Y-128754250D01*
X141934025Y-128137578D01*
X141965258Y-128124641D01*
X142088097Y-128042563D01*
X142192563Y-127938097D01*
X142274641Y-127815258D01*
X142287577Y-127784025D01*
X142904250Y-128400698D01*
X142904250Y-128400697D01*
X142978442Y-128298581D01*
X142978446Y-128298575D01*
X143092780Y-128074184D01*
X143170602Y-127834669D01*
X143210000Y-127585928D01*
X143210000Y-127334071D01*
X143170602Y-127085330D01*
X143092780Y-126845815D01*
X142978442Y-126621416D01*
X142904250Y-126519301D01*
X142904250Y-126519300D01*
X142287577Y-127135973D01*
X142274641Y-127104742D01*
X142192563Y-126981903D01*
X142088097Y-126877437D01*
X141965258Y-126795359D01*
X141934024Y-126782421D01*
X142550698Y-126165748D01*
X142448583Y-126091557D01*
X142224184Y-125977219D01*
X141984669Y-125899397D01*
X141735928Y-125860000D01*
X141484072Y-125860000D01*
X141235330Y-125899397D01*
X140995815Y-125977219D01*
X140771413Y-126091559D01*
X140669301Y-126165747D01*
X140669300Y-126165748D01*
X141285974Y-126782421D01*
X141254742Y-126795359D01*
X141131903Y-126877437D01*
X141027437Y-126981903D01*
X140945359Y-127104742D01*
X140932421Y-127135974D01*
X140315748Y-126519300D01*
X140315747Y-126519301D01*
X140241559Y-126621413D01*
X140127219Y-126845815D01*
X140049397Y-127085330D01*
X140010000Y-127334071D01*
X140010000Y-127585928D01*
X140049397Y-127834669D01*
X140127219Y-128074184D01*
X140241557Y-128298583D01*
X140315748Y-128400697D01*
X140315748Y-128400698D01*
X140932421Y-127784024D01*
X140945359Y-127815258D01*
X141027437Y-127938097D01*
X141131903Y-128042563D01*
X141254742Y-128124641D01*
X141285974Y-128137577D01*
X140669300Y-128754250D01*
X140671598Y-128783449D01*
X140657233Y-128851827D01*
X140608181Y-128901583D01*
X140540016Y-128916921D01*
X140528583Y-128915650D01*
X140426611Y-128899500D01*
X140253389Y-128899500D01*
X140213728Y-128905781D01*
X140082302Y-128926597D01*
X139917552Y-128980128D01*
X139763211Y-129058768D01*
X139707115Y-129099525D01*
X139623072Y-129160586D01*
X139623070Y-129160588D01*
X139623069Y-129160588D01*
X139500588Y-129283069D01*
X139500588Y-129283070D01*
X139500586Y-129283072D01*
X139477539Y-129314794D01*
X139398768Y-129423211D01*
X139320128Y-129577552D01*
X139266597Y-129742302D01*
X139240122Y-129909462D01*
X139239500Y-129913389D01*
X135098913Y-129913389D01*
X135096289Y-129909462D01*
X135033485Y-129832935D01*
X134922064Y-129721514D01*
X134845536Y-129658708D01*
X134845530Y-129658704D01*
X134714521Y-129571167D01*
X134714501Y-129571155D01*
X134649730Y-129536534D01*
X134599886Y-129487571D01*
X134584426Y-129419434D01*
X134608258Y-129353754D01*
X134655777Y-129314795D01*
X134707734Y-129290568D01*
X134894139Y-129160047D01*
X135055047Y-128999139D01*
X135185568Y-128812734D01*
X135281739Y-128606496D01*
X135340635Y-128386692D01*
X135355500Y-128216784D01*
X135355500Y-128103216D01*
X135340635Y-127933308D01*
X135291384Y-127749500D01*
X135281741Y-127713511D01*
X135281738Y-127713503D01*
X135185568Y-127507266D01*
X135055047Y-127320861D01*
X135055045Y-127320858D01*
X134894141Y-127159954D01*
X134707734Y-127029432D01*
X134707728Y-127029429D01*
X134649725Y-127002382D01*
X134597285Y-126956210D01*
X134578133Y-126889017D01*
X134598348Y-126822135D01*
X134649725Y-126777618D01*
X134707734Y-126750568D01*
X134894139Y-126620047D01*
X135055047Y-126459139D01*
X135185568Y-126272734D01*
X135281739Y-126066496D01*
X135340635Y-125846692D01*
X135355500Y-125676784D01*
X135355500Y-125563216D01*
X135340635Y-125393308D01*
X135295916Y-125226415D01*
X135281741Y-125173511D01*
X135281738Y-125173503D01*
X135185568Y-124967266D01*
X135055047Y-124780861D01*
X135055045Y-124780858D01*
X134894141Y-124619954D01*
X134707734Y-124489432D01*
X134707728Y-124489429D01*
X134649725Y-124462382D01*
X134597285Y-124416210D01*
X134578133Y-124349017D01*
X134598348Y-124282135D01*
X134649725Y-124237618D01*
X134707734Y-124210568D01*
X134894139Y-124080047D01*
X135055047Y-123919139D01*
X135185568Y-123732734D01*
X135281739Y-123526496D01*
X135340635Y-123306692D01*
X135355500Y-123136784D01*
X135355500Y-123023216D01*
X135340635Y-122853308D01*
X135295916Y-122686415D01*
X135281741Y-122633511D01*
X135281738Y-122633503D01*
X135185568Y-122427266D01*
X135055047Y-122240861D01*
X135055045Y-122240858D01*
X134894141Y-122079954D01*
X134707734Y-121949432D01*
X134707728Y-121949429D01*
X134649725Y-121922382D01*
X134597285Y-121876210D01*
X134578133Y-121809017D01*
X134598348Y-121742135D01*
X134649725Y-121697618D01*
X134707734Y-121670568D01*
X134894139Y-121540047D01*
X135055047Y-121379139D01*
X135185568Y-121192734D01*
X135281739Y-120986496D01*
X135340635Y-120766692D01*
X135355500Y-120596784D01*
X135355500Y-120483216D01*
X135340635Y-120313308D01*
X135295916Y-120146415D01*
X135281741Y-120093511D01*
X135281738Y-120093503D01*
X135185568Y-119887266D01*
X135055047Y-119700861D01*
X135055045Y-119700858D01*
X134894141Y-119539954D01*
X134707734Y-119409432D01*
X134707732Y-119409431D01*
X134655779Y-119385205D01*
X134603340Y-119339032D01*
X134584188Y-119271839D01*
X134604404Y-119204958D01*
X134649732Y-119163464D01*
X134714500Y-119128844D01*
X134714521Y-119128832D01*
X134845530Y-119041295D01*
X134845536Y-119041291D01*
X134922064Y-118978485D01*
X135033485Y-118867064D01*
X135096291Y-118790536D01*
X135096295Y-118790530D01*
X135183832Y-118659521D01*
X135183844Y-118659501D01*
X135230509Y-118572198D01*
X135290814Y-118426612D01*
X135319556Y-118331860D01*
X135319559Y-118331849D01*
X135335839Y-118250000D01*
X132888012Y-118250000D01*
X132920925Y-118192993D01*
X132955000Y-118065826D01*
X132955000Y-117934174D01*
X132920925Y-117807007D01*
X132888012Y-117750000D01*
X135335839Y-117750000D01*
X135335839Y-117749999D01*
X135319559Y-117668150D01*
X135319556Y-117668139D01*
X135290814Y-117573387D01*
X135230509Y-117427801D01*
X135183844Y-117340498D01*
X135183832Y-117340478D01*
X135096295Y-117209469D01*
X135096291Y-117209463D01*
X135033485Y-117132935D01*
X134922064Y-117021514D01*
X134845536Y-116958708D01*
X134845530Y-116958704D01*
X134714521Y-116871167D01*
X134714501Y-116871155D01*
X134649730Y-116836534D01*
X134599886Y-116787571D01*
X134584426Y-116719434D01*
X134608258Y-116653754D01*
X134655777Y-116614795D01*
X134707734Y-116590568D01*
X134894139Y-116460047D01*
X135055047Y-116299139D01*
X135185568Y-116112734D01*
X135281739Y-115906496D01*
X135340635Y-115686692D01*
X135355500Y-115516784D01*
X135355500Y-115403216D01*
X135340635Y-115233308D01*
X135295916Y-115066415D01*
X135281741Y-115013511D01*
X135281738Y-115013503D01*
X135185568Y-114807266D01*
X135055047Y-114620861D01*
X135055045Y-114620858D01*
X134894141Y-114459954D01*
X134707734Y-114329432D01*
X134707728Y-114329429D01*
X134649725Y-114302382D01*
X134597285Y-114256210D01*
X134578133Y-114189017D01*
X134598348Y-114122135D01*
X134649725Y-114077618D01*
X134707734Y-114050568D01*
X134894139Y-113920047D01*
X135055047Y-113759139D01*
X135185568Y-113572734D01*
X135281739Y-113366496D01*
X135340635Y-113146692D01*
X135355500Y-112976784D01*
X135355500Y-112863216D01*
X135340635Y-112693308D01*
X135285368Y-112487047D01*
X135281741Y-112473511D01*
X135281738Y-112473503D01*
X135185568Y-112267266D01*
X135055047Y-112080861D01*
X135055045Y-112080858D01*
X134894141Y-111919954D01*
X134707734Y-111789432D01*
X134707728Y-111789429D01*
X134649725Y-111762382D01*
X134597285Y-111716210D01*
X134578133Y-111649017D01*
X134598348Y-111582135D01*
X134649725Y-111537618D01*
X134707734Y-111510568D01*
X134894139Y-111380047D01*
X135055047Y-111219139D01*
X135185568Y-111032734D01*
X135281739Y-110826496D01*
X135340635Y-110606692D01*
X135355500Y-110436784D01*
X135355500Y-110323216D01*
X135340635Y-110153308D01*
X135294232Y-109980127D01*
X135281741Y-109933511D01*
X135281738Y-109933503D01*
X135185568Y-109727266D01*
X135055047Y-109540861D01*
X135055045Y-109540858D01*
X134894141Y-109379954D01*
X134707734Y-109249432D01*
X134707728Y-109249429D01*
X134649725Y-109222382D01*
X134597285Y-109176210D01*
X134578133Y-109109017D01*
X134598348Y-109042135D01*
X134649725Y-108997618D01*
X134707734Y-108970568D01*
X134894139Y-108840047D01*
X135055047Y-108679139D01*
X135185568Y-108492734D01*
X135281739Y-108286496D01*
X135340635Y-108066692D01*
X135355500Y-107896784D01*
X135355500Y-107783216D01*
X135340635Y-107613308D01*
X135284348Y-107403241D01*
X135281741Y-107393511D01*
X135281738Y-107393503D01*
X135185568Y-107187266D01*
X135055047Y-107000861D01*
X135055045Y-107000858D01*
X134894141Y-106839954D01*
X134707734Y-106709432D01*
X134707732Y-106709431D01*
X134656343Y-106685468D01*
X134603904Y-106639295D01*
X134584752Y-106572102D01*
X134604968Y-106505221D01*
X134650293Y-106463729D01*
X134714783Y-106429259D01*
X134845811Y-106341709D01*
X134922412Y-106278843D01*
X135033843Y-106167412D01*
X135096709Y-106090811D01*
X135184259Y-105959783D01*
X135230972Y-105872389D01*
X135245532Y-105837237D01*
X135289373Y-105782834D01*
X135355667Y-105760769D01*
X135423366Y-105778048D01*
X135447774Y-105797009D01*
X136863181Y-107212416D01*
X136896666Y-107273739D01*
X136899500Y-107300097D01*
X136899500Y-124913330D01*
X136899499Y-124913348D01*
X136899499Y-125079054D01*
X136899498Y-125079054D01*
X136899499Y-125079057D01*
X136940423Y-125231785D01*
X136949430Y-125247386D01*
X136969358Y-125281900D01*
X136969359Y-125281904D01*
X136969360Y-125281904D01*
X137019480Y-125368716D01*
X137131284Y-125480520D01*
X137200532Y-125520500D01*
X137268215Y-125559577D01*
X137420943Y-125600501D01*
X137420946Y-125600501D01*
X137579054Y-125600501D01*
X137579057Y-125600501D01*
X137731785Y-125559577D01*
X137770694Y-125537112D01*
X137832694Y-125520500D01*
X146393700Y-125520500D01*
X146460739Y-125540185D01*
X146504184Y-125588204D01*
X146572535Y-125722351D01*
X146591132Y-125758848D01*
X146739201Y-125962649D01*
X146739205Y-125962654D01*
X146917345Y-126140794D01*
X146917350Y-126140798D01*
X147095117Y-126269952D01*
X147121155Y-126288870D01*
X147264184Y-126361747D01*
X147345616Y-126403239D01*
X147345618Y-126403239D01*
X147345621Y-126403241D01*
X147585215Y-126481090D01*
X147834038Y-126520500D01*
X147834039Y-126520500D01*
X148085961Y-126520500D01*
X148085962Y-126520500D01*
X148334785Y-126481090D01*
X148574379Y-126403241D01*
X148798845Y-126288870D01*
X149002656Y-126140793D01*
X149180793Y-125962656D01*
X149328870Y-125758845D01*
X149443241Y-125534379D01*
X149521090Y-125294785D01*
X149560500Y-125045962D01*
X149560500Y-124794038D01*
X149521090Y-124545215D01*
X149443241Y-124305621D01*
X149443239Y-124305618D01*
X149443239Y-124305616D01*
X149388133Y-124197465D01*
X149328870Y-124081155D01*
X149211161Y-123919142D01*
X149180798Y-123877350D01*
X149180794Y-123877345D01*
X149002654Y-123699205D01*
X149002649Y-123699201D01*
X148798848Y-123551132D01*
X148798847Y-123551131D01*
X148798845Y-123551130D01*
X148728747Y-123515413D01*
X148574383Y-123436760D01*
X148334785Y-123358910D01*
X148243722Y-123344487D01*
X148085962Y-123319500D01*
X147834038Y-123319500D01*
X147709626Y-123339205D01*
X147585214Y-123358910D01*
X147345616Y-123436760D01*
X147121151Y-123551132D01*
X146917350Y-123699201D01*
X146917345Y-123699205D01*
X146739205Y-123877345D01*
X146739201Y-123877350D01*
X146591132Y-124081151D01*
X146591130Y-124081155D01*
X146506623Y-124247011D01*
X146504185Y-124251795D01*
X146456211Y-124302591D01*
X146393700Y-124319500D01*
X138224500Y-124319500D01*
X138157461Y-124299815D01*
X138111706Y-124247011D01*
X138100500Y-124195500D01*
X138100500Y-110913389D01*
X139239500Y-110913389D01*
X139239500Y-111086611D01*
X139247677Y-111138239D01*
X139260490Y-111219141D01*
X139266598Y-111257701D01*
X139320127Y-111422445D01*
X139398768Y-111576788D01*
X139500586Y-111716928D01*
X139623072Y-111839414D01*
X139763212Y-111941232D01*
X139917555Y-112019873D01*
X140082299Y-112073402D01*
X140253389Y-112100500D01*
X140253390Y-112100500D01*
X140426610Y-112100500D01*
X140426611Y-112100500D01*
X140597701Y-112073402D01*
X140762445Y-112019873D01*
X140916788Y-111941232D01*
X141056928Y-111839414D01*
X141179414Y-111716928D01*
X141281232Y-111576788D01*
X141359873Y-111422445D01*
X141413402Y-111257701D01*
X141440500Y-111086611D01*
X141440500Y-110913389D01*
X141430854Y-110852486D01*
X143169500Y-110852486D01*
X143169500Y-111147513D01*
X143200114Y-111380044D01*
X143208007Y-111439993D01*
X143282212Y-111716930D01*
X143284361Y-111724951D01*
X143284364Y-111724961D01*
X143397254Y-111997500D01*
X143397258Y-111997510D01*
X143544761Y-112252993D01*
X143724352Y-112487040D01*
X143724358Y-112487047D01*
X143932952Y-112695641D01*
X143932959Y-112695647D01*
X144167006Y-112875238D01*
X144422489Y-113022741D01*
X144422490Y-113022741D01*
X144422493Y-113022743D01*
X144695048Y-113135639D01*
X144980007Y-113211993D01*
X145272494Y-113250500D01*
X145272501Y-113250500D01*
X145567499Y-113250500D01*
X145567506Y-113250500D01*
X145859993Y-113211993D01*
X146144952Y-113135639D01*
X146417507Y-113022743D01*
X146672994Y-112875238D01*
X146907042Y-112695646D01*
X147115646Y-112487042D01*
X147295238Y-112252994D01*
X147442743Y-111997507D01*
X147555639Y-111724952D01*
X147631993Y-111439993D01*
X147670500Y-111147506D01*
X147670500Y-110913389D01*
X149399500Y-110913389D01*
X149399500Y-111086611D01*
X149407677Y-111138239D01*
X149420490Y-111219141D01*
X149426598Y-111257701D01*
X149480127Y-111422445D01*
X149558768Y-111576788D01*
X149660586Y-111716928D01*
X149783072Y-111839414D01*
X149923212Y-111941232D01*
X150077555Y-112019873D01*
X150242299Y-112073402D01*
X150413389Y-112100500D01*
X150413390Y-112100500D01*
X150586610Y-112100500D01*
X150586611Y-112100500D01*
X150757701Y-112073402D01*
X150922445Y-112019873D01*
X151076788Y-111941232D01*
X151216928Y-111839414D01*
X151339414Y-111716928D01*
X151441232Y-111576788D01*
X151519873Y-111422445D01*
X151573402Y-111257701D01*
X151600500Y-111086611D01*
X151600500Y-110913389D01*
X151573402Y-110742299D01*
X151519873Y-110577555D01*
X151441232Y-110423212D01*
X151339414Y-110283072D01*
X151216928Y-110160586D01*
X151076788Y-110058768D01*
X150922445Y-109980127D01*
X150757701Y-109926598D01*
X150757699Y-109926597D01*
X150757698Y-109926597D01*
X150626271Y-109905781D01*
X150586611Y-109899500D01*
X150413389Y-109899500D01*
X150373728Y-109905781D01*
X150242302Y-109926597D01*
X150077552Y-109980128D01*
X149923211Y-110058768D01*
X149900229Y-110075466D01*
X149783072Y-110160586D01*
X149783070Y-110160588D01*
X149783069Y-110160588D01*
X149660588Y-110283069D01*
X149660588Y-110283070D01*
X149660586Y-110283072D01*
X149631421Y-110323214D01*
X149558768Y-110423211D01*
X149480128Y-110577552D01*
X149426597Y-110742302D01*
X149404912Y-110879219D01*
X149399500Y-110913389D01*
X147670500Y-110913389D01*
X147670500Y-110852494D01*
X147631993Y-110560007D01*
X147555639Y-110275048D01*
X147442743Y-110002493D01*
X147402916Y-109933511D01*
X147295238Y-109747006D01*
X147115647Y-109512959D01*
X147115641Y-109512952D01*
X146907047Y-109304358D01*
X146907040Y-109304352D01*
X146672993Y-109124761D01*
X146417510Y-108977258D01*
X146417500Y-108977254D01*
X146144961Y-108864364D01*
X146144954Y-108864362D01*
X146144952Y-108864361D01*
X145859993Y-108788007D01*
X145811113Y-108781571D01*
X145567513Y-108749500D01*
X145567506Y-108749500D01*
X145272494Y-108749500D01*
X145272486Y-108749500D01*
X144994085Y-108786153D01*
X144980007Y-108788007D01*
X144805861Y-108834669D01*
X144695048Y-108864361D01*
X144695038Y-108864364D01*
X144422499Y-108977254D01*
X144422489Y-108977258D01*
X144167006Y-109124761D01*
X143932959Y-109304352D01*
X143932952Y-109304358D01*
X143724358Y-109512952D01*
X143724352Y-109512959D01*
X143544761Y-109747006D01*
X143397258Y-110002489D01*
X143397254Y-110002499D01*
X143284364Y-110275038D01*
X143284361Y-110275048D01*
X143228815Y-110482352D01*
X143208008Y-110560004D01*
X143208006Y-110560015D01*
X143169500Y-110852486D01*
X141430854Y-110852486D01*
X141413402Y-110742299D01*
X141359873Y-110577555D01*
X141281232Y-110423212D01*
X141179414Y-110283072D01*
X141126882Y-110230540D01*
X141093397Y-110169217D01*
X141098381Y-110099525D01*
X141140253Y-110043592D01*
X141205717Y-110019175D01*
X141233961Y-110020386D01*
X141484072Y-110060000D01*
X141735928Y-110060000D01*
X141984669Y-110020602D01*
X142224184Y-109942780D01*
X142448575Y-109828446D01*
X142448581Y-109828442D01*
X142550697Y-109754250D01*
X142550698Y-109754250D01*
X141934025Y-109137578D01*
X141965258Y-109124641D01*
X142088097Y-109042563D01*
X142192563Y-108938097D01*
X142274641Y-108815258D01*
X142287577Y-108784025D01*
X142904250Y-109400698D01*
X142904250Y-109400697D01*
X142978442Y-109298581D01*
X142978446Y-109298575D01*
X143092780Y-109074184D01*
X143170602Y-108834669D01*
X143210000Y-108585928D01*
X143210000Y-108334071D01*
X143170602Y-108085330D01*
X143092780Y-107845815D01*
X142978442Y-107621416D01*
X142904250Y-107519301D01*
X142904250Y-107519300D01*
X142287577Y-108135973D01*
X142274641Y-108104742D01*
X142192563Y-107981903D01*
X142088097Y-107877437D01*
X141965258Y-107795359D01*
X141934024Y-107782421D01*
X142550698Y-107165748D01*
X142448583Y-107091557D01*
X142224184Y-106977219D01*
X141984669Y-106899397D01*
X141735928Y-106860000D01*
X141484072Y-106860000D01*
X141235330Y-106899397D01*
X140995815Y-106977219D01*
X140771413Y-107091559D01*
X140669301Y-107165747D01*
X140669300Y-107165748D01*
X141285974Y-107782421D01*
X141254742Y-107795359D01*
X141131903Y-107877437D01*
X141027437Y-107981903D01*
X140945359Y-108104742D01*
X140932421Y-108135974D01*
X140315748Y-107519300D01*
X140315747Y-107519301D01*
X140241559Y-107621413D01*
X140127219Y-107845815D01*
X140049397Y-108085330D01*
X140010000Y-108334071D01*
X140010000Y-108585928D01*
X140049397Y-108834669D01*
X140127219Y-109074184D01*
X140241557Y-109298583D01*
X140315748Y-109400697D01*
X140315748Y-109400698D01*
X140932421Y-108784024D01*
X140945359Y-108815258D01*
X141027437Y-108938097D01*
X141131903Y-109042563D01*
X141254742Y-109124641D01*
X141285974Y-109137577D01*
X140669300Y-109754250D01*
X140671598Y-109783449D01*
X140657233Y-109851827D01*
X140608181Y-109901583D01*
X140540016Y-109916921D01*
X140528583Y-109915650D01*
X140426611Y-109899500D01*
X140253389Y-109899500D01*
X140213728Y-109905781D01*
X140082302Y-109926597D01*
X139917552Y-109980128D01*
X139763211Y-110058768D01*
X139740229Y-110075466D01*
X139623072Y-110160586D01*
X139623070Y-110160588D01*
X139623069Y-110160588D01*
X139500588Y-110283069D01*
X139500588Y-110283070D01*
X139500586Y-110283072D01*
X139471421Y-110323214D01*
X139398768Y-110423211D01*
X139320128Y-110577552D01*
X139266597Y-110742302D01*
X139244912Y-110879219D01*
X139239500Y-110913389D01*
X138100500Y-110913389D01*
X138100500Y-107089060D01*
X138100501Y-107089047D01*
X138100501Y-106920944D01*
X138100501Y-106920943D01*
X138059577Y-106768216D01*
X138023944Y-106706498D01*
X138007473Y-106638599D01*
X138030326Y-106572572D01*
X138085248Y-106529382D01*
X138131333Y-106520500D01*
X146393700Y-106520500D01*
X146460739Y-106540185D01*
X146504184Y-106588204D01*
X146587271Y-106751272D01*
X146591132Y-106758848D01*
X146739201Y-106962649D01*
X146739205Y-106962654D01*
X146917345Y-107140794D01*
X146917350Y-107140798D01*
X147065914Y-107248735D01*
X147121155Y-107288870D01*
X147264184Y-107361747D01*
X147345616Y-107403239D01*
X147345618Y-107403239D01*
X147345621Y-107403241D01*
X147585215Y-107481090D01*
X147834038Y-107520500D01*
X147834039Y-107520500D01*
X148085961Y-107520500D01*
X148085962Y-107520500D01*
X148334785Y-107481090D01*
X148574379Y-107403241D01*
X148798845Y-107288870D01*
X149002656Y-107140793D01*
X149180793Y-106962656D01*
X149328870Y-106758845D01*
X149443241Y-106534379D01*
X149521090Y-106294785D01*
X149560500Y-106045962D01*
X149560500Y-105794038D01*
X149521090Y-105545215D01*
X149443241Y-105305621D01*
X149443239Y-105305618D01*
X149443239Y-105305616D01*
X149401747Y-105224184D01*
X149328870Y-105081155D01*
X149264817Y-104992993D01*
X149180798Y-104877350D01*
X149180794Y-104877345D01*
X149002654Y-104699205D01*
X149002649Y-104699201D01*
X148798848Y-104551132D01*
X148798847Y-104551131D01*
X148798845Y-104551130D01*
X148717069Y-104509463D01*
X148574383Y-104436760D01*
X148334785Y-104358910D01*
X148085962Y-104319500D01*
X147834038Y-104319500D01*
X147709626Y-104339205D01*
X147585214Y-104358910D01*
X147345616Y-104436760D01*
X147121151Y-104551132D01*
X146917350Y-104699201D01*
X146917345Y-104699205D01*
X146739205Y-104877345D01*
X146739201Y-104877350D01*
X146591132Y-105081151D01*
X146591130Y-105081155D01*
X146506623Y-105247011D01*
X146504185Y-105251795D01*
X146456211Y-105302591D01*
X146393700Y-105319500D01*
X138224500Y-105319500D01*
X138157461Y-105299815D01*
X138111706Y-105247011D01*
X138100500Y-105195500D01*
X138100500Y-102198423D01*
X138100501Y-102198410D01*
X138100501Y-102030309D01*
X138100501Y-102030307D01*
X138059577Y-101877579D01*
X138013602Y-101797949D01*
X137980520Y-101740648D01*
X137868716Y-101628844D01*
X137868715Y-101628843D01*
X137864385Y-101624513D01*
X137864374Y-101624503D01*
X137378226Y-101138355D01*
X137378224Y-101138352D01*
X137259353Y-101019481D01*
X137259352Y-101019480D01*
X137172540Y-100969360D01*
X137172540Y-100969359D01*
X137172536Y-100969358D01*
X137122421Y-100940423D01*
X136969693Y-100899499D01*
X136811579Y-100899499D01*
X136803983Y-100899499D01*
X136803967Y-100899500D01*
X135367728Y-100899500D01*
X135300689Y-100879815D01*
X135254934Y-100827011D01*
X135244990Y-100757853D01*
X135255346Y-100723095D01*
X135281739Y-100666496D01*
X135340635Y-100446692D01*
X135355500Y-100276784D01*
X135355500Y-100163216D01*
X135340635Y-99993308D01*
X135281739Y-99773504D01*
X135185568Y-99567266D01*
X135055047Y-99380861D01*
X135055045Y-99380858D01*
X134894141Y-99219954D01*
X134707734Y-99089432D01*
X134707728Y-99089429D01*
X134649725Y-99062382D01*
X134597285Y-99016210D01*
X134578133Y-98949017D01*
X134598348Y-98882135D01*
X134649725Y-98837618D01*
X134707734Y-98810568D01*
X134894139Y-98680047D01*
X135055047Y-98519139D01*
X135185568Y-98332734D01*
X135281739Y-98126496D01*
X135340635Y-97906692D01*
X135355500Y-97736784D01*
X135355500Y-97623216D01*
X135340635Y-97453308D01*
X135284055Y-97242147D01*
X135281741Y-97233511D01*
X135281738Y-97233502D01*
X135270472Y-97209343D01*
X135185568Y-97027266D01*
X135055047Y-96840861D01*
X135055045Y-96840858D01*
X134994709Y-96780522D01*
X134961224Y-96719199D01*
X134966208Y-96649507D01*
X134994707Y-96605162D01*
X137380520Y-94219352D01*
X137459577Y-94082420D01*
X137500501Y-93929693D01*
X137500501Y-93771578D01*
X137500501Y-93763983D01*
X137500500Y-93763965D01*
X137500500Y-91913389D01*
X139239500Y-91913389D01*
X139239500Y-92086611D01*
X139266598Y-92257701D01*
X139320127Y-92422445D01*
X139398768Y-92576788D01*
X139500586Y-92716928D01*
X139623072Y-92839414D01*
X139763212Y-92941232D01*
X139917555Y-93019873D01*
X140082299Y-93073402D01*
X140253389Y-93100500D01*
X140253390Y-93100500D01*
X140426610Y-93100500D01*
X140426611Y-93100500D01*
X140597701Y-93073402D01*
X140762445Y-93019873D01*
X140916788Y-92941232D01*
X141056928Y-92839414D01*
X141179414Y-92716928D01*
X141281232Y-92576788D01*
X141359873Y-92422445D01*
X141413402Y-92257701D01*
X141440500Y-92086611D01*
X141440500Y-91913389D01*
X141430854Y-91852486D01*
X143169500Y-91852486D01*
X143169500Y-92147513D01*
X143185383Y-92268150D01*
X143208007Y-92439993D01*
X143282212Y-92716930D01*
X143284361Y-92724951D01*
X143284364Y-92724961D01*
X143397254Y-92997500D01*
X143397258Y-92997510D01*
X143544761Y-93252993D01*
X143724352Y-93487040D01*
X143724358Y-93487047D01*
X143932952Y-93695641D01*
X143932959Y-93695647D01*
X144167006Y-93875238D01*
X144422489Y-94022741D01*
X144422490Y-94022741D01*
X144422493Y-94022743D01*
X144695048Y-94135639D01*
X144980007Y-94211993D01*
X145272494Y-94250500D01*
X145272501Y-94250500D01*
X145567499Y-94250500D01*
X145567506Y-94250500D01*
X145859993Y-94211993D01*
X146144952Y-94135639D01*
X146417507Y-94022743D01*
X146672994Y-93875238D01*
X146907042Y-93695646D01*
X147115646Y-93487042D01*
X147295238Y-93252994D01*
X147442743Y-92997507D01*
X147555639Y-92724952D01*
X147631993Y-92439993D01*
X147670500Y-92147506D01*
X147670500Y-91913389D01*
X149399500Y-91913389D01*
X149399500Y-92086611D01*
X149426598Y-92257701D01*
X149480127Y-92422445D01*
X149558768Y-92576788D01*
X149660586Y-92716928D01*
X149783072Y-92839414D01*
X149923212Y-92941232D01*
X150077555Y-93019873D01*
X150242299Y-93073402D01*
X150413389Y-93100500D01*
X150413390Y-93100500D01*
X150586610Y-93100500D01*
X150586611Y-93100500D01*
X150757701Y-93073402D01*
X150922445Y-93019873D01*
X151076788Y-92941232D01*
X151216928Y-92839414D01*
X151339414Y-92716928D01*
X151441232Y-92576788D01*
X151519873Y-92422445D01*
X151573402Y-92257701D01*
X151600500Y-92086611D01*
X151600500Y-91913389D01*
X151573402Y-91742299D01*
X151519873Y-91577555D01*
X151441232Y-91423212D01*
X151339414Y-91283072D01*
X151216928Y-91160586D01*
X151076788Y-91058768D01*
X150922445Y-90980127D01*
X150757701Y-90926598D01*
X150757699Y-90926597D01*
X150757698Y-90926597D01*
X150626271Y-90905781D01*
X150586611Y-90899500D01*
X150413389Y-90899500D01*
X150373728Y-90905781D01*
X150242302Y-90926597D01*
X150077552Y-90980128D01*
X149923211Y-91058768D01*
X149867115Y-91099525D01*
X149783072Y-91160586D01*
X149783070Y-91160588D01*
X149783069Y-91160588D01*
X149660588Y-91283069D01*
X149660588Y-91283070D01*
X149660586Y-91283072D01*
X149627597Y-91328477D01*
X149558768Y-91423211D01*
X149480128Y-91577552D01*
X149426597Y-91742302D01*
X149400633Y-91906235D01*
X149399500Y-91913389D01*
X147670500Y-91913389D01*
X147670500Y-91852494D01*
X147631993Y-91560007D01*
X147555639Y-91275048D01*
X147442743Y-91002493D01*
X147415475Y-90955264D01*
X147295238Y-90747006D01*
X147115647Y-90512959D01*
X147115641Y-90512952D01*
X146907047Y-90304358D01*
X146907040Y-90304352D01*
X146672993Y-90124761D01*
X146417510Y-89977258D01*
X146417500Y-89977254D01*
X146144961Y-89864364D01*
X146144954Y-89864362D01*
X146144952Y-89864361D01*
X145859993Y-89788007D01*
X145811113Y-89781571D01*
X145567513Y-89749500D01*
X145567506Y-89749500D01*
X145272494Y-89749500D01*
X145272486Y-89749500D01*
X144994085Y-89786153D01*
X144980007Y-89788007D01*
X144810922Y-89833313D01*
X144695048Y-89864361D01*
X144695038Y-89864364D01*
X144422499Y-89977254D01*
X144422489Y-89977258D01*
X144167006Y-90124761D01*
X143932959Y-90304352D01*
X143932952Y-90304358D01*
X143724358Y-90512952D01*
X143724352Y-90512959D01*
X143544761Y-90747006D01*
X143397258Y-91002489D01*
X143397254Y-91002499D01*
X143284364Y-91275038D01*
X143284361Y-91275048D01*
X143224519Y-91498385D01*
X143208008Y-91560004D01*
X143208006Y-91560015D01*
X143169500Y-91852486D01*
X141430854Y-91852486D01*
X141413402Y-91742299D01*
X141359873Y-91577555D01*
X141281232Y-91423212D01*
X141179414Y-91283072D01*
X141126882Y-91230540D01*
X141093397Y-91169217D01*
X141098381Y-91099525D01*
X141140253Y-91043592D01*
X141205717Y-91019175D01*
X141233961Y-91020386D01*
X141484072Y-91060000D01*
X141735928Y-91060000D01*
X141984669Y-91020602D01*
X142224184Y-90942780D01*
X142448575Y-90828446D01*
X142448581Y-90828442D01*
X142550697Y-90754250D01*
X142550698Y-90754250D01*
X141934025Y-90137578D01*
X141965258Y-90124641D01*
X142088097Y-90042563D01*
X142192563Y-89938097D01*
X142274641Y-89815258D01*
X142287577Y-89784025D01*
X142904250Y-90400698D01*
X142904250Y-90400697D01*
X142978442Y-90298581D01*
X142978446Y-90298575D01*
X143092780Y-90074184D01*
X143170602Y-89834669D01*
X143210000Y-89585928D01*
X143210000Y-89334071D01*
X143170602Y-89085330D01*
X143092780Y-88845815D01*
X142978442Y-88621416D01*
X142904250Y-88519301D01*
X142904250Y-88519300D01*
X142287577Y-89135973D01*
X142274641Y-89104742D01*
X142192563Y-88981903D01*
X142088097Y-88877437D01*
X141965258Y-88795359D01*
X141934024Y-88782421D01*
X142550698Y-88165748D01*
X142448583Y-88091557D01*
X142224184Y-87977219D01*
X141984669Y-87899397D01*
X141735928Y-87860000D01*
X141484072Y-87860000D01*
X141235330Y-87899397D01*
X140995815Y-87977219D01*
X140771413Y-88091559D01*
X140669301Y-88165747D01*
X140669300Y-88165748D01*
X141285974Y-88782421D01*
X141254742Y-88795359D01*
X141131903Y-88877437D01*
X141027437Y-88981903D01*
X140945359Y-89104742D01*
X140932421Y-89135974D01*
X140315748Y-88519300D01*
X140315747Y-88519301D01*
X140241559Y-88621413D01*
X140127219Y-88845815D01*
X140049397Y-89085330D01*
X140010000Y-89334071D01*
X140010000Y-89585928D01*
X140049397Y-89834669D01*
X140127219Y-90074184D01*
X140241557Y-90298583D01*
X140315748Y-90400697D01*
X140315748Y-90400698D01*
X140932421Y-89784024D01*
X140945359Y-89815258D01*
X141027437Y-89938097D01*
X141131903Y-90042563D01*
X141254742Y-90124641D01*
X141285974Y-90137577D01*
X140669300Y-90754250D01*
X140671598Y-90783449D01*
X140657233Y-90851827D01*
X140608181Y-90901583D01*
X140540016Y-90916921D01*
X140528583Y-90915650D01*
X140426611Y-90899500D01*
X140253389Y-90899500D01*
X140213728Y-90905781D01*
X140082302Y-90926597D01*
X139917552Y-90980128D01*
X139763211Y-91058768D01*
X139707115Y-91099525D01*
X139623072Y-91160586D01*
X139623070Y-91160588D01*
X139623069Y-91160588D01*
X139500588Y-91283069D01*
X139500588Y-91283070D01*
X139500586Y-91283072D01*
X139467597Y-91328477D01*
X139398768Y-91423211D01*
X139320128Y-91577552D01*
X139266597Y-91742302D01*
X139240633Y-91906235D01*
X139239500Y-91913389D01*
X137500500Y-91913389D01*
X137500500Y-86224500D01*
X137520185Y-86157461D01*
X137572989Y-86111706D01*
X137624500Y-86100500D01*
X146378923Y-86100500D01*
X146445962Y-86120185D01*
X146491717Y-86172989D01*
X146501661Y-86242147D01*
X146489408Y-86280794D01*
X146476761Y-86305613D01*
X146398910Y-86545214D01*
X146385419Y-86630393D01*
X146359500Y-86794038D01*
X146359500Y-87045962D01*
X146373062Y-87131588D01*
X146398910Y-87294785D01*
X146476760Y-87534383D01*
X146548053Y-87674301D01*
X146589826Y-87756286D01*
X146591132Y-87758848D01*
X146739201Y-87962649D01*
X146739205Y-87962654D01*
X146917345Y-88140794D01*
X146917350Y-88140798D01*
X147086829Y-88263931D01*
X147121155Y-88288870D01*
X147247451Y-88353221D01*
X147345616Y-88403239D01*
X147345618Y-88403239D01*
X147345621Y-88403241D01*
X147585215Y-88481090D01*
X147834038Y-88520500D01*
X147834039Y-88520500D01*
X148085961Y-88520500D01*
X148085962Y-88520500D01*
X148334785Y-88481090D01*
X148574379Y-88403241D01*
X148798845Y-88288870D01*
X149002656Y-88140793D01*
X149180793Y-87962656D01*
X149328870Y-87758845D01*
X149443241Y-87534379D01*
X149521090Y-87294785D01*
X149560500Y-87045962D01*
X149560500Y-86794038D01*
X149521090Y-86545215D01*
X149443241Y-86305621D01*
X149443239Y-86305618D01*
X149443239Y-86305616D01*
X149396813Y-86214500D01*
X149328870Y-86081155D01*
X149309952Y-86055117D01*
X149180798Y-85877350D01*
X149180794Y-85877345D01*
X149002654Y-85699205D01*
X149002649Y-85699201D01*
X148798848Y-85551132D01*
X148798847Y-85551131D01*
X148798845Y-85551130D01*
X148728747Y-85515413D01*
X148574383Y-85436760D01*
X148334785Y-85358910D01*
X148228658Y-85342101D01*
X148085962Y-85319500D01*
X147834038Y-85319500D01*
X147829166Y-85319500D01*
X147829166Y-85317435D01*
X147769043Y-85303996D01*
X147719921Y-85254310D01*
X147705458Y-85185953D01*
X147730248Y-85120629D01*
X147741396Y-85107838D01*
X148328713Y-84520521D01*
X148328716Y-84520520D01*
X148440520Y-84408716D01*
X148490639Y-84321904D01*
X148519577Y-84271785D01*
X148560501Y-84119057D01*
X148560501Y-83960943D01*
X148560501Y-83953348D01*
X148560500Y-83953330D01*
X148560500Y-72913389D01*
X149399500Y-72913389D01*
X149399500Y-73086611D01*
X149426598Y-73257701D01*
X149480127Y-73422445D01*
X149558768Y-73576788D01*
X149660586Y-73716928D01*
X149783072Y-73839414D01*
X149923212Y-73941232D01*
X150077555Y-74019873D01*
X150242299Y-74073402D01*
X150413389Y-74100500D01*
X150413390Y-74100500D01*
X150586610Y-74100500D01*
X150586611Y-74100500D01*
X150757701Y-74073402D01*
X150922445Y-74019873D01*
X151076788Y-73941232D01*
X151216928Y-73839414D01*
X151339414Y-73716928D01*
X151441232Y-73576788D01*
X151519873Y-73422445D01*
X151573402Y-73257701D01*
X151600500Y-73086611D01*
X151600500Y-72913389D01*
X151573402Y-72742299D01*
X151519873Y-72577555D01*
X151441232Y-72423212D01*
X151339414Y-72283072D01*
X151216928Y-72160586D01*
X151076788Y-72058768D01*
X150922445Y-71980127D01*
X150757701Y-71926598D01*
X150757699Y-71926597D01*
X150757698Y-71926597D01*
X150626271Y-71905781D01*
X150586611Y-71899500D01*
X150413389Y-71899500D01*
X150373728Y-71905781D01*
X150242302Y-71926597D01*
X150077552Y-71980128D01*
X149923211Y-72058768D01*
X149867115Y-72099525D01*
X149783072Y-72160586D01*
X149783070Y-72160588D01*
X149783069Y-72160588D01*
X149660588Y-72283069D01*
X149660588Y-72283070D01*
X149660586Y-72283072D01*
X149616859Y-72343256D01*
X149558768Y-72423211D01*
X149480128Y-72577552D01*
X149426597Y-72742302D01*
X149409146Y-72852486D01*
X149399500Y-72913389D01*
X148560500Y-72913389D01*
X148560500Y-69486300D01*
X148580185Y-69419261D01*
X148628204Y-69375815D01*
X148798845Y-69288870D01*
X149002656Y-69140793D01*
X149180793Y-68962656D01*
X149328870Y-68758845D01*
X149443241Y-68534379D01*
X149521090Y-68294785D01*
X149560500Y-68045962D01*
X149560500Y-67794038D01*
X149521090Y-67545215D01*
X149443241Y-67305621D01*
X149443239Y-67305618D01*
X149443239Y-67305616D01*
X149401747Y-67224184D01*
X149328870Y-67081155D01*
X149309952Y-67055117D01*
X149180798Y-66877350D01*
X149180794Y-66877345D01*
X149002654Y-66699205D01*
X149002649Y-66699201D01*
X148798848Y-66551132D01*
X148798847Y-66551131D01*
X148798845Y-66551130D01*
X148728747Y-66515413D01*
X148574383Y-66436760D01*
X148334785Y-66358910D01*
X148085962Y-66319500D01*
X147834038Y-66319500D01*
X147709626Y-66339205D01*
X147585214Y-66358910D01*
X147345616Y-66436760D01*
X147121151Y-66551132D01*
X146917350Y-66699201D01*
X146917345Y-66699205D01*
X146739205Y-66877345D01*
X146739201Y-66877350D01*
X146591132Y-67081151D01*
X146476760Y-67305616D01*
X146398910Y-67545214D01*
X146359500Y-67794038D01*
X146359500Y-68045961D01*
X146398910Y-68294785D01*
X146476760Y-68534383D01*
X146591132Y-68758848D01*
X146739201Y-68962649D01*
X146739205Y-68962654D01*
X146917345Y-69140794D01*
X146917350Y-69140798D01*
X147095117Y-69269952D01*
X147121155Y-69288870D01*
X147291795Y-69375815D01*
X147342591Y-69423789D01*
X147359500Y-69486300D01*
X147359500Y-71465461D01*
X147339815Y-71532500D01*
X147287011Y-71578255D01*
X147217853Y-71588199D01*
X147154297Y-71559174D01*
X147137125Y-71540949D01*
X147115644Y-71512955D01*
X146907047Y-71304358D01*
X146907040Y-71304352D01*
X146672993Y-71124761D01*
X146417510Y-70977258D01*
X146417500Y-70977254D01*
X146144961Y-70864364D01*
X146144954Y-70864362D01*
X146144952Y-70864361D01*
X145859993Y-70788007D01*
X145811113Y-70781571D01*
X145567513Y-70749500D01*
X145567506Y-70749500D01*
X145272494Y-70749500D01*
X145272486Y-70749500D01*
X144994085Y-70786153D01*
X144980007Y-70788007D01*
X144805861Y-70834669D01*
X144695048Y-70864361D01*
X144695038Y-70864364D01*
X144422499Y-70977254D01*
X144422489Y-70977258D01*
X144167006Y-71124761D01*
X143932959Y-71304352D01*
X143932952Y-71304358D01*
X143724358Y-71512952D01*
X143724352Y-71512959D01*
X143544761Y-71747006D01*
X143397258Y-72002489D01*
X143397254Y-72002499D01*
X143284364Y-72275038D01*
X143284361Y-72275048D01*
X143208008Y-72560004D01*
X143208006Y-72560015D01*
X143169500Y-72852486D01*
X143169500Y-73147513D01*
X143201571Y-73391113D01*
X143208007Y-73439993D01*
X143282212Y-73716930D01*
X143284361Y-73724951D01*
X143284364Y-73724961D01*
X143397254Y-73997500D01*
X143397258Y-73997510D01*
X143544761Y-74252993D01*
X143724352Y-74487040D01*
X143724358Y-74487047D01*
X143932952Y-74695641D01*
X143932959Y-74695647D01*
X144167006Y-74875238D01*
X144422489Y-75022741D01*
X144422490Y-75022741D01*
X144422493Y-75022743D01*
X144695048Y-75135639D01*
X144980007Y-75211993D01*
X145272494Y-75250500D01*
X145272501Y-75250500D01*
X145567499Y-75250500D01*
X145567506Y-75250500D01*
X145859993Y-75211993D01*
X146144952Y-75135639D01*
X146417507Y-75022743D01*
X146672994Y-74875238D01*
X146907042Y-74695646D01*
X147115646Y-74487042D01*
X147137124Y-74459052D01*
X147193552Y-74417849D01*
X147263298Y-74413694D01*
X147324218Y-74447906D01*
X147356971Y-74509624D01*
X147359500Y-74534538D01*
X147359500Y-83739903D01*
X147339815Y-83806942D01*
X147323181Y-83827584D01*
X146787584Y-84363181D01*
X146726261Y-84396666D01*
X146699903Y-84399500D01*
X136420943Y-84399500D01*
X136268216Y-84440423D01*
X136268209Y-84440426D01*
X136131290Y-84519475D01*
X136131282Y-84519481D01*
X136019481Y-84631282D01*
X136019475Y-84631290D01*
X135940426Y-84768209D01*
X135940423Y-84768216D01*
X135899500Y-84920943D01*
X135899500Y-92699902D01*
X135879815Y-92766941D01*
X135863181Y-92787583D01*
X135495552Y-93155211D01*
X135434229Y-93188696D01*
X135364537Y-93183712D01*
X135308604Y-93141840D01*
X135284187Y-93076376D01*
X135290587Y-93029718D01*
X135289932Y-93029520D01*
X135319556Y-92931860D01*
X135319559Y-92931849D01*
X135335839Y-92850000D01*
X132888012Y-92850000D01*
X132920925Y-92792993D01*
X132955000Y-92665826D01*
X132955000Y-92534174D01*
X132920925Y-92407007D01*
X132888012Y-92350000D01*
X135335839Y-92350000D01*
X135335839Y-92349999D01*
X135319559Y-92268150D01*
X135319556Y-92268139D01*
X135290814Y-92173387D01*
X135230509Y-92027801D01*
X135183844Y-91940498D01*
X135183832Y-91940478D01*
X135096295Y-91809469D01*
X135096291Y-91809463D01*
X135033485Y-91732935D01*
X134922064Y-91621514D01*
X134845536Y-91558708D01*
X134845530Y-91558704D01*
X134714521Y-91471167D01*
X134714501Y-91471155D01*
X134649730Y-91436534D01*
X134599886Y-91387571D01*
X134584426Y-91319434D01*
X134608258Y-91253754D01*
X134655777Y-91214795D01*
X134707734Y-91190568D01*
X134894139Y-91060047D01*
X135055047Y-90899139D01*
X135185568Y-90712734D01*
X135281739Y-90506496D01*
X135340635Y-90286692D01*
X135355500Y-90116784D01*
X135355500Y-90003216D01*
X135340635Y-89833308D01*
X135295916Y-89666415D01*
X135281741Y-89613511D01*
X135281738Y-89613503D01*
X135185568Y-89407266D01*
X135087839Y-89267693D01*
X135055045Y-89220858D01*
X134894141Y-89059954D01*
X134707734Y-88929432D01*
X134707728Y-88929429D01*
X134680038Y-88916517D01*
X134649724Y-88902381D01*
X134597285Y-88856210D01*
X134578133Y-88789017D01*
X134598348Y-88722135D01*
X134649725Y-88677618D01*
X134707734Y-88650568D01*
X134894139Y-88520047D01*
X135055047Y-88359139D01*
X135185568Y-88172734D01*
X135281739Y-87966496D01*
X135340635Y-87746692D01*
X135355500Y-87576784D01*
X135355500Y-87463216D01*
X135340635Y-87293308D01*
X135281739Y-87073504D01*
X135185568Y-86867266D01*
X135055047Y-86680861D01*
X135055045Y-86680858D01*
X134894141Y-86519954D01*
X134707734Y-86389432D01*
X134707732Y-86389431D01*
X134501497Y-86293261D01*
X134501488Y-86293258D01*
X134281697Y-86234366D01*
X134281687Y-86234364D01*
X134111785Y-86219500D01*
X134111784Y-86219500D01*
X132557352Y-86219500D01*
X132352648Y-86219500D01*
X132352644Y-86219500D01*
X132300697Y-86227728D01*
X132300695Y-86227728D01*
X132296410Y-86228406D01*
X132228308Y-86234365D01*
X132184245Y-86246170D01*
X132177841Y-86247185D01*
X132177824Y-86247189D01*
X132150463Y-86251523D01*
X132150459Y-86251524D01*
X132088627Y-86271615D01*
X132082404Y-86273459D01*
X132008504Y-86293261D01*
X132008503Y-86293261D01*
X131984338Y-86304529D01*
X131984337Y-86304528D01*
X131977456Y-86307736D01*
X131955781Y-86314780D01*
X131884886Y-86350901D01*
X131882900Y-86351828D01*
X131882882Y-86351838D01*
X131802262Y-86389433D01*
X131790655Y-86397559D01*
X131790656Y-86397560D01*
X131783549Y-86402535D01*
X131773390Y-86407713D01*
X131699870Y-86461126D01*
X131698939Y-86461779D01*
X131615859Y-86519954D01*
X131454954Y-86680859D01*
X131396781Y-86763934D01*
X131396782Y-86763935D01*
X131396132Y-86764863D01*
X131342713Y-86838390D01*
X131337535Y-86848550D01*
X131332560Y-86855656D01*
X131332558Y-86855656D01*
X131324433Y-86867262D01*
X131286838Y-86947882D01*
X131285920Y-86949849D01*
X131249780Y-87020781D01*
X131242735Y-87042458D01*
X131239532Y-87049329D01*
X131239529Y-87049338D01*
X131228261Y-87073503D01*
X131228261Y-87073504D01*
X131208459Y-87147404D01*
X131208458Y-87147403D01*
X131207614Y-87150551D01*
X131186523Y-87215466D01*
X131181175Y-87249224D01*
X131179492Y-87255507D01*
X131179492Y-87255511D01*
X131169366Y-87293304D01*
X131169364Y-87293313D01*
X131163783Y-87357106D01*
X131162942Y-87363954D01*
X131162941Y-87364301D01*
X131162837Y-87365007D01*
X131154500Y-87417648D01*
X131154500Y-87622352D01*
X131163406Y-87678582D01*
X131169365Y-87746692D01*
X131181171Y-87790756D01*
X131182188Y-87797175D01*
X131182190Y-87797181D01*
X131186521Y-87824525D01*
X131186522Y-87824530D01*
X131186523Y-87824534D01*
X131199848Y-87865545D01*
X131206617Y-87886378D01*
X131208460Y-87892600D01*
X131228260Y-87966494D01*
X131239529Y-87990662D01*
X131240231Y-87992167D01*
X131242733Y-87997532D01*
X131249780Y-88019219D01*
X131285930Y-88090169D01*
X131286844Y-88092128D01*
X131324432Y-88172734D01*
X131332562Y-88184346D01*
X131337535Y-88191448D01*
X131342713Y-88201610D01*
X131396164Y-88275180D01*
X131396793Y-88276078D01*
X131454953Y-88359140D01*
X131615858Y-88520045D01*
X131615861Y-88520047D01*
X131699800Y-88578821D01*
X131773390Y-88632287D01*
X131783547Y-88637462D01*
X131790648Y-88642434D01*
X131790652Y-88642436D01*
X131802266Y-88650568D01*
X131802270Y-88650570D01*
X131860272Y-88677617D01*
X131870927Y-88686999D01*
X131884131Y-88692224D01*
X131896629Y-88709629D01*
X131912712Y-88723789D01*
X131916604Y-88737444D01*
X131924886Y-88748977D01*
X131925990Y-88770375D01*
X131931864Y-88790982D01*
X131927755Y-88804573D01*
X131928488Y-88818754D01*
X131917848Y-88837352D01*
X131911649Y-88857864D01*
X131900167Y-88868259D01*
X131893794Y-88879401D01*
X131869369Y-88896145D01*
X131865126Y-88899988D01*
X131862711Y-88901244D01*
X131802266Y-88929432D01*
X131784002Y-88942219D01*
X131776792Y-88945973D01*
X131776591Y-88946012D01*
X131775847Y-88946460D01*
X131773397Y-88947708D01*
X131773394Y-88947710D01*
X131700696Y-89000526D01*
X131698939Y-89001779D01*
X131615859Y-89059954D01*
X131454954Y-89220859D01*
X131396781Y-89303934D01*
X131396782Y-89303935D01*
X131396132Y-89304863D01*
X131342713Y-89378390D01*
X131337535Y-89388550D01*
X131332560Y-89395656D01*
X131332558Y-89395656D01*
X131324433Y-89407262D01*
X131286838Y-89487882D01*
X131285920Y-89489849D01*
X131249780Y-89560781D01*
X131242735Y-89582458D01*
X131239532Y-89589329D01*
X131239529Y-89589338D01*
X131228261Y-89613503D01*
X131228261Y-89613504D01*
X131208459Y-89687404D01*
X131208458Y-89687403D01*
X131207614Y-89690551D01*
X131186523Y-89755466D01*
X131181175Y-89789224D01*
X131179492Y-89795507D01*
X131179492Y-89795511D01*
X131169366Y-89833304D01*
X131169364Y-89833313D01*
X131163783Y-89897106D01*
X131162728Y-89905697D01*
X131154500Y-89957643D01*
X131154500Y-89957648D01*
X131154500Y-90162352D01*
X131163406Y-90218582D01*
X131169365Y-90286692D01*
X131181171Y-90330756D01*
X131182188Y-90337175D01*
X131182190Y-90337181D01*
X131186521Y-90364525D01*
X131186522Y-90364530D01*
X131206617Y-90426378D01*
X131208460Y-90432600D01*
X131228260Y-90506494D01*
X131239529Y-90530662D01*
X131239567Y-90530743D01*
X131242733Y-90537532D01*
X131249780Y-90559219D01*
X131285930Y-90630169D01*
X131286844Y-90632128D01*
X131324432Y-90712734D01*
X131332562Y-90724346D01*
X131337535Y-90731448D01*
X131342713Y-90741610D01*
X131396164Y-90815180D01*
X131396793Y-90816078D01*
X131454953Y-90899140D01*
X131615858Y-91060045D01*
X131682379Y-91106623D01*
X131726004Y-91161199D01*
X131733198Y-91230698D01*
X131701676Y-91293052D01*
X131641922Y-91328346D01*
X131621970Y-91333438D01*
X131621956Y-91333442D01*
X131565415Y-91356862D01*
X132325590Y-92117037D01*
X132262007Y-92134075D01*
X132147993Y-92199901D01*
X132054901Y-92292993D01*
X131989075Y-92407007D01*
X131955000Y-92534174D01*
X131955000Y-92665826D01*
X131989075Y-92792993D01*
X132021988Y-92850000D01*
X131150000Y-92850000D01*
X131150000Y-93239783D01*
X131151559Y-93268862D01*
X131135492Y-93336859D01*
X131085213Y-93385375D01*
X131027737Y-93399500D01*
X129381445Y-93399500D01*
X129340524Y-93410464D01*
X129340524Y-93410465D01*
X129303256Y-93420451D01*
X129228719Y-93440423D01*
X129228714Y-93440426D01*
X129091795Y-93519475D01*
X129091787Y-93519481D01*
X128979983Y-93631286D01*
X127148089Y-95463181D01*
X127086766Y-95496666D01*
X127060408Y-95499500D01*
X126715759Y-95499500D01*
X126674838Y-95510464D01*
X126674838Y-95510465D01*
X126637570Y-95520451D01*
X126563033Y-95540423D01*
X126563028Y-95540426D01*
X126426109Y-95619475D01*
X126426101Y-95619481D01*
X122927181Y-99118402D01*
X122865858Y-99151887D01*
X122796166Y-99146903D01*
X122740233Y-99105031D01*
X122715816Y-99039567D01*
X122715500Y-99030721D01*
X122715500Y-93375442D01*
X122715499Y-93375435D01*
X122703803Y-93331784D01*
X122674577Y-93222711D01*
X122645639Y-93172591D01*
X122595520Y-93085780D01*
X122483716Y-92973976D01*
X122483715Y-92973975D01*
X122479385Y-92969645D01*
X122479374Y-92969635D01*
X122248094Y-92738355D01*
X122248092Y-92738352D01*
X122129221Y-92619481D01*
X122129220Y-92619480D01*
X122042408Y-92569360D01*
X122042408Y-92569359D01*
X122042404Y-92569358D01*
X121992289Y-92540423D01*
X121839561Y-92499499D01*
X121681447Y-92499499D01*
X121673851Y-92499499D01*
X121673835Y-92499500D01*
X120338417Y-92499500D01*
X120297496Y-92510464D01*
X120297496Y-92510465D01*
X120260228Y-92520451D01*
X120185691Y-92540423D01*
X120156046Y-92557539D01*
X120126145Y-92569924D01*
X120101647Y-92576488D01*
X120101641Y-92576491D01*
X119964716Y-92655544D01*
X119964711Y-92655548D01*
X119661907Y-92958352D01*
X119600584Y-92991837D01*
X119574226Y-92994671D01*
X118325769Y-92994671D01*
X118284848Y-93005635D01*
X118284848Y-93005636D01*
X118247580Y-93015622D01*
X118173043Y-93035594D01*
X118173038Y-93035597D01*
X118036119Y-93114646D01*
X118036111Y-93114652D01*
X117924307Y-93226457D01*
X117287584Y-93863181D01*
X117226261Y-93896666D01*
X117199903Y-93899500D01*
X117131577Y-93899500D01*
X116978851Y-93940422D01*
X116938208Y-93963888D01*
X116938207Y-93963887D01*
X116841922Y-94019477D01*
X116841917Y-94019481D01*
X116730113Y-94131286D01*
X116109852Y-94751546D01*
X116080946Y-94767329D01*
X116052574Y-94784080D01*
X116050420Y-94783998D01*
X116048529Y-94785031D01*
X116015679Y-94782681D01*
X115982755Y-94781434D01*
X115980987Y-94780200D01*
X115978837Y-94780047D01*
X115952466Y-94760305D01*
X115925450Y-94741460D01*
X115924324Y-94739238D01*
X115922904Y-94738175D01*
X115907507Y-94711067D01*
X115904464Y-94703676D01*
X115901739Y-94693504D01*
X115889266Y-94666757D01*
X115888188Y-94664137D01*
X115888103Y-94663330D01*
X115884924Y-94655261D01*
X115880220Y-94640781D01*
X115845046Y-94571748D01*
X115843149Y-94567858D01*
X115805568Y-94487266D01*
X115797436Y-94475652D01*
X115797436Y-94475651D01*
X115792462Y-94468548D01*
X115787287Y-94458390D01*
X115733821Y-94384800D01*
X115688218Y-94319672D01*
X115675045Y-94300858D01*
X115514143Y-94139956D01*
X115447620Y-94093376D01*
X115403996Y-94038799D01*
X115396803Y-93969300D01*
X115428325Y-93906946D01*
X115488082Y-93871652D01*
X115508025Y-93866562D01*
X115508035Y-93866559D01*
X115564582Y-93843135D01*
X114804409Y-93082962D01*
X114867993Y-93065925D01*
X114982007Y-93000099D01*
X115075099Y-92907007D01*
X115108012Y-92850000D01*
X115278552Y-92850000D01*
X115918135Y-93489582D01*
X115918137Y-93489582D01*
X115941552Y-93433053D01*
X115959544Y-93382053D01*
X115979999Y-93239780D01*
X115980000Y-93239779D01*
X115980000Y-92850000D01*
X115278552Y-92850000D01*
X115108012Y-92850000D01*
X115140925Y-92792993D01*
X115175000Y-92665826D01*
X115175000Y-92534174D01*
X115140925Y-92407007D01*
X115108011Y-92349999D01*
X115278552Y-92349999D01*
X115278553Y-92350000D01*
X115980000Y-92350000D01*
X115980000Y-91960219D01*
X131150000Y-91960219D01*
X131150000Y-92350000D01*
X131851447Y-92350000D01*
X131851447Y-92349999D01*
X131211862Y-91710415D01*
X131188449Y-91766940D01*
X131170455Y-91817946D01*
X131150000Y-91960219D01*
X115980000Y-91960219D01*
X115980000Y-91960214D01*
X115977106Y-91906237D01*
X115977106Y-91906235D01*
X115941558Y-91766960D01*
X115918136Y-91710415D01*
X115918135Y-91710415D01*
X115278552Y-92349999D01*
X115108011Y-92349999D01*
X115075099Y-92292993D01*
X114982007Y-92199901D01*
X114867993Y-92134075D01*
X114804409Y-92117037D01*
X115564583Y-91356863D01*
X115564583Y-91356862D01*
X115508052Y-91333447D01*
X115508024Y-91333436D01*
X115479834Y-91323491D01*
X115423163Y-91282624D01*
X115397582Y-91217605D01*
X115411214Y-91149078D01*
X115449965Y-91104980D01*
X115514139Y-91060047D01*
X115675047Y-90899139D01*
X115733821Y-90815199D01*
X115787287Y-90741610D01*
X115792465Y-90731446D01*
X115805568Y-90712734D01*
X115844067Y-90630172D01*
X115865817Y-90587486D01*
X119964500Y-90587486D01*
X119964500Y-90772514D01*
X119971403Y-90816095D01*
X119993445Y-90955265D01*
X120050619Y-91131232D01*
X120050620Y-91131235D01*
X120116722Y-91260966D01*
X120134622Y-91296096D01*
X120243379Y-91445787D01*
X120374213Y-91576621D01*
X120523904Y-91685378D01*
X120573042Y-91710415D01*
X120688764Y-91769379D01*
X120688767Y-91769380D01*
X120776750Y-91797967D01*
X120864736Y-91826555D01*
X121047486Y-91855500D01*
X121047487Y-91855500D01*
X121232513Y-91855500D01*
X121232514Y-91855500D01*
X121415264Y-91826555D01*
X121591235Y-91769379D01*
X121756096Y-91685378D01*
X121905787Y-91576621D01*
X122036621Y-91445787D01*
X122145378Y-91296096D01*
X122229379Y-91131235D01*
X122286555Y-90955264D01*
X122315500Y-90772514D01*
X122315500Y-90587486D01*
X122286555Y-90404736D01*
X122260078Y-90323250D01*
X122231826Y-90236295D01*
X122229380Y-90228767D01*
X122229379Y-90228764D01*
X122214722Y-90199999D01*
X122615000Y-90199999D01*
X122615000Y-91100000D01*
X122617138Y-91165541D01*
X122617138Y-91165544D01*
X122617139Y-91165545D01*
X122651068Y-91292167D01*
X122716612Y-91405694D01*
X122809306Y-91498388D01*
X122922833Y-91563932D01*
X123049455Y-91597861D01*
X123115000Y-91600000D01*
X124015000Y-91600000D01*
X124080545Y-91597861D01*
X124207167Y-91563933D01*
X124320694Y-91498388D01*
X124413388Y-91405694D01*
X124478933Y-91292167D01*
X124512861Y-91165545D01*
X124515000Y-91100000D01*
X124515000Y-90587486D01*
X124814500Y-90587486D01*
X124814500Y-90772514D01*
X124821403Y-90816095D01*
X124843445Y-90955265D01*
X124900619Y-91131232D01*
X124900620Y-91131235D01*
X124966722Y-91260966D01*
X124984622Y-91296096D01*
X125093379Y-91445787D01*
X125224213Y-91576621D01*
X125373904Y-91685378D01*
X125423042Y-91710415D01*
X125538764Y-91769379D01*
X125538767Y-91769380D01*
X125626750Y-91797967D01*
X125714736Y-91826555D01*
X125897486Y-91855500D01*
X125897487Y-91855500D01*
X126082513Y-91855500D01*
X126082514Y-91855500D01*
X126155660Y-91843914D01*
X126222578Y-91833316D01*
X126228847Y-91832322D01*
X126265264Y-91826555D01*
X126441235Y-91769379D01*
X126606096Y-91685378D01*
X126755787Y-91576621D01*
X126886621Y-91445787D01*
X126995378Y-91296096D01*
X127079379Y-91131235D01*
X127136555Y-90955264D01*
X127165500Y-90772514D01*
X127165500Y-90587486D01*
X127136555Y-90404736D01*
X127107967Y-90316750D01*
X127079380Y-90228767D01*
X127079379Y-90228764D01*
X127022322Y-90116784D01*
X126995378Y-90063904D01*
X126886621Y-89914213D01*
X126755787Y-89783379D01*
X126606096Y-89674622D01*
X126441235Y-89590620D01*
X126441232Y-89590619D01*
X126265265Y-89533445D01*
X126173889Y-89518972D01*
X126082514Y-89504500D01*
X125897486Y-89504500D01*
X125836569Y-89514148D01*
X125714734Y-89533445D01*
X125538767Y-89590619D01*
X125538764Y-89590620D01*
X125373903Y-89674622D01*
X125336030Y-89702139D01*
X125224213Y-89783379D01*
X125224211Y-89783381D01*
X125224210Y-89783381D01*
X125093381Y-89914210D01*
X125093381Y-89914211D01*
X125093379Y-89914213D01*
X125061825Y-89957643D01*
X124984622Y-90063903D01*
X124900620Y-90228764D01*
X124900619Y-90228767D01*
X124843445Y-90404734D01*
X124823487Y-90530743D01*
X124814500Y-90587486D01*
X124515000Y-90587486D01*
X124515000Y-90200000D01*
X124512861Y-90134455D01*
X124478933Y-90007833D01*
X124413388Y-89894306D01*
X124320694Y-89801612D01*
X124207167Y-89736067D01*
X124080545Y-89702139D01*
X124015000Y-89700000D01*
X123565000Y-89700000D01*
X123115000Y-89700000D01*
X123049458Y-89702138D01*
X122922832Y-89736068D01*
X122809307Y-89801611D01*
X122809304Y-89801613D01*
X122716613Y-89894304D01*
X122716611Y-89894307D01*
X122651068Y-90007832D01*
X122617138Y-90134458D01*
X122615000Y-90199999D01*
X122214722Y-90199999D01*
X122172322Y-90116784D01*
X122145378Y-90063904D01*
X122036621Y-89914213D01*
X121905787Y-89783379D01*
X121756096Y-89674622D01*
X121591235Y-89590620D01*
X121591232Y-89590619D01*
X121415265Y-89533445D01*
X121323889Y-89518972D01*
X121232514Y-89504500D01*
X121047486Y-89504500D01*
X120986569Y-89514148D01*
X120864734Y-89533445D01*
X120688767Y-89590619D01*
X120688764Y-89590620D01*
X120523903Y-89674622D01*
X120486030Y-89702139D01*
X120374213Y-89783379D01*
X120374211Y-89783381D01*
X120374210Y-89783381D01*
X120243381Y-89914210D01*
X120243381Y-89914211D01*
X120243379Y-89914213D01*
X120211825Y-89957643D01*
X120134622Y-90063903D01*
X120050620Y-90228764D01*
X120050619Y-90228767D01*
X119993445Y-90404734D01*
X119973487Y-90530743D01*
X119964500Y-90587486D01*
X115865817Y-90587486D01*
X115880220Y-90559219D01*
X115887266Y-90537532D01*
X115890646Y-90530283D01*
X115890664Y-90530262D01*
X115890679Y-90530212D01*
X115901739Y-90506496D01*
X115901742Y-90506488D01*
X115921534Y-90432617D01*
X115922377Y-90429471D01*
X115943477Y-90364534D01*
X115948825Y-90330766D01*
X115960635Y-90286692D01*
X115966215Y-90222892D01*
X115967270Y-90214306D01*
X115969537Y-90199999D01*
X115975500Y-90162352D01*
X115975500Y-89957648D01*
X115966593Y-89901417D01*
X115960635Y-89833308D01*
X115948825Y-89789233D01*
X115943477Y-89755466D01*
X115923378Y-89693609D01*
X115921535Y-89687386D01*
X115901742Y-89613513D01*
X115901740Y-89613510D01*
X115901739Y-89613504D01*
X115887266Y-89582467D01*
X115880220Y-89560781D01*
X115844067Y-89489827D01*
X115805568Y-89407266D01*
X115797436Y-89395652D01*
X115797436Y-89395651D01*
X115792462Y-89388548D01*
X115787287Y-89378390D01*
X115733821Y-89304800D01*
X115733215Y-89303935D01*
X115733205Y-89303920D01*
X115675045Y-89220858D01*
X115514142Y-89059955D01*
X115505297Y-89053762D01*
X115443515Y-89010502D01*
X115399891Y-88955927D01*
X115392697Y-88886429D01*
X115424219Y-88824074D01*
X115477747Y-88790543D01*
X115564606Y-88763478D01*
X115710185Y-88675472D01*
X115830472Y-88555185D01*
X115918478Y-88409606D01*
X115969086Y-88247196D01*
X115975500Y-88176616D01*
X115975500Y-87655650D01*
X115975613Y-87650347D01*
X115975759Y-87646922D01*
X115980500Y-87598793D01*
X115980500Y-87543713D01*
X119489500Y-87543713D01*
X119489500Y-87756286D01*
X119522185Y-87962654D01*
X119522754Y-87966243D01*
X119587577Y-88165748D01*
X119588444Y-88168414D01*
X119684951Y-88357820D01*
X119809890Y-88529786D01*
X119960213Y-88680109D01*
X120132179Y-88805048D01*
X120132181Y-88805049D01*
X120132184Y-88805051D01*
X120321588Y-88901557D01*
X120523757Y-88967246D01*
X120733713Y-89000500D01*
X120733714Y-89000500D01*
X120946286Y-89000500D01*
X120946287Y-89000500D01*
X121156243Y-88967246D01*
X121358412Y-88901557D01*
X121547816Y-88805051D01*
X121605038Y-88763477D01*
X121719786Y-88680109D01*
X121719788Y-88680106D01*
X121719792Y-88680104D01*
X121870104Y-88529792D01*
X121995051Y-88357816D01*
X121995053Y-88357811D01*
X121997914Y-88353874D01*
X121999013Y-88354672D01*
X122046241Y-88311928D01*
X122104225Y-88299648D01*
X122115000Y-88300000D01*
X122115004Y-88300000D01*
X123015000Y-88300000D01*
X123080545Y-88297861D01*
X123207167Y-88263933D01*
X123320694Y-88198388D01*
X123413388Y-88105694D01*
X123453283Y-88036594D01*
X123503850Y-87988378D01*
X123572457Y-87975155D01*
X123637322Y-88001124D01*
X123668057Y-88036594D01*
X123716609Y-88120690D01*
X123716611Y-88120693D01*
X123716612Y-88120694D01*
X123809306Y-88213388D01*
X123922833Y-88278932D01*
X124049455Y-88312861D01*
X124115000Y-88315000D01*
X125014997Y-88315000D01*
X125015000Y-88315000D01*
X125036066Y-88314312D01*
X125103711Y-88331798D01*
X125140430Y-88365361D01*
X125259890Y-88529786D01*
X125410213Y-88680109D01*
X125582179Y-88805048D01*
X125582181Y-88805049D01*
X125582184Y-88805051D01*
X125771588Y-88901557D01*
X125973757Y-88967246D01*
X126183713Y-89000500D01*
X126183714Y-89000500D01*
X126396286Y-89000500D01*
X126396287Y-89000500D01*
X126606243Y-88967246D01*
X126808412Y-88901557D01*
X126997816Y-88805051D01*
X127055038Y-88763477D01*
X127169786Y-88680109D01*
X127169788Y-88680106D01*
X127169792Y-88680104D01*
X127320104Y-88529792D01*
X127320106Y-88529788D01*
X127320109Y-88529786D01*
X127445048Y-88357820D01*
X127445047Y-88357820D01*
X127445051Y-88357816D01*
X127541557Y-88168412D01*
X127607246Y-87966243D01*
X127640500Y-87756287D01*
X127640500Y-87543713D01*
X127639022Y-87534379D01*
X127622834Y-87432174D01*
X127615259Y-87384348D01*
X127607246Y-87333757D01*
X127541557Y-87131588D01*
X127445051Y-86942184D01*
X127445049Y-86942181D01*
X127445048Y-86942179D01*
X127320109Y-86770213D01*
X127169786Y-86619890D01*
X126997820Y-86494951D01*
X126808414Y-86398444D01*
X126808413Y-86398443D01*
X126808412Y-86398443D01*
X126606243Y-86332754D01*
X126606241Y-86332753D01*
X126606240Y-86332753D01*
X126434933Y-86305621D01*
X126396287Y-86299500D01*
X126183713Y-86299500D01*
X126145067Y-86305621D01*
X125973760Y-86332753D01*
X125771585Y-86398444D01*
X125582181Y-86494950D01*
X125503861Y-86551852D01*
X125438054Y-86575331D01*
X125370000Y-86559504D01*
X125343296Y-86539214D01*
X125320696Y-86516614D01*
X125320694Y-86516612D01*
X125207167Y-86451067D01*
X125080545Y-86417139D01*
X125015000Y-86415000D01*
X124565000Y-86415000D01*
X124115000Y-86415000D01*
X124049458Y-86417138D01*
X123922832Y-86451068D01*
X123809307Y-86516611D01*
X123809304Y-86516613D01*
X123716613Y-86609304D01*
X123716609Y-86609309D01*
X123676717Y-86678405D01*
X123626150Y-86726621D01*
X123557543Y-86739843D01*
X123492678Y-86713875D01*
X123461943Y-86678405D01*
X123424334Y-86613265D01*
X123413388Y-86594306D01*
X123320694Y-86501612D01*
X123207167Y-86436067D01*
X123080545Y-86402139D01*
X123015000Y-86400000D01*
X122565000Y-86400000D01*
X122115000Y-86400000D01*
X122049458Y-86402138D01*
X121922832Y-86436068D01*
X121809307Y-86501611D01*
X121809304Y-86501613D01*
X121778014Y-86532903D01*
X121716690Y-86566388D01*
X121646999Y-86561402D01*
X121617449Y-86545540D01*
X121547815Y-86494948D01*
X121358414Y-86398444D01*
X121358413Y-86398443D01*
X121358412Y-86398443D01*
X121156243Y-86332754D01*
X121156241Y-86332753D01*
X121156240Y-86332753D01*
X120984933Y-86305621D01*
X120946287Y-86299500D01*
X120733713Y-86299500D01*
X120695067Y-86305621D01*
X120523760Y-86332753D01*
X120321585Y-86398444D01*
X120132179Y-86494951D01*
X119960213Y-86619890D01*
X119809890Y-86770213D01*
X119684951Y-86942179D01*
X119588444Y-87131585D01*
X119522753Y-87333760D01*
X119489500Y-87543713D01*
X115980500Y-87543713D01*
X115980500Y-87441207D01*
X115976097Y-87396501D01*
X115975500Y-87384348D01*
X115975500Y-86863386D01*
X115974152Y-86848553D01*
X115969086Y-86792804D01*
X115918478Y-86630394D01*
X115830472Y-86484815D01*
X115830470Y-86484813D01*
X115830469Y-86484811D01*
X115710188Y-86364530D01*
X115689176Y-86351828D01*
X115564606Y-86276522D01*
X115402196Y-86225914D01*
X115402194Y-86225913D01*
X115402192Y-86225913D01*
X115352778Y-86221423D01*
X115331616Y-86219500D01*
X115331613Y-86219500D01*
X114810650Y-86219500D01*
X114798497Y-86218903D01*
X114753793Y-86214500D01*
X112435218Y-86214500D01*
X112435216Y-86214500D01*
X112381185Y-86217395D01*
X112381181Y-86217396D01*
X112241778Y-86252976D01*
X112241766Y-86252980D01*
X112168280Y-86283419D01*
X112168252Y-86283431D01*
X112119451Y-86306779D01*
X112119446Y-86306782D01*
X112004268Y-86393005D01*
X112004256Y-86393015D01*
X111948019Y-86449252D01*
X111911843Y-86489524D01*
X111911837Y-86489532D01*
X111838426Y-86613263D01*
X111807978Y-86686774D01*
X111807970Y-86686795D01*
X111789976Y-86737800D01*
X111769500Y-86880219D01*
X107600500Y-86880219D01*
X107600500Y-72913389D01*
X139239500Y-72913389D01*
X139239500Y-73086611D01*
X139266598Y-73257701D01*
X139320127Y-73422445D01*
X139398768Y-73576788D01*
X139500586Y-73716928D01*
X139623072Y-73839414D01*
X139763212Y-73941232D01*
X139917555Y-74019873D01*
X140082299Y-74073402D01*
X140253389Y-74100500D01*
X140253390Y-74100500D01*
X140426610Y-74100500D01*
X140426611Y-74100500D01*
X140597701Y-74073402D01*
X140762445Y-74019873D01*
X140916788Y-73941232D01*
X141056928Y-73839414D01*
X141179414Y-73716928D01*
X141281232Y-73576788D01*
X141359873Y-73422445D01*
X141413402Y-73257701D01*
X141440500Y-73086611D01*
X141440500Y-72913389D01*
X141413402Y-72742299D01*
X141359873Y-72577555D01*
X141281232Y-72423212D01*
X141179414Y-72283072D01*
X141126882Y-72230540D01*
X141093397Y-72169217D01*
X141098381Y-72099525D01*
X141140253Y-72043592D01*
X141205717Y-72019175D01*
X141233961Y-72020386D01*
X141484072Y-72060000D01*
X141735928Y-72060000D01*
X141984669Y-72020602D01*
X142224184Y-71942780D01*
X142448575Y-71828446D01*
X142448581Y-71828442D01*
X142550697Y-71754250D01*
X142550698Y-71754250D01*
X141934025Y-71137578D01*
X141965258Y-71124641D01*
X142088097Y-71042563D01*
X142192563Y-70938097D01*
X142274641Y-70815258D01*
X142287577Y-70784025D01*
X142904250Y-71400698D01*
X142904250Y-71400697D01*
X142978442Y-71298581D01*
X142978446Y-71298575D01*
X143092780Y-71074184D01*
X143170602Y-70834669D01*
X143210000Y-70585928D01*
X143210000Y-70334071D01*
X143170602Y-70085330D01*
X143092780Y-69845815D01*
X142978442Y-69621416D01*
X142904250Y-69519301D01*
X142904250Y-69519300D01*
X142287577Y-70135973D01*
X142274641Y-70104742D01*
X142192563Y-69981903D01*
X142088097Y-69877437D01*
X141965258Y-69795359D01*
X141934024Y-69782421D01*
X142550698Y-69165748D01*
X142448583Y-69091557D01*
X142224184Y-68977219D01*
X141984669Y-68899397D01*
X141735928Y-68860000D01*
X141484072Y-68860000D01*
X141235330Y-68899397D01*
X140995815Y-68977219D01*
X140771413Y-69091559D01*
X140669301Y-69165747D01*
X140669300Y-69165748D01*
X141285974Y-69782421D01*
X141254742Y-69795359D01*
X141131903Y-69877437D01*
X141027437Y-69981903D01*
X140945359Y-70104742D01*
X140932421Y-70135974D01*
X140315748Y-69519300D01*
X140315747Y-69519301D01*
X140241559Y-69621413D01*
X140127219Y-69845815D01*
X140049397Y-70085330D01*
X140010000Y-70334071D01*
X140010000Y-70585928D01*
X140049397Y-70834669D01*
X140127219Y-71074184D01*
X140241557Y-71298583D01*
X140315748Y-71400697D01*
X140315748Y-71400698D01*
X140932421Y-70784024D01*
X140945359Y-70815258D01*
X141027437Y-70938097D01*
X141131903Y-71042563D01*
X141254742Y-71124641D01*
X141285974Y-71137577D01*
X140669300Y-71754250D01*
X140671598Y-71783449D01*
X140657233Y-71851827D01*
X140608181Y-71901583D01*
X140540016Y-71916921D01*
X140528583Y-71915650D01*
X140426611Y-71899500D01*
X140253389Y-71899500D01*
X140213728Y-71905781D01*
X140082302Y-71926597D01*
X139917552Y-71980128D01*
X139763211Y-72058768D01*
X139707115Y-72099525D01*
X139623072Y-72160586D01*
X139623070Y-72160588D01*
X139623069Y-72160588D01*
X139500588Y-72283069D01*
X139500588Y-72283070D01*
X139500586Y-72283072D01*
X139456859Y-72343256D01*
X139398768Y-72423211D01*
X139320128Y-72577552D01*
X139266597Y-72742302D01*
X139249146Y-72852486D01*
X139239500Y-72913389D01*
X107600500Y-72913389D01*
X107600500Y-60738988D01*
X107620185Y-60671949D01*
X107672989Y-60626194D01*
X107726954Y-60615012D01*
X113101777Y-60721444D01*
G37*
%TD.AperFunction*%
%TD*%
M02*
