%TF.GenerationSoftware,KiCad,Pcbnew,10.0.2*%
%TF.CreationDate,2026-05-29T19:20:37+05:30*%
%TF.ProjectId,PulsePad,50756c73-6550-4616-942e-6b696361645f,rev?*%
%TF.SameCoordinates,Original*%
%TF.FileFunction,Soldermask,Bot*%
%TF.FilePolarity,Negative*%
%FSLAX46Y46*%
G04 Gerber Fmt 4.6, Leading zero omitted, Abs format (unit mm)*
G04 Created by KiCad (PCBNEW 10.0.2) date 2026-05-29 19:20:37*
%MOMM*%
%LPD*%
G01*
G04 APERTURE LIST*
G04 APERTURE END LIST*
G36*
X114907228Y-135014448D02*
G01*
X115052117Y-135074463D01*
X115182515Y-135161592D01*
X115293408Y-135272485D01*
X115380537Y-135402883D01*
X115440552Y-135547772D01*
X115471148Y-135701586D01*
X115471148Y-135858414D01*
X115440552Y-136012228D01*
X115380537Y-136157117D01*
X115293408Y-136287515D01*
X115182515Y-136398408D01*
X115052117Y-136485537D01*
X114907228Y-136545552D01*
X114753414Y-136576148D01*
X114596586Y-136576148D01*
X114442772Y-136545552D01*
X114297883Y-136485537D01*
X114167485Y-136398408D01*
X114056592Y-136287515D01*
X113969463Y-136157117D01*
X113909448Y-136012228D01*
X113878852Y-135858414D01*
X113878852Y-135701586D01*
X113909448Y-135547772D01*
X113969463Y-135402883D01*
X114056592Y-135272485D01*
X114167485Y-135161592D01*
X114297883Y-135074463D01*
X114442772Y-135014448D01*
X114596586Y-134983852D01*
X114753414Y-134983852D01*
X114907228Y-135014448D01*
G37*
G36*
X132687228Y-135014448D02*
G01*
X132832117Y-135074463D01*
X132962515Y-135161592D01*
X133073408Y-135272485D01*
X133160537Y-135402883D01*
X133220552Y-135547772D01*
X133251148Y-135701586D01*
X133251148Y-135858414D01*
X133220552Y-136012228D01*
X133160537Y-136157117D01*
X133073408Y-136287515D01*
X132962515Y-136398408D01*
X132832117Y-136485537D01*
X132687228Y-136545552D01*
X132533414Y-136576148D01*
X132376586Y-136576148D01*
X132222772Y-136545552D01*
X132077883Y-136485537D01*
X131947485Y-136398408D01*
X131836592Y-136287515D01*
X131749463Y-136157117D01*
X131689448Y-136012228D01*
X131658852Y-135858414D01*
X131658852Y-135701586D01*
X131689448Y-135547772D01*
X131749463Y-135402883D01*
X131836592Y-135272485D01*
X131947485Y-135161592D01*
X132077883Y-135074463D01*
X132222772Y-135014448D01*
X132376586Y-134983852D01*
X132533414Y-134983852D01*
X132687228Y-135014448D01*
G37*
G36*
X114907228Y-132474448D02*
G01*
X115052117Y-132534463D01*
X115182515Y-132621592D01*
X115293408Y-132732485D01*
X115380537Y-132862883D01*
X115440552Y-133007772D01*
X115471148Y-133161586D01*
X115471148Y-133318414D01*
X115440552Y-133472228D01*
X115380537Y-133617117D01*
X115293408Y-133747515D01*
X115182515Y-133858408D01*
X115052117Y-133945537D01*
X114907228Y-134005552D01*
X114753414Y-134036148D01*
X114596586Y-134036148D01*
X114442772Y-134005552D01*
X114297883Y-133945537D01*
X114167485Y-133858408D01*
X114056592Y-133747515D01*
X113969463Y-133617117D01*
X113909448Y-133472228D01*
X113878852Y-133318414D01*
X113878852Y-133161586D01*
X113909448Y-133007772D01*
X113969463Y-132862883D01*
X114056592Y-132732485D01*
X114167485Y-132621592D01*
X114297883Y-132534463D01*
X114442772Y-132474448D01*
X114596586Y-132443852D01*
X114753414Y-132443852D01*
X114907228Y-132474448D01*
G37*
G36*
X132687228Y-132474448D02*
G01*
X132832117Y-132534463D01*
X132962515Y-132621592D01*
X133073408Y-132732485D01*
X133160537Y-132862883D01*
X133220552Y-133007772D01*
X133251148Y-133161586D01*
X133251148Y-133318414D01*
X133220552Y-133472228D01*
X133160537Y-133617117D01*
X133073408Y-133747515D01*
X132962515Y-133858408D01*
X132832117Y-133945537D01*
X132687228Y-134005552D01*
X132533414Y-134036148D01*
X132376586Y-134036148D01*
X132222772Y-134005552D01*
X132077883Y-133945537D01*
X131947485Y-133858408D01*
X131836592Y-133747515D01*
X131749463Y-133617117D01*
X131689448Y-133472228D01*
X131658852Y-133318414D01*
X131658852Y-133161586D01*
X131689448Y-133007772D01*
X131749463Y-132862883D01*
X131836592Y-132732485D01*
X131947485Y-132621592D01*
X132077883Y-132534463D01*
X132222772Y-132474448D01*
X132376586Y-132443852D01*
X132533414Y-132443852D01*
X132687228Y-132474448D01*
G37*
G36*
X145810181Y-128038429D02*
G01*
X146062879Y-128106140D01*
X146304577Y-128206255D01*
X146531140Y-128337061D01*
X146738692Y-128496320D01*
X146923680Y-128681308D01*
X147082939Y-128888860D01*
X147213745Y-129115423D01*
X147313860Y-129357121D01*
X147381571Y-129609819D01*
X147415718Y-129869194D01*
X147415718Y-130130806D01*
X147381571Y-130390181D01*
X147313860Y-130642879D01*
X147213745Y-130884577D01*
X147082939Y-131111140D01*
X146923680Y-131318692D01*
X146738692Y-131503680D01*
X146531140Y-131662939D01*
X146304577Y-131793745D01*
X146062879Y-131893860D01*
X145810181Y-131961571D01*
X145550806Y-131995718D01*
X145289194Y-131995718D01*
X145029819Y-131961571D01*
X144777121Y-131893860D01*
X144535423Y-131793745D01*
X144308860Y-131662939D01*
X144101308Y-131503680D01*
X143916320Y-131318692D01*
X143757061Y-131111140D01*
X143626255Y-130884577D01*
X143526140Y-130642879D01*
X143458429Y-130390181D01*
X143424282Y-130130806D01*
X143424282Y-129869194D01*
X143458429Y-129609819D01*
X143526140Y-129357121D01*
X143626255Y-129115423D01*
X143757061Y-128888860D01*
X143916320Y-128681308D01*
X144101308Y-128496320D01*
X144308860Y-128337061D01*
X144535423Y-128206255D01*
X144777121Y-128106140D01*
X145029819Y-128038429D01*
X145289194Y-128004282D01*
X145550806Y-128004282D01*
X145810181Y-128038429D01*
G37*
G36*
X115278536Y-129896464D02*
G01*
X115280915Y-129898843D01*
X115308108Y-129898843D01*
X115314018Y-129898843D01*
X115315931Y-129899224D01*
X115321385Y-129901483D01*
X115321389Y-129901484D01*
X115382569Y-129926826D01*
X115388027Y-129929087D01*
X115389650Y-129930170D01*
X115444830Y-129985350D01*
X115445913Y-129986973D01*
X115475776Y-130059069D01*
X115476157Y-130060982D01*
X115476157Y-130094085D01*
X115478536Y-130096464D01*
X115480000Y-130100000D01*
X115480000Y-131300000D01*
X115478536Y-131303536D01*
X115476157Y-131305915D01*
X115476157Y-131339018D01*
X115475776Y-131340931D01*
X115445913Y-131413027D01*
X115444830Y-131414650D01*
X115389650Y-131469830D01*
X115388027Y-131470913D01*
X115315931Y-131500776D01*
X115314018Y-131501157D01*
X115280915Y-131501157D01*
X115278536Y-131503536D01*
X115275000Y-131505000D01*
X115263066Y-131505000D01*
X114686935Y-131505000D01*
X114675000Y-131505000D01*
X114671464Y-131503536D01*
X114670475Y-131501148D01*
X114599533Y-131501148D01*
X114596586Y-131501148D01*
X114595611Y-131501052D01*
X114441797Y-131470456D01*
X114440859Y-131470171D01*
X114295970Y-131410156D01*
X114295105Y-131409694D01*
X114200362Y-131346389D01*
X114167159Y-131324204D01*
X114167154Y-131324200D01*
X114164707Y-131322565D01*
X114163949Y-131321944D01*
X114053056Y-131211051D01*
X114052435Y-131210293D01*
X114050800Y-131207846D01*
X114050795Y-131207840D01*
X113966943Y-131082345D01*
X113966942Y-131082344D01*
X113965306Y-131079895D01*
X113964844Y-131079030D01*
X113963720Y-131076317D01*
X113963717Y-131076311D01*
X113905955Y-130936860D01*
X113905954Y-130936857D01*
X113904829Y-130934141D01*
X113904544Y-130933203D01*
X113903970Y-130930318D01*
X113903968Y-130930311D01*
X113874523Y-130782281D01*
X113874522Y-130782278D01*
X113873948Y-130779389D01*
X113873852Y-130778414D01*
X113873852Y-130621586D01*
X113873948Y-130620611D01*
X113874523Y-130617718D01*
X113903968Y-130469688D01*
X113903970Y-130469679D01*
X113904544Y-130466797D01*
X113904829Y-130465859D01*
X113905953Y-130463144D01*
X113905955Y-130463139D01*
X113963717Y-130323688D01*
X113963722Y-130323678D01*
X113964844Y-130320970D01*
X113965306Y-130320105D01*
X113966940Y-130317659D01*
X113966943Y-130317654D01*
X114050795Y-130192159D01*
X114050803Y-130192148D01*
X114052435Y-130189707D01*
X114053056Y-130188949D01*
X114163949Y-130078056D01*
X114164707Y-130077435D01*
X114167148Y-130075803D01*
X114167159Y-130075795D01*
X114292654Y-129991943D01*
X114292659Y-129991940D01*
X114295105Y-129990306D01*
X114295970Y-129989844D01*
X114298678Y-129988722D01*
X114298688Y-129988717D01*
X114438139Y-129930955D01*
X114438144Y-129930953D01*
X114440859Y-129929829D01*
X114441797Y-129929544D01*
X114444679Y-129928970D01*
X114444688Y-129928968D01*
X114592718Y-129899523D01*
X114592722Y-129899522D01*
X114595611Y-129898948D01*
X114596586Y-129898852D01*
X114670475Y-129898852D01*
X114671464Y-129896464D01*
X114675000Y-129895000D01*
X115275000Y-129895000D01*
X115278536Y-129896464D01*
G37*
G36*
X132458536Y-129896464D02*
G01*
X132459525Y-129898852D01*
X132530467Y-129898852D01*
X132533414Y-129898852D01*
X132534389Y-129898948D01*
X132537278Y-129899522D01*
X132537281Y-129899523D01*
X132685311Y-129928968D01*
X132685318Y-129928970D01*
X132688203Y-129929544D01*
X132689141Y-129929829D01*
X132691857Y-129930954D01*
X132691860Y-129930955D01*
X132831311Y-129988717D01*
X132831317Y-129988720D01*
X132834030Y-129989844D01*
X132834895Y-129990306D01*
X132837344Y-129991942D01*
X132837345Y-129991943D01*
X132962840Y-130075795D01*
X132962846Y-130075800D01*
X132965293Y-130077435D01*
X132966051Y-130078056D01*
X133076944Y-130188949D01*
X133077565Y-130189707D01*
X133079200Y-130192154D01*
X133079204Y-130192159D01*
X133136152Y-130277389D01*
X133164694Y-130320105D01*
X133165156Y-130320970D01*
X133225171Y-130465859D01*
X133225456Y-130466797D01*
X133256052Y-130620611D01*
X133256148Y-130621586D01*
X133256148Y-130778414D01*
X133256052Y-130779389D01*
X133225456Y-130933203D01*
X133225171Y-130934141D01*
X133165156Y-131079030D01*
X133164694Y-131079895D01*
X133077565Y-131210293D01*
X133076944Y-131211051D01*
X132966051Y-131321944D01*
X132965293Y-131322565D01*
X132834895Y-131409694D01*
X132834030Y-131410156D01*
X132689141Y-131470171D01*
X132688203Y-131470456D01*
X132534389Y-131501052D01*
X132533414Y-131501148D01*
X132459525Y-131501148D01*
X132458536Y-131503536D01*
X132455000Y-131505000D01*
X132443065Y-131505000D01*
X131866934Y-131505000D01*
X131855000Y-131505000D01*
X131851464Y-131503536D01*
X131849085Y-131501157D01*
X131821892Y-131501157D01*
X131815982Y-131501157D01*
X131814069Y-131500776D01*
X131741973Y-131470913D01*
X131740350Y-131469830D01*
X131685170Y-131414650D01*
X131684087Y-131413027D01*
X131681826Y-131407569D01*
X131656484Y-131346389D01*
X131656483Y-131346385D01*
X131654224Y-131340931D01*
X131653843Y-131339018D01*
X131653843Y-131305915D01*
X131651464Y-131303536D01*
X131650000Y-131300000D01*
X131650000Y-130100000D01*
X131651464Y-130096464D01*
X131653843Y-130094085D01*
X131653843Y-130060982D01*
X131654224Y-130059069D01*
X131656482Y-130053615D01*
X131656484Y-130053610D01*
X131681826Y-129992430D01*
X131681827Y-129992427D01*
X131684087Y-129986973D01*
X131685170Y-129985350D01*
X131740350Y-129930170D01*
X131741973Y-129929087D01*
X131747427Y-129926827D01*
X131747430Y-129926826D01*
X131808610Y-129901484D01*
X131808615Y-129901482D01*
X131814069Y-129899224D01*
X131815982Y-129898843D01*
X131849085Y-129898843D01*
X131851464Y-129896464D01*
X131855000Y-129895000D01*
X132455000Y-129895000D01*
X132458536Y-129896464D01*
G37*
G36*
X140586742Y-129186601D02*
G01*
X140740687Y-129250367D01*
X140879234Y-129342941D01*
X140997059Y-129460766D01*
X141089633Y-129599313D01*
X141153399Y-129753258D01*
X141185907Y-129916685D01*
X141185907Y-130083315D01*
X141153399Y-130246742D01*
X141089633Y-130400687D01*
X140997059Y-130539234D01*
X140879234Y-130657059D01*
X140740687Y-130749633D01*
X140586742Y-130813399D01*
X140423315Y-130845907D01*
X140256685Y-130845907D01*
X140093258Y-130813399D01*
X139939313Y-130749633D01*
X139800766Y-130657059D01*
X139682941Y-130539234D01*
X139590367Y-130400687D01*
X139526601Y-130246742D01*
X139494093Y-130083315D01*
X139494093Y-129916685D01*
X139526601Y-129753258D01*
X139590367Y-129599313D01*
X139682941Y-129460766D01*
X139800766Y-129342941D01*
X139939313Y-129250367D01*
X140093258Y-129186601D01*
X140256685Y-129154093D01*
X140423315Y-129154093D01*
X140586742Y-129186601D01*
G37*
G36*
X150746742Y-129186601D02*
G01*
X150900687Y-129250367D01*
X151039234Y-129342941D01*
X151157059Y-129460766D01*
X151249633Y-129599313D01*
X151313399Y-129753258D01*
X151345907Y-129916685D01*
X151345907Y-130083315D01*
X151313399Y-130246742D01*
X151249633Y-130400687D01*
X151157059Y-130539234D01*
X151039234Y-130657059D01*
X150900687Y-130749633D01*
X150746742Y-130813399D01*
X150583315Y-130845907D01*
X150416685Y-130845907D01*
X150253258Y-130813399D01*
X150099313Y-130749633D01*
X149960766Y-130657059D01*
X149842941Y-130539234D01*
X149750367Y-130400687D01*
X149686601Y-130246742D01*
X149654093Y-130083315D01*
X149654093Y-129916685D01*
X149686601Y-129753258D01*
X149750367Y-129599313D01*
X149842941Y-129460766D01*
X149960766Y-129342941D01*
X150099313Y-129250367D01*
X150253258Y-129186601D01*
X150416685Y-129154093D01*
X150583315Y-129154093D01*
X150746742Y-129186601D01*
G37*
G36*
X114907228Y-127394448D02*
G01*
X115052117Y-127454463D01*
X115182515Y-127541592D01*
X115293408Y-127652485D01*
X115380537Y-127782883D01*
X115440552Y-127927772D01*
X115471148Y-128081586D01*
X115471148Y-128238414D01*
X115440552Y-128392228D01*
X115380537Y-128537117D01*
X115293408Y-128667515D01*
X115182515Y-128778408D01*
X115052117Y-128865537D01*
X114907228Y-128925552D01*
X114753414Y-128956148D01*
X114596586Y-128956148D01*
X114442772Y-128925552D01*
X114297883Y-128865537D01*
X114167485Y-128778408D01*
X114056592Y-128667515D01*
X113969463Y-128537117D01*
X113909448Y-128392228D01*
X113878852Y-128238414D01*
X113878852Y-128081586D01*
X113909448Y-127927772D01*
X113969463Y-127782883D01*
X114056592Y-127652485D01*
X114167485Y-127541592D01*
X114297883Y-127454463D01*
X114442772Y-127394448D01*
X114596586Y-127363852D01*
X114753414Y-127363852D01*
X114907228Y-127394448D01*
G37*
G36*
X132687228Y-127394448D02*
G01*
X132832117Y-127454463D01*
X132962515Y-127541592D01*
X133073408Y-127652485D01*
X133160537Y-127782883D01*
X133220552Y-127927772D01*
X133251148Y-128081586D01*
X133251148Y-128238414D01*
X133220552Y-128392228D01*
X133160537Y-128537117D01*
X133073408Y-128667515D01*
X132962515Y-128778408D01*
X132832117Y-128865537D01*
X132687228Y-128925552D01*
X132533414Y-128956148D01*
X132376586Y-128956148D01*
X132222772Y-128925552D01*
X132077883Y-128865537D01*
X131947485Y-128778408D01*
X131836592Y-128667515D01*
X131749463Y-128537117D01*
X131689448Y-128392228D01*
X131658852Y-128238414D01*
X131658852Y-128081586D01*
X131689448Y-127927772D01*
X131749463Y-127782883D01*
X131836592Y-127652485D01*
X131947485Y-127541592D01*
X132077883Y-127454463D01*
X132222772Y-127394448D01*
X132376586Y-127363852D01*
X132533414Y-127363852D01*
X132687228Y-127394448D01*
G37*
G36*
X141866790Y-126390393D02*
G01*
X142030952Y-126443733D01*
X142184748Y-126522096D01*
X142324393Y-126623553D01*
X142446447Y-126745607D01*
X142547904Y-126885252D01*
X142626267Y-127039048D01*
X142679607Y-127203210D01*
X142706609Y-127373695D01*
X142706609Y-127546305D01*
X142679607Y-127716790D01*
X142626267Y-127880952D01*
X142547904Y-128034748D01*
X142446447Y-128174393D01*
X142324393Y-128296447D01*
X142184748Y-128397904D01*
X142030952Y-128476267D01*
X141866790Y-128529607D01*
X141696305Y-128556609D01*
X141523695Y-128556609D01*
X141353210Y-128529607D01*
X141189048Y-128476267D01*
X141035252Y-128397904D01*
X140895607Y-128296447D01*
X140773553Y-128174393D01*
X140672096Y-128034748D01*
X140593733Y-127880952D01*
X140540393Y-127716790D01*
X140513391Y-127546305D01*
X140513391Y-127373695D01*
X140540393Y-127203210D01*
X140593733Y-127039048D01*
X140672096Y-126885252D01*
X140773553Y-126745607D01*
X140895607Y-126623553D01*
X141035252Y-126522096D01*
X141189048Y-126443733D01*
X141353210Y-126390393D01*
X141523695Y-126363391D01*
X141696305Y-126363391D01*
X141866790Y-126390393D01*
G37*
G36*
X114907228Y-124854448D02*
G01*
X115052117Y-124914463D01*
X115182515Y-125001592D01*
X115293408Y-125112485D01*
X115380537Y-125242883D01*
X115440552Y-125387772D01*
X115471148Y-125541586D01*
X115471148Y-125698414D01*
X115440552Y-125852228D01*
X115380537Y-125997117D01*
X115293408Y-126127515D01*
X115182515Y-126238408D01*
X115052117Y-126325537D01*
X114907228Y-126385552D01*
X114753414Y-126416148D01*
X114596586Y-126416148D01*
X114442772Y-126385552D01*
X114297883Y-126325537D01*
X114167485Y-126238408D01*
X114056592Y-126127515D01*
X113969463Y-125997117D01*
X113909448Y-125852228D01*
X113878852Y-125698414D01*
X113878852Y-125541586D01*
X113909448Y-125387772D01*
X113969463Y-125242883D01*
X114056592Y-125112485D01*
X114167485Y-125001592D01*
X114297883Y-124914463D01*
X114442772Y-124854448D01*
X114596586Y-124823852D01*
X114753414Y-124823852D01*
X114907228Y-124854448D01*
G37*
G36*
X132687228Y-124854448D02*
G01*
X132832117Y-124914463D01*
X132962515Y-125001592D01*
X133073408Y-125112485D01*
X133160537Y-125242883D01*
X133220552Y-125387772D01*
X133251148Y-125541586D01*
X133251148Y-125698414D01*
X133220552Y-125852228D01*
X133160537Y-125997117D01*
X133073408Y-126127515D01*
X132962515Y-126238408D01*
X132832117Y-126325537D01*
X132687228Y-126385552D01*
X132533414Y-126416148D01*
X132376586Y-126416148D01*
X132222772Y-126385552D01*
X132077883Y-126325537D01*
X131947485Y-126238408D01*
X131836592Y-126127515D01*
X131749463Y-125997117D01*
X131689448Y-125852228D01*
X131658852Y-125698414D01*
X131658852Y-125541586D01*
X131689448Y-125387772D01*
X131749463Y-125242883D01*
X131836592Y-125112485D01*
X131947485Y-125001592D01*
X132077883Y-124914463D01*
X132222772Y-124854448D01*
X132376586Y-124823852D01*
X132533414Y-124823852D01*
X132687228Y-124854448D01*
G37*
G36*
X148216790Y-123850393D02*
G01*
X148380952Y-123903733D01*
X148534748Y-123982096D01*
X148674393Y-124083553D01*
X148796447Y-124205607D01*
X148897904Y-124345252D01*
X148976267Y-124499048D01*
X149029607Y-124663210D01*
X149056609Y-124833695D01*
X149056609Y-125006305D01*
X149029607Y-125176790D01*
X148976267Y-125340952D01*
X148897904Y-125494748D01*
X148796447Y-125634393D01*
X148674393Y-125756447D01*
X148534748Y-125857904D01*
X148380952Y-125936267D01*
X148216790Y-125989607D01*
X148046305Y-126016609D01*
X147873695Y-126016609D01*
X147703210Y-125989607D01*
X147539048Y-125936267D01*
X147385252Y-125857904D01*
X147245607Y-125756447D01*
X147123553Y-125634393D01*
X147022096Y-125494748D01*
X146943733Y-125340952D01*
X146890393Y-125176790D01*
X146863391Y-125006305D01*
X146863391Y-124833695D01*
X146890393Y-124663210D01*
X146943733Y-124499048D01*
X147022096Y-124345252D01*
X147123553Y-124205607D01*
X147245607Y-124083553D01*
X147385252Y-123982096D01*
X147539048Y-123903733D01*
X147703210Y-123850393D01*
X147873695Y-123823391D01*
X148046305Y-123823391D01*
X148216790Y-123850393D01*
G37*
G36*
X114907228Y-122314448D02*
G01*
X115052117Y-122374463D01*
X115182515Y-122461592D01*
X115293408Y-122572485D01*
X115380537Y-122702883D01*
X115440552Y-122847772D01*
X115471148Y-123001586D01*
X115471148Y-123158414D01*
X115440552Y-123312228D01*
X115380537Y-123457117D01*
X115293408Y-123587515D01*
X115182515Y-123698408D01*
X115052117Y-123785537D01*
X114907228Y-123845552D01*
X114753414Y-123876148D01*
X114596586Y-123876148D01*
X114442772Y-123845552D01*
X114297883Y-123785537D01*
X114167485Y-123698408D01*
X114056592Y-123587515D01*
X113969463Y-123457117D01*
X113909448Y-123312228D01*
X113878852Y-123158414D01*
X113878852Y-123001586D01*
X113909448Y-122847772D01*
X113969463Y-122702883D01*
X114056592Y-122572485D01*
X114167485Y-122461592D01*
X114297883Y-122374463D01*
X114442772Y-122314448D01*
X114596586Y-122283852D01*
X114753414Y-122283852D01*
X114907228Y-122314448D01*
G37*
G36*
X132687228Y-122314448D02*
G01*
X132832117Y-122374463D01*
X132962515Y-122461592D01*
X133073408Y-122572485D01*
X133160537Y-122702883D01*
X133220552Y-122847772D01*
X133251148Y-123001586D01*
X133251148Y-123158414D01*
X133220552Y-123312228D01*
X133160537Y-123457117D01*
X133073408Y-123587515D01*
X132962515Y-123698408D01*
X132832117Y-123785537D01*
X132687228Y-123845552D01*
X132533414Y-123876148D01*
X132376586Y-123876148D01*
X132222772Y-123845552D01*
X132077883Y-123785537D01*
X131947485Y-123698408D01*
X131836592Y-123587515D01*
X131749463Y-123457117D01*
X131689448Y-123312228D01*
X131658852Y-123158414D01*
X131658852Y-123001586D01*
X131689448Y-122847772D01*
X131749463Y-122702883D01*
X131836592Y-122572485D01*
X131947485Y-122461592D01*
X132077883Y-122374463D01*
X132222772Y-122314448D01*
X132376586Y-122283852D01*
X132533414Y-122283852D01*
X132687228Y-122314448D01*
G37*
G36*
X114907228Y-119774448D02*
G01*
X115052117Y-119834463D01*
X115182515Y-119921592D01*
X115293408Y-120032485D01*
X115380537Y-120162883D01*
X115440552Y-120307772D01*
X115471148Y-120461586D01*
X115471148Y-120618414D01*
X115440552Y-120772228D01*
X115380537Y-120917117D01*
X115293408Y-121047515D01*
X115182515Y-121158408D01*
X115052117Y-121245537D01*
X114907228Y-121305552D01*
X114753414Y-121336148D01*
X114596586Y-121336148D01*
X114442772Y-121305552D01*
X114297883Y-121245537D01*
X114167485Y-121158408D01*
X114056592Y-121047515D01*
X113969463Y-120917117D01*
X113909448Y-120772228D01*
X113878852Y-120618414D01*
X113878852Y-120461586D01*
X113909448Y-120307772D01*
X113969463Y-120162883D01*
X114056592Y-120032485D01*
X114167485Y-119921592D01*
X114297883Y-119834463D01*
X114442772Y-119774448D01*
X114596586Y-119743852D01*
X114753414Y-119743852D01*
X114907228Y-119774448D01*
G37*
G36*
X132687228Y-119774448D02*
G01*
X132832117Y-119834463D01*
X132962515Y-119921592D01*
X133073408Y-120032485D01*
X133160537Y-120162883D01*
X133220552Y-120307772D01*
X133251148Y-120461586D01*
X133251148Y-120618414D01*
X133220552Y-120772228D01*
X133160537Y-120917117D01*
X133073408Y-121047515D01*
X132962515Y-121158408D01*
X132832117Y-121245537D01*
X132687228Y-121305552D01*
X132533414Y-121336148D01*
X132376586Y-121336148D01*
X132222772Y-121305552D01*
X132077883Y-121245537D01*
X131947485Y-121158408D01*
X131836592Y-121047515D01*
X131749463Y-120917117D01*
X131689448Y-120772228D01*
X131658852Y-120618414D01*
X131658852Y-120461586D01*
X131689448Y-120307772D01*
X131749463Y-120162883D01*
X131836592Y-120032485D01*
X131947485Y-119921592D01*
X132077883Y-119834463D01*
X132222772Y-119774448D01*
X132376586Y-119743852D01*
X132533414Y-119743852D01*
X132687228Y-119774448D01*
G37*
G36*
X115278536Y-117196464D02*
G01*
X115280915Y-117198843D01*
X115308108Y-117198843D01*
X115314018Y-117198843D01*
X115315931Y-117199224D01*
X115321385Y-117201483D01*
X115321389Y-117201484D01*
X115382569Y-117226826D01*
X115388027Y-117229087D01*
X115389650Y-117230170D01*
X115444830Y-117285350D01*
X115445913Y-117286973D01*
X115475776Y-117359069D01*
X115476157Y-117360982D01*
X115476157Y-117394085D01*
X115478536Y-117396464D01*
X115480000Y-117400000D01*
X115480000Y-118600000D01*
X115478536Y-118603536D01*
X115476157Y-118605915D01*
X115476157Y-118639018D01*
X115475776Y-118640931D01*
X115445913Y-118713027D01*
X115444830Y-118714650D01*
X115389650Y-118769830D01*
X115388027Y-118770913D01*
X115315931Y-118800776D01*
X115314018Y-118801157D01*
X115280915Y-118801157D01*
X115278536Y-118803536D01*
X115275000Y-118805000D01*
X115263066Y-118805000D01*
X114686935Y-118805000D01*
X114675000Y-118805000D01*
X114671464Y-118803536D01*
X114670475Y-118801148D01*
X114599533Y-118801148D01*
X114596586Y-118801148D01*
X114595611Y-118801052D01*
X114441797Y-118770456D01*
X114440859Y-118770171D01*
X114295970Y-118710156D01*
X114295105Y-118709694D01*
X114200362Y-118646389D01*
X114167159Y-118624204D01*
X114167154Y-118624200D01*
X114164707Y-118622565D01*
X114163949Y-118621944D01*
X114053056Y-118511051D01*
X114052435Y-118510293D01*
X114050800Y-118507846D01*
X114050795Y-118507840D01*
X113966943Y-118382345D01*
X113966942Y-118382344D01*
X113965306Y-118379895D01*
X113964844Y-118379030D01*
X113963720Y-118376317D01*
X113963717Y-118376311D01*
X113905955Y-118236860D01*
X113905954Y-118236857D01*
X113904829Y-118234141D01*
X113904544Y-118233203D01*
X113903970Y-118230318D01*
X113903968Y-118230311D01*
X113874523Y-118082281D01*
X113874522Y-118082278D01*
X113873948Y-118079389D01*
X113873852Y-118078414D01*
X113873852Y-117921586D01*
X113873948Y-117920611D01*
X113874523Y-117917718D01*
X113903968Y-117769688D01*
X113903970Y-117769679D01*
X113904544Y-117766797D01*
X113904829Y-117765859D01*
X113905953Y-117763144D01*
X113905955Y-117763139D01*
X113963717Y-117623688D01*
X113963722Y-117623678D01*
X113964844Y-117620970D01*
X113965306Y-117620105D01*
X113966940Y-117617659D01*
X113966943Y-117617654D01*
X114050795Y-117492159D01*
X114050803Y-117492148D01*
X114052435Y-117489707D01*
X114053056Y-117488949D01*
X114163949Y-117378056D01*
X114164707Y-117377435D01*
X114167148Y-117375803D01*
X114167159Y-117375795D01*
X114292654Y-117291943D01*
X114292659Y-117291940D01*
X114295105Y-117290306D01*
X114295970Y-117289844D01*
X114298678Y-117288722D01*
X114298688Y-117288717D01*
X114438139Y-117230955D01*
X114438144Y-117230953D01*
X114440859Y-117229829D01*
X114441797Y-117229544D01*
X114444679Y-117228970D01*
X114444688Y-117228968D01*
X114592718Y-117199523D01*
X114592722Y-117199522D01*
X114595611Y-117198948D01*
X114596586Y-117198852D01*
X114670475Y-117198852D01*
X114671464Y-117196464D01*
X114675000Y-117195000D01*
X115275000Y-117195000D01*
X115278536Y-117196464D01*
G37*
G36*
X132458536Y-117196464D02*
G01*
X132459525Y-117198852D01*
X132530467Y-117198852D01*
X132533414Y-117198852D01*
X132534389Y-117198948D01*
X132537278Y-117199522D01*
X132537281Y-117199523D01*
X132685311Y-117228968D01*
X132685318Y-117228970D01*
X132688203Y-117229544D01*
X132689141Y-117229829D01*
X132691857Y-117230954D01*
X132691860Y-117230955D01*
X132831311Y-117288717D01*
X132831317Y-117288720D01*
X132834030Y-117289844D01*
X132834895Y-117290306D01*
X132837344Y-117291942D01*
X132837345Y-117291943D01*
X132962840Y-117375795D01*
X132962846Y-117375800D01*
X132965293Y-117377435D01*
X132966051Y-117378056D01*
X133076944Y-117488949D01*
X133077565Y-117489707D01*
X133079200Y-117492154D01*
X133079204Y-117492159D01*
X133136152Y-117577389D01*
X133164694Y-117620105D01*
X133165156Y-117620970D01*
X133225171Y-117765859D01*
X133225456Y-117766797D01*
X133256052Y-117920611D01*
X133256148Y-117921586D01*
X133256148Y-118078414D01*
X133256052Y-118079389D01*
X133225456Y-118233203D01*
X133225171Y-118234141D01*
X133165156Y-118379030D01*
X133164694Y-118379895D01*
X133077565Y-118510293D01*
X133076944Y-118511051D01*
X132966051Y-118621944D01*
X132965293Y-118622565D01*
X132834895Y-118709694D01*
X132834030Y-118710156D01*
X132689141Y-118770171D01*
X132688203Y-118770456D01*
X132534389Y-118801052D01*
X132533414Y-118801148D01*
X132459525Y-118801148D01*
X132458536Y-118803536D01*
X132455000Y-118805000D01*
X132443065Y-118805000D01*
X131866934Y-118805000D01*
X131855000Y-118805000D01*
X131851464Y-118803536D01*
X131849085Y-118801157D01*
X131821892Y-118801157D01*
X131815982Y-118801157D01*
X131814069Y-118800776D01*
X131741973Y-118770913D01*
X131740350Y-118769830D01*
X131685170Y-118714650D01*
X131684087Y-118713027D01*
X131681826Y-118707569D01*
X131656484Y-118646389D01*
X131656483Y-118646385D01*
X131654224Y-118640931D01*
X131653843Y-118639018D01*
X131653843Y-118605915D01*
X131651464Y-118603536D01*
X131650000Y-118600000D01*
X131650000Y-117400000D01*
X131651464Y-117396464D01*
X131653843Y-117394085D01*
X131653843Y-117360982D01*
X131654224Y-117359069D01*
X131656482Y-117353615D01*
X131656484Y-117353610D01*
X131681826Y-117292430D01*
X131681827Y-117292427D01*
X131684087Y-117286973D01*
X131685170Y-117285350D01*
X131740350Y-117230170D01*
X131741973Y-117229087D01*
X131747427Y-117226827D01*
X131747430Y-117226826D01*
X131808610Y-117201484D01*
X131808615Y-117201482D01*
X131814069Y-117199224D01*
X131815982Y-117198843D01*
X131849085Y-117198843D01*
X131851464Y-117196464D01*
X131855000Y-117195000D01*
X132455000Y-117195000D01*
X132458536Y-117196464D01*
G37*
G36*
X114907228Y-114694448D02*
G01*
X115052117Y-114754463D01*
X115182515Y-114841592D01*
X115293408Y-114952485D01*
X115380537Y-115082883D01*
X115440552Y-115227772D01*
X115471148Y-115381586D01*
X115471148Y-115538414D01*
X115440552Y-115692228D01*
X115380537Y-115837117D01*
X115293408Y-115967515D01*
X115182515Y-116078408D01*
X115052117Y-116165537D01*
X114907228Y-116225552D01*
X114753414Y-116256148D01*
X114596586Y-116256148D01*
X114442772Y-116225552D01*
X114297883Y-116165537D01*
X114167485Y-116078408D01*
X114056592Y-115967515D01*
X113969463Y-115837117D01*
X113909448Y-115692228D01*
X113878852Y-115538414D01*
X113878852Y-115381586D01*
X113909448Y-115227772D01*
X113969463Y-115082883D01*
X114056592Y-114952485D01*
X114167485Y-114841592D01*
X114297883Y-114754463D01*
X114442772Y-114694448D01*
X114596586Y-114663852D01*
X114753414Y-114663852D01*
X114907228Y-114694448D01*
G37*
G36*
X132687228Y-114694448D02*
G01*
X132832117Y-114754463D01*
X132962515Y-114841592D01*
X133073408Y-114952485D01*
X133160537Y-115082883D01*
X133220552Y-115227772D01*
X133251148Y-115381586D01*
X133251148Y-115538414D01*
X133220552Y-115692228D01*
X133160537Y-115837117D01*
X133073408Y-115967515D01*
X132962515Y-116078408D01*
X132832117Y-116165537D01*
X132687228Y-116225552D01*
X132533414Y-116256148D01*
X132376586Y-116256148D01*
X132222772Y-116225552D01*
X132077883Y-116165537D01*
X131947485Y-116078408D01*
X131836592Y-115967515D01*
X131749463Y-115837117D01*
X131689448Y-115692228D01*
X131658852Y-115538414D01*
X131658852Y-115381586D01*
X131689448Y-115227772D01*
X131749463Y-115082883D01*
X131836592Y-114952485D01*
X131947485Y-114841592D01*
X132077883Y-114754463D01*
X132222772Y-114694448D01*
X132376586Y-114663852D01*
X132533414Y-114663852D01*
X132687228Y-114694448D01*
G37*
G36*
X114907228Y-112154448D02*
G01*
X115052117Y-112214463D01*
X115182515Y-112301592D01*
X115293408Y-112412485D01*
X115380537Y-112542883D01*
X115440552Y-112687772D01*
X115471148Y-112841586D01*
X115471148Y-112998414D01*
X115440552Y-113152228D01*
X115380537Y-113297117D01*
X115293408Y-113427515D01*
X115182515Y-113538408D01*
X115052117Y-113625537D01*
X114907228Y-113685552D01*
X114753414Y-113716148D01*
X114596586Y-113716148D01*
X114442772Y-113685552D01*
X114297883Y-113625537D01*
X114167485Y-113538408D01*
X114056592Y-113427515D01*
X113969463Y-113297117D01*
X113909448Y-113152228D01*
X113878852Y-112998414D01*
X113878852Y-112841586D01*
X113909448Y-112687772D01*
X113969463Y-112542883D01*
X114056592Y-112412485D01*
X114167485Y-112301592D01*
X114297883Y-112214463D01*
X114442772Y-112154448D01*
X114596586Y-112123852D01*
X114753414Y-112123852D01*
X114907228Y-112154448D01*
G37*
G36*
X132687228Y-112154448D02*
G01*
X132832117Y-112214463D01*
X132962515Y-112301592D01*
X133073408Y-112412485D01*
X133160537Y-112542883D01*
X133220552Y-112687772D01*
X133251148Y-112841586D01*
X133251148Y-112998414D01*
X133220552Y-113152228D01*
X133160537Y-113297117D01*
X133073408Y-113427515D01*
X132962515Y-113538408D01*
X132832117Y-113625537D01*
X132687228Y-113685552D01*
X132533414Y-113716148D01*
X132376586Y-113716148D01*
X132222772Y-113685552D01*
X132077883Y-113625537D01*
X131947485Y-113538408D01*
X131836592Y-113427515D01*
X131749463Y-113297117D01*
X131689448Y-113152228D01*
X131658852Y-112998414D01*
X131658852Y-112841586D01*
X131689448Y-112687772D01*
X131749463Y-112542883D01*
X131836592Y-112412485D01*
X131947485Y-112301592D01*
X132077883Y-112214463D01*
X132222772Y-112154448D01*
X132376586Y-112123852D01*
X132533414Y-112123852D01*
X132687228Y-112154448D01*
G37*
G36*
X145810181Y-109038429D02*
G01*
X146062879Y-109106140D01*
X146304577Y-109206255D01*
X146531140Y-109337061D01*
X146738692Y-109496320D01*
X146923680Y-109681308D01*
X147082939Y-109888860D01*
X147213745Y-110115423D01*
X147313860Y-110357121D01*
X147381571Y-110609819D01*
X147415718Y-110869194D01*
X147415718Y-111130806D01*
X147381571Y-111390181D01*
X147313860Y-111642879D01*
X147213745Y-111884577D01*
X147082939Y-112111140D01*
X146923680Y-112318692D01*
X146738692Y-112503680D01*
X146531140Y-112662939D01*
X146304577Y-112793745D01*
X146062879Y-112893860D01*
X145810181Y-112961571D01*
X145550806Y-112995718D01*
X145289194Y-112995718D01*
X145029819Y-112961571D01*
X144777121Y-112893860D01*
X144535423Y-112793745D01*
X144308860Y-112662939D01*
X144101308Y-112503680D01*
X143916320Y-112318692D01*
X143757061Y-112111140D01*
X143626255Y-111884577D01*
X143526140Y-111642879D01*
X143458429Y-111390181D01*
X143424282Y-111130806D01*
X143424282Y-110869194D01*
X143458429Y-110609819D01*
X143526140Y-110357121D01*
X143626255Y-110115423D01*
X143757061Y-109888860D01*
X143916320Y-109681308D01*
X144101308Y-109496320D01*
X144308860Y-109337061D01*
X144535423Y-109206255D01*
X144777121Y-109106140D01*
X145029819Y-109038429D01*
X145289194Y-109004282D01*
X145550806Y-109004282D01*
X145810181Y-109038429D01*
G37*
G36*
X140586742Y-110186601D02*
G01*
X140740687Y-110250367D01*
X140879234Y-110342941D01*
X140997059Y-110460766D01*
X141089633Y-110599313D01*
X141153399Y-110753258D01*
X141185907Y-110916685D01*
X141185907Y-111083315D01*
X141153399Y-111246742D01*
X141089633Y-111400687D01*
X140997059Y-111539234D01*
X140879234Y-111657059D01*
X140740687Y-111749633D01*
X140586742Y-111813399D01*
X140423315Y-111845907D01*
X140256685Y-111845907D01*
X140093258Y-111813399D01*
X139939313Y-111749633D01*
X139800766Y-111657059D01*
X139682941Y-111539234D01*
X139590367Y-111400687D01*
X139526601Y-111246742D01*
X139494093Y-111083315D01*
X139494093Y-110916685D01*
X139526601Y-110753258D01*
X139590367Y-110599313D01*
X139682941Y-110460766D01*
X139800766Y-110342941D01*
X139939313Y-110250367D01*
X140093258Y-110186601D01*
X140256685Y-110154093D01*
X140423315Y-110154093D01*
X140586742Y-110186601D01*
G37*
G36*
X150746742Y-110186601D02*
G01*
X150900687Y-110250367D01*
X151039234Y-110342941D01*
X151157059Y-110460766D01*
X151249633Y-110599313D01*
X151313399Y-110753258D01*
X151345907Y-110916685D01*
X151345907Y-111083315D01*
X151313399Y-111246742D01*
X151249633Y-111400687D01*
X151157059Y-111539234D01*
X151039234Y-111657059D01*
X150900687Y-111749633D01*
X150746742Y-111813399D01*
X150583315Y-111845907D01*
X150416685Y-111845907D01*
X150253258Y-111813399D01*
X150099313Y-111749633D01*
X149960766Y-111657059D01*
X149842941Y-111539234D01*
X149750367Y-111400687D01*
X149686601Y-111246742D01*
X149654093Y-111083315D01*
X149654093Y-110916685D01*
X149686601Y-110753258D01*
X149750367Y-110599313D01*
X149842941Y-110460766D01*
X149960766Y-110342941D01*
X150099313Y-110250367D01*
X150253258Y-110186601D01*
X150416685Y-110154093D01*
X150583315Y-110154093D01*
X150746742Y-110186601D01*
G37*
G36*
X114907228Y-109614448D02*
G01*
X115052117Y-109674463D01*
X115182515Y-109761592D01*
X115293408Y-109872485D01*
X115380537Y-110002883D01*
X115440552Y-110147772D01*
X115471148Y-110301586D01*
X115471148Y-110458414D01*
X115440552Y-110612228D01*
X115380537Y-110757117D01*
X115293408Y-110887515D01*
X115182515Y-110998408D01*
X115052117Y-111085537D01*
X114907228Y-111145552D01*
X114753414Y-111176148D01*
X114596586Y-111176148D01*
X114442772Y-111145552D01*
X114297883Y-111085537D01*
X114167485Y-110998408D01*
X114056592Y-110887515D01*
X113969463Y-110757117D01*
X113909448Y-110612228D01*
X113878852Y-110458414D01*
X113878852Y-110301586D01*
X113909448Y-110147772D01*
X113969463Y-110002883D01*
X114056592Y-109872485D01*
X114167485Y-109761592D01*
X114297883Y-109674463D01*
X114442772Y-109614448D01*
X114596586Y-109583852D01*
X114753414Y-109583852D01*
X114907228Y-109614448D01*
G37*
G36*
X132687228Y-109614448D02*
G01*
X132832117Y-109674463D01*
X132962515Y-109761592D01*
X133073408Y-109872485D01*
X133160537Y-110002883D01*
X133220552Y-110147772D01*
X133251148Y-110301586D01*
X133251148Y-110458414D01*
X133220552Y-110612228D01*
X133160537Y-110757117D01*
X133073408Y-110887515D01*
X132962515Y-110998408D01*
X132832117Y-111085537D01*
X132687228Y-111145552D01*
X132533414Y-111176148D01*
X132376586Y-111176148D01*
X132222772Y-111145552D01*
X132077883Y-111085537D01*
X131947485Y-110998408D01*
X131836592Y-110887515D01*
X131749463Y-110757117D01*
X131689448Y-110612228D01*
X131658852Y-110458414D01*
X131658852Y-110301586D01*
X131689448Y-110147772D01*
X131749463Y-110002883D01*
X131836592Y-109872485D01*
X131947485Y-109761592D01*
X132077883Y-109674463D01*
X132222772Y-109614448D01*
X132376586Y-109583852D01*
X132533414Y-109583852D01*
X132687228Y-109614448D01*
G37*
G36*
X141866790Y-107390393D02*
G01*
X142030952Y-107443733D01*
X142184748Y-107522096D01*
X142324393Y-107623553D01*
X142446447Y-107745607D01*
X142547904Y-107885252D01*
X142626267Y-108039048D01*
X142679607Y-108203210D01*
X142706609Y-108373695D01*
X142706609Y-108546305D01*
X142679607Y-108716790D01*
X142626267Y-108880952D01*
X142547904Y-109034748D01*
X142446447Y-109174393D01*
X142324393Y-109296447D01*
X142184748Y-109397904D01*
X142030952Y-109476267D01*
X141866790Y-109529607D01*
X141696305Y-109556609D01*
X141523695Y-109556609D01*
X141353210Y-109529607D01*
X141189048Y-109476267D01*
X141035252Y-109397904D01*
X140895607Y-109296447D01*
X140773553Y-109174393D01*
X140672096Y-109034748D01*
X140593733Y-108880952D01*
X140540393Y-108716790D01*
X140513391Y-108546305D01*
X140513391Y-108373695D01*
X140540393Y-108203210D01*
X140593733Y-108039048D01*
X140672096Y-107885252D01*
X140773553Y-107745607D01*
X140895607Y-107623553D01*
X141035252Y-107522096D01*
X141189048Y-107443733D01*
X141353210Y-107390393D01*
X141523695Y-107363391D01*
X141696305Y-107363391D01*
X141866790Y-107390393D01*
G37*
G36*
X114907228Y-107074448D02*
G01*
X115052117Y-107134463D01*
X115182515Y-107221592D01*
X115293408Y-107332485D01*
X115380537Y-107462883D01*
X115440552Y-107607772D01*
X115471148Y-107761586D01*
X115471148Y-107918414D01*
X115440552Y-108072228D01*
X115380537Y-108217117D01*
X115293408Y-108347515D01*
X115182515Y-108458408D01*
X115052117Y-108545537D01*
X114907228Y-108605552D01*
X114753414Y-108636148D01*
X114596586Y-108636148D01*
X114442772Y-108605552D01*
X114297883Y-108545537D01*
X114167485Y-108458408D01*
X114056592Y-108347515D01*
X113969463Y-108217117D01*
X113909448Y-108072228D01*
X113878852Y-107918414D01*
X113878852Y-107761586D01*
X113909448Y-107607772D01*
X113969463Y-107462883D01*
X114056592Y-107332485D01*
X114167485Y-107221592D01*
X114297883Y-107134463D01*
X114442772Y-107074448D01*
X114596586Y-107043852D01*
X114753414Y-107043852D01*
X114907228Y-107074448D01*
G37*
G36*
X132687228Y-107074448D02*
G01*
X132832117Y-107134463D01*
X132962515Y-107221592D01*
X133073408Y-107332485D01*
X133160537Y-107462883D01*
X133220552Y-107607772D01*
X133251148Y-107761586D01*
X133251148Y-107918414D01*
X133220552Y-108072228D01*
X133160537Y-108217117D01*
X133073408Y-108347515D01*
X132962515Y-108458408D01*
X132832117Y-108545537D01*
X132687228Y-108605552D01*
X132533414Y-108636148D01*
X132376586Y-108636148D01*
X132222772Y-108605552D01*
X132077883Y-108545537D01*
X131947485Y-108458408D01*
X131836592Y-108347515D01*
X131749463Y-108217117D01*
X131689448Y-108072228D01*
X131658852Y-107918414D01*
X131658852Y-107761586D01*
X131689448Y-107607772D01*
X131749463Y-107462883D01*
X131836592Y-107332485D01*
X131947485Y-107221592D01*
X132077883Y-107134463D01*
X132222772Y-107074448D01*
X132376586Y-107043852D01*
X132533414Y-107043852D01*
X132687228Y-107074448D01*
G37*
G36*
X148216790Y-104850393D02*
G01*
X148380952Y-104903733D01*
X148534748Y-104982096D01*
X148674393Y-105083553D01*
X148796447Y-105205607D01*
X148897904Y-105345252D01*
X148976267Y-105499048D01*
X149029607Y-105663210D01*
X149056609Y-105833695D01*
X149056609Y-106006305D01*
X149029607Y-106176790D01*
X148976267Y-106340952D01*
X148897904Y-106494748D01*
X148796447Y-106634393D01*
X148674393Y-106756447D01*
X148534748Y-106857904D01*
X148380952Y-106936267D01*
X148216790Y-106989607D01*
X148046305Y-107016609D01*
X147873695Y-107016609D01*
X147703210Y-106989607D01*
X147539048Y-106936267D01*
X147385252Y-106857904D01*
X147245607Y-106756447D01*
X147123553Y-106634393D01*
X147022096Y-106494748D01*
X146943733Y-106340952D01*
X146890393Y-106176790D01*
X146863391Y-106006305D01*
X146863391Y-105833695D01*
X146890393Y-105663210D01*
X146943733Y-105499048D01*
X147022096Y-105345252D01*
X147123553Y-105205607D01*
X147245607Y-105083553D01*
X147385252Y-104982096D01*
X147539048Y-104903733D01*
X147703210Y-104850393D01*
X147873695Y-104823391D01*
X148046305Y-104823391D01*
X148216790Y-104850393D01*
G37*
G36*
X115278536Y-104496464D02*
G01*
X115280915Y-104498843D01*
X115308108Y-104498843D01*
X115314018Y-104498843D01*
X115315931Y-104499224D01*
X115321385Y-104501483D01*
X115321389Y-104501484D01*
X115382569Y-104526826D01*
X115388027Y-104529087D01*
X115389650Y-104530170D01*
X115444830Y-104585350D01*
X115445913Y-104586973D01*
X115475776Y-104659069D01*
X115476157Y-104660982D01*
X115476157Y-104694085D01*
X115478536Y-104696464D01*
X115480000Y-104700000D01*
X115480000Y-105900000D01*
X115478536Y-105903536D01*
X115476157Y-105905915D01*
X115476157Y-105939018D01*
X115475776Y-105940931D01*
X115445913Y-106013027D01*
X115444830Y-106014650D01*
X115389650Y-106069830D01*
X115388027Y-106070913D01*
X115315931Y-106100776D01*
X115314018Y-106101157D01*
X115280915Y-106101157D01*
X115278536Y-106103536D01*
X115275000Y-106105000D01*
X115263066Y-106105000D01*
X114686935Y-106105000D01*
X114675000Y-106105000D01*
X114671464Y-106103536D01*
X114670475Y-106101148D01*
X114599533Y-106101148D01*
X114596586Y-106101148D01*
X114595611Y-106101052D01*
X114441797Y-106070456D01*
X114440859Y-106070171D01*
X114295970Y-106010156D01*
X114295105Y-106009694D01*
X114200362Y-105946389D01*
X114167159Y-105924204D01*
X114167154Y-105924200D01*
X114164707Y-105922565D01*
X114163949Y-105921944D01*
X114053056Y-105811051D01*
X114052435Y-105810293D01*
X114050800Y-105807846D01*
X114050795Y-105807840D01*
X113966943Y-105682345D01*
X113966942Y-105682344D01*
X113965306Y-105679895D01*
X113964844Y-105679030D01*
X113963720Y-105676317D01*
X113963717Y-105676311D01*
X113905955Y-105536860D01*
X113905954Y-105536857D01*
X113904829Y-105534141D01*
X113904544Y-105533203D01*
X113903970Y-105530318D01*
X113903968Y-105530311D01*
X113874523Y-105382281D01*
X113874522Y-105382278D01*
X113873948Y-105379389D01*
X113873852Y-105378414D01*
X113873852Y-105221586D01*
X113873948Y-105220611D01*
X113876908Y-105205729D01*
X113903968Y-105069688D01*
X113903970Y-105069679D01*
X113904544Y-105066797D01*
X113904829Y-105065859D01*
X113905953Y-105063144D01*
X113905955Y-105063139D01*
X113963717Y-104923688D01*
X113963722Y-104923678D01*
X113964844Y-104920970D01*
X113965306Y-104920105D01*
X113966940Y-104917659D01*
X113966943Y-104917654D01*
X114050795Y-104792159D01*
X114050803Y-104792148D01*
X114052435Y-104789707D01*
X114053056Y-104788949D01*
X114163949Y-104678056D01*
X114164707Y-104677435D01*
X114167148Y-104675803D01*
X114167159Y-104675795D01*
X114292654Y-104591943D01*
X114292659Y-104591940D01*
X114295105Y-104590306D01*
X114295970Y-104589844D01*
X114298678Y-104588722D01*
X114298688Y-104588717D01*
X114438139Y-104530955D01*
X114438144Y-104530953D01*
X114440859Y-104529829D01*
X114441797Y-104529544D01*
X114444679Y-104528970D01*
X114444688Y-104528968D01*
X114592718Y-104499523D01*
X114592722Y-104499522D01*
X114595611Y-104498948D01*
X114596586Y-104498852D01*
X114670475Y-104498852D01*
X114671464Y-104496464D01*
X114675000Y-104495000D01*
X115275000Y-104495000D01*
X115278536Y-104496464D01*
G37*
G36*
X132458536Y-104496464D02*
G01*
X132459525Y-104498852D01*
X132530467Y-104498852D01*
X132533414Y-104498852D01*
X132534389Y-104498948D01*
X132537278Y-104499522D01*
X132537281Y-104499523D01*
X132685311Y-104528968D01*
X132685318Y-104528970D01*
X132688203Y-104529544D01*
X132689141Y-104529829D01*
X132691857Y-104530954D01*
X132691860Y-104530955D01*
X132831311Y-104588717D01*
X132831317Y-104588720D01*
X132834030Y-104589844D01*
X132834895Y-104590306D01*
X132837344Y-104591942D01*
X132837345Y-104591943D01*
X132962840Y-104675795D01*
X132962846Y-104675800D01*
X132965293Y-104677435D01*
X132966051Y-104678056D01*
X133076944Y-104788949D01*
X133077565Y-104789707D01*
X133079200Y-104792154D01*
X133079204Y-104792159D01*
X133100072Y-104823391D01*
X133164694Y-104920105D01*
X133165156Y-104920970D01*
X133225171Y-105065859D01*
X133225456Y-105066797D01*
X133256052Y-105220611D01*
X133256148Y-105221586D01*
X133256148Y-105378414D01*
X133256052Y-105379389D01*
X133225456Y-105533203D01*
X133225171Y-105534141D01*
X133165156Y-105679030D01*
X133164694Y-105679895D01*
X133077565Y-105810293D01*
X133076944Y-105811051D01*
X132966051Y-105921944D01*
X132965293Y-105922565D01*
X132834895Y-106009694D01*
X132834030Y-106010156D01*
X132689141Y-106070171D01*
X132688203Y-106070456D01*
X132534389Y-106101052D01*
X132533414Y-106101148D01*
X132459525Y-106101148D01*
X132458536Y-106103536D01*
X132455000Y-106105000D01*
X132443065Y-106105000D01*
X131866934Y-106105000D01*
X131855000Y-106105000D01*
X131851464Y-106103536D01*
X131849085Y-106101157D01*
X131821892Y-106101157D01*
X131815982Y-106101157D01*
X131814069Y-106100776D01*
X131741973Y-106070913D01*
X131740350Y-106069830D01*
X131685170Y-106014650D01*
X131684087Y-106013027D01*
X131681826Y-106007569D01*
X131656484Y-105946389D01*
X131656483Y-105946385D01*
X131654224Y-105940931D01*
X131653843Y-105939018D01*
X131653843Y-105905915D01*
X131651464Y-105903536D01*
X131650000Y-105900000D01*
X131650000Y-104700000D01*
X131651464Y-104696464D01*
X131653843Y-104694085D01*
X131653843Y-104660982D01*
X131654224Y-104659069D01*
X131656482Y-104653615D01*
X131656484Y-104653610D01*
X131681826Y-104592430D01*
X131681827Y-104592427D01*
X131684087Y-104586973D01*
X131685170Y-104585350D01*
X131740350Y-104530170D01*
X131741973Y-104529087D01*
X131747427Y-104526827D01*
X131747430Y-104526826D01*
X131808610Y-104501484D01*
X131808615Y-104501482D01*
X131814069Y-104499224D01*
X131815982Y-104498843D01*
X131849085Y-104498843D01*
X131851464Y-104496464D01*
X131855000Y-104495000D01*
X132455000Y-104495000D01*
X132458536Y-104496464D01*
G37*
G36*
X114907228Y-101994448D02*
G01*
X115052117Y-102054463D01*
X115182515Y-102141592D01*
X115293408Y-102252485D01*
X115380537Y-102382883D01*
X115440552Y-102527772D01*
X115471148Y-102681586D01*
X115471148Y-102838414D01*
X115440552Y-102992228D01*
X115380537Y-103137117D01*
X115293408Y-103267515D01*
X115182515Y-103378408D01*
X115052117Y-103465537D01*
X114907228Y-103525552D01*
X114753414Y-103556148D01*
X114596586Y-103556148D01*
X114442772Y-103525552D01*
X114297883Y-103465537D01*
X114167485Y-103378408D01*
X114056592Y-103267515D01*
X113969463Y-103137117D01*
X113909448Y-102992228D01*
X113878852Y-102838414D01*
X113878852Y-102681586D01*
X113909448Y-102527772D01*
X113969463Y-102382883D01*
X114056592Y-102252485D01*
X114167485Y-102141592D01*
X114297883Y-102054463D01*
X114442772Y-101994448D01*
X114596586Y-101963852D01*
X114753414Y-101963852D01*
X114907228Y-101994448D01*
G37*
G36*
X132687228Y-101994448D02*
G01*
X132832117Y-102054463D01*
X132962515Y-102141592D01*
X133073408Y-102252485D01*
X133160537Y-102382883D01*
X133220552Y-102527772D01*
X133251148Y-102681586D01*
X133251148Y-102838414D01*
X133220552Y-102992228D01*
X133160537Y-103137117D01*
X133073408Y-103267515D01*
X132962515Y-103378408D01*
X132832117Y-103465537D01*
X132687228Y-103525552D01*
X132533414Y-103556148D01*
X132376586Y-103556148D01*
X132222772Y-103525552D01*
X132077883Y-103465537D01*
X131947485Y-103378408D01*
X131836592Y-103267515D01*
X131749463Y-103137117D01*
X131689448Y-102992228D01*
X131658852Y-102838414D01*
X131658852Y-102681586D01*
X131689448Y-102527772D01*
X131749463Y-102382883D01*
X131836592Y-102252485D01*
X131947485Y-102141592D01*
X132077883Y-102054463D01*
X132222772Y-101994448D01*
X132376586Y-101963852D01*
X132533414Y-101963852D01*
X132687228Y-101994448D01*
G37*
G36*
X114907228Y-99454448D02*
G01*
X115052117Y-99514463D01*
X115182515Y-99601592D01*
X115293408Y-99712485D01*
X115380537Y-99842883D01*
X115440552Y-99987772D01*
X115471148Y-100141586D01*
X115471148Y-100298414D01*
X115440552Y-100452228D01*
X115380537Y-100597117D01*
X115293408Y-100727515D01*
X115182515Y-100838408D01*
X115052117Y-100925537D01*
X114907228Y-100985552D01*
X114753414Y-101016148D01*
X114596586Y-101016148D01*
X114442772Y-100985552D01*
X114297883Y-100925537D01*
X114167485Y-100838408D01*
X114056592Y-100727515D01*
X113969463Y-100597117D01*
X113909448Y-100452228D01*
X113878852Y-100298414D01*
X113878852Y-100141586D01*
X113909448Y-99987772D01*
X113969463Y-99842883D01*
X114056592Y-99712485D01*
X114167485Y-99601592D01*
X114297883Y-99514463D01*
X114442772Y-99454448D01*
X114596586Y-99423852D01*
X114753414Y-99423852D01*
X114907228Y-99454448D01*
G37*
G36*
X132687228Y-99454448D02*
G01*
X132832117Y-99514463D01*
X132962515Y-99601592D01*
X133073408Y-99712485D01*
X133160537Y-99842883D01*
X133220552Y-99987772D01*
X133251148Y-100141586D01*
X133251148Y-100298414D01*
X133220552Y-100452228D01*
X133160537Y-100597117D01*
X133073408Y-100727515D01*
X132962515Y-100838408D01*
X132832117Y-100925537D01*
X132687228Y-100985552D01*
X132533414Y-101016148D01*
X132376586Y-101016148D01*
X132222772Y-100985552D01*
X132077883Y-100925537D01*
X131947485Y-100838408D01*
X131836592Y-100727515D01*
X131749463Y-100597117D01*
X131689448Y-100452228D01*
X131658852Y-100298414D01*
X131658852Y-100141586D01*
X131689448Y-99987772D01*
X131749463Y-99842883D01*
X131836592Y-99712485D01*
X131947485Y-99601592D01*
X132077883Y-99514463D01*
X132222772Y-99454448D01*
X132376586Y-99423852D01*
X132533414Y-99423852D01*
X132687228Y-99454448D01*
G37*
G36*
X114907228Y-96914448D02*
G01*
X115052117Y-96974463D01*
X115182515Y-97061592D01*
X115293408Y-97172485D01*
X115380537Y-97302883D01*
X115440552Y-97447772D01*
X115471148Y-97601586D01*
X115471148Y-97758414D01*
X115440552Y-97912228D01*
X115380537Y-98057117D01*
X115293408Y-98187515D01*
X115182515Y-98298408D01*
X115052117Y-98385537D01*
X114907228Y-98445552D01*
X114753414Y-98476148D01*
X114596586Y-98476148D01*
X114442772Y-98445552D01*
X114297883Y-98385537D01*
X114167485Y-98298408D01*
X114056592Y-98187515D01*
X113969463Y-98057117D01*
X113909448Y-97912228D01*
X113878852Y-97758414D01*
X113878852Y-97601586D01*
X113909448Y-97447772D01*
X113969463Y-97302883D01*
X114056592Y-97172485D01*
X114167485Y-97061592D01*
X114297883Y-96974463D01*
X114442772Y-96914448D01*
X114596586Y-96883852D01*
X114753414Y-96883852D01*
X114907228Y-96914448D01*
G37*
G36*
X132687228Y-96914448D02*
G01*
X132832117Y-96974463D01*
X132962515Y-97061592D01*
X133073408Y-97172485D01*
X133160537Y-97302883D01*
X133220552Y-97447772D01*
X133251148Y-97601586D01*
X133251148Y-97758414D01*
X133220552Y-97912228D01*
X133160537Y-98057117D01*
X133073408Y-98187515D01*
X132962515Y-98298408D01*
X132832117Y-98385537D01*
X132687228Y-98445552D01*
X132533414Y-98476148D01*
X132376586Y-98476148D01*
X132222772Y-98445552D01*
X132077883Y-98385537D01*
X131947485Y-98298408D01*
X131836592Y-98187515D01*
X131749463Y-98057117D01*
X131689448Y-97912228D01*
X131658852Y-97758414D01*
X131658852Y-97601586D01*
X131689448Y-97447772D01*
X131749463Y-97302883D01*
X131836592Y-97172485D01*
X131947485Y-97061592D01*
X132077883Y-96974463D01*
X132222772Y-96914448D01*
X132376586Y-96883852D01*
X132533414Y-96883852D01*
X132687228Y-96914448D01*
G37*
G36*
X114907228Y-94374448D02*
G01*
X115052117Y-94434463D01*
X115182515Y-94521592D01*
X115293408Y-94632485D01*
X115380537Y-94762883D01*
X115440552Y-94907772D01*
X115471148Y-95061586D01*
X115471148Y-95218414D01*
X115440552Y-95372228D01*
X115380537Y-95517117D01*
X115293408Y-95647515D01*
X115182515Y-95758408D01*
X115052117Y-95845537D01*
X114907228Y-95905552D01*
X114753414Y-95936148D01*
X114596586Y-95936148D01*
X114442772Y-95905552D01*
X114297883Y-95845537D01*
X114167485Y-95758408D01*
X114056592Y-95647515D01*
X113969463Y-95517117D01*
X113909448Y-95372228D01*
X113878852Y-95218414D01*
X113878852Y-95061586D01*
X113909448Y-94907772D01*
X113969463Y-94762883D01*
X114056592Y-94632485D01*
X114167485Y-94521592D01*
X114297883Y-94434463D01*
X114442772Y-94374448D01*
X114596586Y-94343852D01*
X114753414Y-94343852D01*
X114907228Y-94374448D01*
G37*
G36*
X132687228Y-94374448D02*
G01*
X132832117Y-94434463D01*
X132962515Y-94521592D01*
X133073408Y-94632485D01*
X133160537Y-94762883D01*
X133220552Y-94907772D01*
X133251148Y-95061586D01*
X133251148Y-95218414D01*
X133220552Y-95372228D01*
X133160537Y-95517117D01*
X133073408Y-95647515D01*
X132962515Y-95758408D01*
X132832117Y-95845537D01*
X132687228Y-95905552D01*
X132533414Y-95936148D01*
X132376586Y-95936148D01*
X132222772Y-95905552D01*
X132077883Y-95845537D01*
X131947485Y-95758408D01*
X131836592Y-95647515D01*
X131749463Y-95517117D01*
X131689448Y-95372228D01*
X131658852Y-95218414D01*
X131658852Y-95061586D01*
X131689448Y-94907772D01*
X131749463Y-94762883D01*
X131836592Y-94632485D01*
X131947485Y-94521592D01*
X132077883Y-94434463D01*
X132222772Y-94374448D01*
X132376586Y-94343852D01*
X132533414Y-94343852D01*
X132687228Y-94374448D01*
G37*
G36*
X145810181Y-90038429D02*
G01*
X146062879Y-90106140D01*
X146304577Y-90206255D01*
X146531140Y-90337061D01*
X146738692Y-90496320D01*
X146923680Y-90681308D01*
X147082939Y-90888860D01*
X147213745Y-91115423D01*
X147313860Y-91357121D01*
X147381571Y-91609819D01*
X147415718Y-91869194D01*
X147415718Y-92130806D01*
X147381571Y-92390181D01*
X147313860Y-92642879D01*
X147213745Y-92884577D01*
X147082939Y-93111140D01*
X146923680Y-93318692D01*
X146738692Y-93503680D01*
X146531140Y-93662939D01*
X146304577Y-93793745D01*
X146062879Y-93893860D01*
X145810181Y-93961571D01*
X145550806Y-93995718D01*
X145289194Y-93995718D01*
X145029819Y-93961571D01*
X144777121Y-93893860D01*
X144535423Y-93793745D01*
X144308860Y-93662939D01*
X144101308Y-93503680D01*
X143916320Y-93318692D01*
X143757061Y-93111140D01*
X143626255Y-92884577D01*
X143526140Y-92642879D01*
X143458429Y-92390181D01*
X143424282Y-92130806D01*
X143424282Y-91869194D01*
X143458429Y-91609819D01*
X143526140Y-91357121D01*
X143626255Y-91115423D01*
X143757061Y-90888860D01*
X143916320Y-90681308D01*
X144101308Y-90496320D01*
X144308860Y-90337061D01*
X144535423Y-90206255D01*
X144777121Y-90106140D01*
X145029819Y-90038429D01*
X145289194Y-90004282D01*
X145550806Y-90004282D01*
X145810181Y-90038429D01*
G37*
G36*
X115278536Y-91796464D02*
G01*
X115280915Y-91798843D01*
X115308108Y-91798843D01*
X115314018Y-91798843D01*
X115315931Y-91799224D01*
X115321385Y-91801483D01*
X115321389Y-91801484D01*
X115382569Y-91826826D01*
X115388027Y-91829087D01*
X115389650Y-91830170D01*
X115444830Y-91885350D01*
X115445913Y-91886973D01*
X115475776Y-91959069D01*
X115476157Y-91960982D01*
X115476157Y-91994085D01*
X115478536Y-91996464D01*
X115480000Y-92000000D01*
X115480000Y-93200000D01*
X115478536Y-93203536D01*
X115476157Y-93205915D01*
X115476157Y-93239018D01*
X115475776Y-93240931D01*
X115445913Y-93313027D01*
X115444830Y-93314650D01*
X115389650Y-93369830D01*
X115388027Y-93370913D01*
X115315931Y-93400776D01*
X115314018Y-93401157D01*
X115280915Y-93401157D01*
X115278536Y-93403536D01*
X115275000Y-93405000D01*
X115263066Y-93405000D01*
X114686935Y-93405000D01*
X114675000Y-93405000D01*
X114671464Y-93403536D01*
X114670475Y-93401148D01*
X114599533Y-93401148D01*
X114596586Y-93401148D01*
X114595611Y-93401052D01*
X114441797Y-93370456D01*
X114440859Y-93370171D01*
X114316899Y-93318825D01*
X114298688Y-93311282D01*
X114298686Y-93311281D01*
X114295970Y-93310156D01*
X114295105Y-93309694D01*
X114200362Y-93246389D01*
X114167159Y-93224204D01*
X114167154Y-93224200D01*
X114164707Y-93222565D01*
X114163949Y-93221944D01*
X114053056Y-93111051D01*
X114052435Y-93110293D01*
X114050800Y-93107846D01*
X114050795Y-93107840D01*
X113966943Y-92982345D01*
X113966942Y-92982344D01*
X113965306Y-92979895D01*
X113964844Y-92979030D01*
X113963720Y-92976317D01*
X113963717Y-92976311D01*
X113905955Y-92836860D01*
X113905954Y-92836857D01*
X113904829Y-92834141D01*
X113904544Y-92833203D01*
X113903970Y-92830318D01*
X113903968Y-92830311D01*
X113874523Y-92682281D01*
X113874522Y-92682278D01*
X113873948Y-92679389D01*
X113873852Y-92678414D01*
X113873852Y-92521586D01*
X113873948Y-92520611D01*
X113874523Y-92517718D01*
X113903968Y-92369688D01*
X113903970Y-92369679D01*
X113904544Y-92366797D01*
X113904829Y-92365859D01*
X113905953Y-92363144D01*
X113905955Y-92363139D01*
X113963717Y-92223688D01*
X113963722Y-92223678D01*
X113964844Y-92220970D01*
X113965306Y-92220105D01*
X113966940Y-92217659D01*
X113966943Y-92217654D01*
X114050795Y-92092159D01*
X114050803Y-92092148D01*
X114052435Y-92089707D01*
X114053056Y-92088949D01*
X114163949Y-91978056D01*
X114164707Y-91977435D01*
X114167148Y-91975803D01*
X114167159Y-91975795D01*
X114292654Y-91891943D01*
X114292659Y-91891940D01*
X114295105Y-91890306D01*
X114295970Y-91889844D01*
X114298678Y-91888722D01*
X114298688Y-91888717D01*
X114438139Y-91830955D01*
X114438144Y-91830953D01*
X114440859Y-91829829D01*
X114441797Y-91829544D01*
X114444679Y-91828970D01*
X114444688Y-91828968D01*
X114592718Y-91799523D01*
X114592722Y-91799522D01*
X114595611Y-91798948D01*
X114596586Y-91798852D01*
X114670475Y-91798852D01*
X114671464Y-91796464D01*
X114675000Y-91795000D01*
X115275000Y-91795000D01*
X115278536Y-91796464D01*
G37*
G36*
X132458536Y-91796464D02*
G01*
X132459525Y-91798852D01*
X132530467Y-91798852D01*
X132533414Y-91798852D01*
X132534389Y-91798948D01*
X132537278Y-91799522D01*
X132537281Y-91799523D01*
X132685311Y-91828968D01*
X132685318Y-91828970D01*
X132688203Y-91829544D01*
X132689141Y-91829829D01*
X132691857Y-91830954D01*
X132691860Y-91830955D01*
X132831311Y-91888717D01*
X132831317Y-91888720D01*
X132834030Y-91889844D01*
X132834895Y-91890306D01*
X132837344Y-91891942D01*
X132837345Y-91891943D01*
X132962840Y-91975795D01*
X132962846Y-91975800D01*
X132965293Y-91977435D01*
X132966051Y-91978056D01*
X133076944Y-92088949D01*
X133077565Y-92089707D01*
X133079200Y-92092154D01*
X133079204Y-92092159D01*
X133136152Y-92177389D01*
X133164694Y-92220105D01*
X133165156Y-92220970D01*
X133225171Y-92365859D01*
X133225456Y-92366797D01*
X133256052Y-92520611D01*
X133256148Y-92521586D01*
X133256148Y-92678414D01*
X133256052Y-92679389D01*
X133225456Y-92833203D01*
X133225171Y-92834141D01*
X133165156Y-92979030D01*
X133164694Y-92979895D01*
X133077565Y-93110293D01*
X133076944Y-93111051D01*
X132966051Y-93221944D01*
X132965293Y-93222565D01*
X132834895Y-93309694D01*
X132834030Y-93310156D01*
X132689141Y-93370171D01*
X132688203Y-93370456D01*
X132534389Y-93401052D01*
X132533414Y-93401148D01*
X132459525Y-93401148D01*
X132458536Y-93403536D01*
X132455000Y-93405000D01*
X132443065Y-93405000D01*
X131866934Y-93405000D01*
X131855000Y-93405000D01*
X131851464Y-93403536D01*
X131849085Y-93401157D01*
X131821892Y-93401157D01*
X131815982Y-93401157D01*
X131814069Y-93400776D01*
X131741973Y-93370913D01*
X131740350Y-93369830D01*
X131685170Y-93314650D01*
X131684087Y-93313027D01*
X131681826Y-93307569D01*
X131656484Y-93246389D01*
X131656483Y-93246385D01*
X131654224Y-93240931D01*
X131653843Y-93239018D01*
X131653843Y-93205915D01*
X131651464Y-93203536D01*
X131650000Y-93200000D01*
X131650000Y-92000000D01*
X131651464Y-91996464D01*
X131653843Y-91994085D01*
X131653843Y-91960982D01*
X131654224Y-91959069D01*
X131656482Y-91953615D01*
X131656484Y-91953610D01*
X131681826Y-91892430D01*
X131681827Y-91892427D01*
X131684087Y-91886973D01*
X131685170Y-91885350D01*
X131740350Y-91830170D01*
X131741973Y-91829087D01*
X131747427Y-91826827D01*
X131747430Y-91826826D01*
X131808610Y-91801484D01*
X131808615Y-91801482D01*
X131814069Y-91799224D01*
X131815982Y-91798843D01*
X131849085Y-91798843D01*
X131851464Y-91796464D01*
X131855000Y-91795000D01*
X132455000Y-91795000D01*
X132458536Y-91796464D01*
G37*
G36*
X140586742Y-91186601D02*
G01*
X140740687Y-91250367D01*
X140879234Y-91342941D01*
X140997059Y-91460766D01*
X141089633Y-91599313D01*
X141153399Y-91753258D01*
X141185907Y-91916685D01*
X141185907Y-92083315D01*
X141153399Y-92246742D01*
X141089633Y-92400687D01*
X140997059Y-92539234D01*
X140879234Y-92657059D01*
X140740687Y-92749633D01*
X140586742Y-92813399D01*
X140423315Y-92845907D01*
X140256685Y-92845907D01*
X140093258Y-92813399D01*
X139939313Y-92749633D01*
X139800766Y-92657059D01*
X139682941Y-92539234D01*
X139590367Y-92400687D01*
X139526601Y-92246742D01*
X139494093Y-92083315D01*
X139494093Y-91916685D01*
X139526601Y-91753258D01*
X139590367Y-91599313D01*
X139682941Y-91460766D01*
X139800766Y-91342941D01*
X139939313Y-91250367D01*
X140093258Y-91186601D01*
X140256685Y-91154093D01*
X140423315Y-91154093D01*
X140586742Y-91186601D01*
G37*
G36*
X150746742Y-91186601D02*
G01*
X150900687Y-91250367D01*
X151039234Y-91342941D01*
X151157059Y-91460766D01*
X151249633Y-91599313D01*
X151313399Y-91753258D01*
X151345907Y-91916685D01*
X151345907Y-92083315D01*
X151313399Y-92246742D01*
X151249633Y-92400687D01*
X151157059Y-92539234D01*
X151039234Y-92657059D01*
X150900687Y-92749633D01*
X150746742Y-92813399D01*
X150583315Y-92845907D01*
X150416685Y-92845907D01*
X150253258Y-92813399D01*
X150099313Y-92749633D01*
X149960766Y-92657059D01*
X149842941Y-92539234D01*
X149750367Y-92400687D01*
X149686601Y-92246742D01*
X149654093Y-92083315D01*
X149654093Y-91916685D01*
X149686601Y-91753258D01*
X149750367Y-91599313D01*
X149842941Y-91460766D01*
X149960766Y-91342941D01*
X150099313Y-91250367D01*
X150253258Y-91186601D01*
X150416685Y-91154093D01*
X150583315Y-91154093D01*
X150746742Y-91186601D01*
G37*
G36*
X121408513Y-89794830D02*
G01*
X121576042Y-89864223D01*
X121726814Y-89964965D01*
X121855035Y-90093186D01*
X121955777Y-90243958D01*
X122025170Y-90411487D01*
X122060546Y-90589334D01*
X122060546Y-90770666D01*
X122025170Y-90948513D01*
X121955777Y-91116042D01*
X121855035Y-91266814D01*
X121726814Y-91395035D01*
X121576042Y-91495777D01*
X121408513Y-91565170D01*
X121230666Y-91600546D01*
X121049334Y-91600546D01*
X120871487Y-91565170D01*
X120703958Y-91495777D01*
X120553186Y-91395035D01*
X120424965Y-91266814D01*
X120324223Y-91116042D01*
X120254830Y-90948513D01*
X120219454Y-90770666D01*
X120219454Y-90589334D01*
X120254830Y-90411487D01*
X120324223Y-90243958D01*
X120424965Y-90093186D01*
X120553186Y-89964965D01*
X120703958Y-89864223D01*
X120871487Y-89794830D01*
X121049334Y-89759454D01*
X121230666Y-89759454D01*
X121408513Y-89794830D01*
G37*
G36*
X126258513Y-89794830D02*
G01*
X126426042Y-89864223D01*
X126576814Y-89964965D01*
X126705035Y-90093186D01*
X126805777Y-90243958D01*
X126875170Y-90411487D01*
X126910546Y-90589334D01*
X126910546Y-90770666D01*
X126875170Y-90948513D01*
X126805777Y-91116042D01*
X126705035Y-91266814D01*
X126576814Y-91395035D01*
X126426042Y-91495777D01*
X126258513Y-91565170D01*
X126080666Y-91600546D01*
X125899334Y-91600546D01*
X125721487Y-91565170D01*
X125553958Y-91495777D01*
X125403186Y-91395035D01*
X125274965Y-91266814D01*
X125174223Y-91116042D01*
X125104830Y-90948513D01*
X125069454Y-90770666D01*
X125069454Y-90589334D01*
X125104830Y-90411487D01*
X125174223Y-90243958D01*
X125274965Y-90093186D01*
X125403186Y-89964965D01*
X125553958Y-89864223D01*
X125721487Y-89794830D01*
X125899334Y-89759454D01*
X126080666Y-89759454D01*
X126258513Y-89794830D01*
G37*
G36*
X114907228Y-89294448D02*
G01*
X115052117Y-89354463D01*
X115182515Y-89441592D01*
X115293408Y-89552485D01*
X115380537Y-89682883D01*
X115440552Y-89827772D01*
X115471148Y-89981586D01*
X115471148Y-90138414D01*
X115440552Y-90292228D01*
X115380537Y-90437117D01*
X115293408Y-90567515D01*
X115182515Y-90678408D01*
X115052117Y-90765537D01*
X114907228Y-90825552D01*
X114753414Y-90856148D01*
X114596586Y-90856148D01*
X114442772Y-90825552D01*
X114297883Y-90765537D01*
X114167485Y-90678408D01*
X114056592Y-90567515D01*
X113969463Y-90437117D01*
X113909448Y-90292228D01*
X113878852Y-90138414D01*
X113878852Y-89981586D01*
X113909448Y-89827772D01*
X113969463Y-89682883D01*
X114056592Y-89552485D01*
X114167485Y-89441592D01*
X114297883Y-89354463D01*
X114442772Y-89294448D01*
X114596586Y-89263852D01*
X114753414Y-89263852D01*
X114907228Y-89294448D01*
G37*
G36*
X132687228Y-89294448D02*
G01*
X132832117Y-89354463D01*
X132962515Y-89441592D01*
X133073408Y-89552485D01*
X133160537Y-89682883D01*
X133220552Y-89827772D01*
X133251148Y-89981586D01*
X133251148Y-90138414D01*
X133220552Y-90292228D01*
X133160537Y-90437117D01*
X133073408Y-90567515D01*
X132962515Y-90678408D01*
X132832117Y-90765537D01*
X132687228Y-90825552D01*
X132533414Y-90856148D01*
X132376586Y-90856148D01*
X132222772Y-90825552D01*
X132077883Y-90765537D01*
X131947485Y-90678408D01*
X131836592Y-90567515D01*
X131749463Y-90437117D01*
X131689448Y-90292228D01*
X131658852Y-90138414D01*
X131658852Y-89981586D01*
X131689448Y-89827772D01*
X131749463Y-89682883D01*
X131836592Y-89552485D01*
X131947485Y-89441592D01*
X132077883Y-89354463D01*
X132222772Y-89294448D01*
X132376586Y-89263852D01*
X132533414Y-89263852D01*
X132687228Y-89294448D01*
G37*
G36*
X141866790Y-88390393D02*
G01*
X142030952Y-88443733D01*
X142184748Y-88522096D01*
X142324393Y-88623553D01*
X142446447Y-88745607D01*
X142547904Y-88885252D01*
X142626267Y-89039048D01*
X142679607Y-89203210D01*
X142706609Y-89373695D01*
X142706609Y-89546305D01*
X142679607Y-89716790D01*
X142626267Y-89880952D01*
X142547904Y-90034748D01*
X142446447Y-90174393D01*
X142324393Y-90296447D01*
X142184748Y-90397904D01*
X142030952Y-90476267D01*
X141866790Y-90529607D01*
X141696305Y-90556609D01*
X141523695Y-90556609D01*
X141353210Y-90529607D01*
X141189048Y-90476267D01*
X141035252Y-90397904D01*
X140895607Y-90296447D01*
X140773553Y-90174393D01*
X140672096Y-90034748D01*
X140593733Y-89880952D01*
X140540393Y-89716790D01*
X140513391Y-89546305D01*
X140513391Y-89373695D01*
X140540393Y-89203210D01*
X140593733Y-89039048D01*
X140672096Y-88885252D01*
X140773553Y-88745607D01*
X140895607Y-88623553D01*
X141035252Y-88522096D01*
X141189048Y-88443733D01*
X141353210Y-88390393D01*
X141523695Y-88363391D01*
X141696305Y-88363391D01*
X141866790Y-88390393D01*
G37*
G36*
X121096790Y-86580393D02*
G01*
X121260952Y-86633733D01*
X121414748Y-86712096D01*
X121554393Y-86813553D01*
X121676447Y-86935607D01*
X121777904Y-87075252D01*
X121856267Y-87229048D01*
X121909607Y-87393210D01*
X121936609Y-87563695D01*
X121936609Y-87736305D01*
X121909607Y-87906790D01*
X121856267Y-88070952D01*
X121777904Y-88224748D01*
X121676447Y-88364393D01*
X121554393Y-88486447D01*
X121414748Y-88587904D01*
X121260952Y-88666267D01*
X121096790Y-88719607D01*
X120926305Y-88746609D01*
X120753695Y-88746609D01*
X120583210Y-88719607D01*
X120419048Y-88666267D01*
X120265252Y-88587904D01*
X120125607Y-88486447D01*
X120003553Y-88364393D01*
X119902096Y-88224748D01*
X119823733Y-88070952D01*
X119770393Y-87906790D01*
X119743391Y-87736305D01*
X119743391Y-87563695D01*
X119770393Y-87393210D01*
X119823733Y-87229048D01*
X119902096Y-87075252D01*
X120003553Y-86935607D01*
X120125607Y-86813553D01*
X120265252Y-86712096D01*
X120419048Y-86633733D01*
X120583210Y-86580393D01*
X120753695Y-86553391D01*
X120926305Y-86553391D01*
X121096790Y-86580393D01*
G37*
G36*
X126546790Y-86580393D02*
G01*
X126710952Y-86633733D01*
X126864748Y-86712096D01*
X127004393Y-86813553D01*
X127126447Y-86935607D01*
X127227904Y-87075252D01*
X127306267Y-87229048D01*
X127359607Y-87393210D01*
X127386609Y-87563695D01*
X127386609Y-87736305D01*
X127359607Y-87906790D01*
X127306267Y-88070952D01*
X127227904Y-88224748D01*
X127126447Y-88364393D01*
X127004393Y-88486447D01*
X126864748Y-88587904D01*
X126710952Y-88666267D01*
X126546790Y-88719607D01*
X126376305Y-88746609D01*
X126203695Y-88746609D01*
X126033210Y-88719607D01*
X125869048Y-88666267D01*
X125715252Y-88587904D01*
X125575607Y-88486447D01*
X125453553Y-88364393D01*
X125352096Y-88224748D01*
X125273733Y-88070952D01*
X125220393Y-87906790D01*
X125193391Y-87736305D01*
X125193391Y-87563695D01*
X125220393Y-87393210D01*
X125273733Y-87229048D01*
X125352096Y-87075252D01*
X125453553Y-86935607D01*
X125575607Y-86813553D01*
X125715252Y-86712096D01*
X125869048Y-86633733D01*
X126033210Y-86580393D01*
X126203695Y-86553391D01*
X126376305Y-86553391D01*
X126546790Y-86580393D01*
G37*
G36*
X115351537Y-86735224D02*
G01*
X115416421Y-86778579D01*
X115459776Y-86843463D01*
X115475000Y-86920000D01*
X115475000Y-88120000D01*
X115459776Y-88196537D01*
X115416421Y-88261421D01*
X115351537Y-88304776D01*
X115275000Y-88320000D01*
X114075000Y-88320000D01*
X113998463Y-88304776D01*
X113933579Y-88261421D01*
X113890224Y-88196537D01*
X113875000Y-88120000D01*
X113875000Y-86920000D01*
X113890224Y-86843463D01*
X113933579Y-86778579D01*
X113998463Y-86735224D01*
X114075000Y-86720000D01*
X115275000Y-86720000D01*
X115351537Y-86735224D01*
G37*
G36*
X132687228Y-86754448D02*
G01*
X132832117Y-86814463D01*
X132962515Y-86901592D01*
X133073408Y-87012485D01*
X133160537Y-87142883D01*
X133220552Y-87287772D01*
X133251148Y-87441586D01*
X133251148Y-87598414D01*
X133220552Y-87752228D01*
X133160537Y-87897117D01*
X133073408Y-88027515D01*
X132962515Y-88138408D01*
X132832117Y-88225537D01*
X132687228Y-88285552D01*
X132533414Y-88316148D01*
X132376586Y-88316148D01*
X132222772Y-88285552D01*
X132077883Y-88225537D01*
X131947485Y-88138408D01*
X131836592Y-88027515D01*
X131749463Y-87897117D01*
X131689448Y-87752228D01*
X131658852Y-87598414D01*
X131658852Y-87441586D01*
X131689448Y-87287772D01*
X131749463Y-87142883D01*
X131836592Y-87012485D01*
X131947485Y-86901592D01*
X132077883Y-86814463D01*
X132222772Y-86754448D01*
X132376586Y-86723852D01*
X132533414Y-86723852D01*
X132687228Y-86754448D01*
G37*
G36*
X148216790Y-85850393D02*
G01*
X148380952Y-85903733D01*
X148534748Y-85982096D01*
X148674393Y-86083553D01*
X148796447Y-86205607D01*
X148897904Y-86345252D01*
X148976267Y-86499048D01*
X149029607Y-86663210D01*
X149056609Y-86833695D01*
X149056609Y-87006305D01*
X149029607Y-87176790D01*
X148976267Y-87340952D01*
X148897904Y-87494748D01*
X148796447Y-87634393D01*
X148674393Y-87756447D01*
X148534748Y-87857904D01*
X148380952Y-87936267D01*
X148216790Y-87989607D01*
X148046305Y-88016609D01*
X147873695Y-88016609D01*
X147703210Y-87989607D01*
X147539048Y-87936267D01*
X147385252Y-87857904D01*
X147245607Y-87756447D01*
X147123553Y-87634393D01*
X147022096Y-87494748D01*
X146943733Y-87340952D01*
X146890393Y-87176790D01*
X146863391Y-87006305D01*
X146863391Y-86833695D01*
X146890393Y-86663210D01*
X146943733Y-86499048D01*
X147022096Y-86345252D01*
X147123553Y-86205607D01*
X147245607Y-86083553D01*
X147385252Y-85982096D01*
X147539048Y-85903733D01*
X147703210Y-85850393D01*
X147873695Y-85823391D01*
X148046305Y-85823391D01*
X148216790Y-85850393D01*
G37*
G36*
X145810181Y-71038429D02*
G01*
X146062879Y-71106140D01*
X146304577Y-71206255D01*
X146531140Y-71337061D01*
X146738692Y-71496320D01*
X146923680Y-71681308D01*
X147082939Y-71888860D01*
X147213745Y-72115423D01*
X147313860Y-72357121D01*
X147381571Y-72609819D01*
X147415718Y-72869194D01*
X147415718Y-73130806D01*
X147381571Y-73390181D01*
X147313860Y-73642879D01*
X147213745Y-73884577D01*
X147082939Y-74111140D01*
X146923680Y-74318692D01*
X146738692Y-74503680D01*
X146531140Y-74662939D01*
X146304577Y-74793745D01*
X146062879Y-74893860D01*
X145810181Y-74961571D01*
X145550806Y-74995718D01*
X145289194Y-74995718D01*
X145029819Y-74961571D01*
X144777121Y-74893860D01*
X144535423Y-74793745D01*
X144308860Y-74662939D01*
X144101308Y-74503680D01*
X143916320Y-74318692D01*
X143757061Y-74111140D01*
X143626255Y-73884577D01*
X143526140Y-73642879D01*
X143458429Y-73390181D01*
X143424282Y-73130806D01*
X143424282Y-72869194D01*
X143458429Y-72609819D01*
X143526140Y-72357121D01*
X143626255Y-72115423D01*
X143757061Y-71888860D01*
X143916320Y-71681308D01*
X144101308Y-71496320D01*
X144308860Y-71337061D01*
X144535423Y-71206255D01*
X144777121Y-71106140D01*
X145029819Y-71038429D01*
X145289194Y-71004282D01*
X145550806Y-71004282D01*
X145810181Y-71038429D01*
G37*
G36*
X140586742Y-72186601D02*
G01*
X140740687Y-72250367D01*
X140879234Y-72342941D01*
X140997059Y-72460766D01*
X141089633Y-72599313D01*
X141153399Y-72753258D01*
X141185907Y-72916685D01*
X141185907Y-73083315D01*
X141153399Y-73246742D01*
X141089633Y-73400687D01*
X140997059Y-73539234D01*
X140879234Y-73657059D01*
X140740687Y-73749633D01*
X140586742Y-73813399D01*
X140423315Y-73845907D01*
X140256685Y-73845907D01*
X140093258Y-73813399D01*
X139939313Y-73749633D01*
X139800766Y-73657059D01*
X139682941Y-73539234D01*
X139590367Y-73400687D01*
X139526601Y-73246742D01*
X139494093Y-73083315D01*
X139494093Y-72916685D01*
X139526601Y-72753258D01*
X139590367Y-72599313D01*
X139682941Y-72460766D01*
X139800766Y-72342941D01*
X139939313Y-72250367D01*
X140093258Y-72186601D01*
X140256685Y-72154093D01*
X140423315Y-72154093D01*
X140586742Y-72186601D01*
G37*
G36*
X150746742Y-72186601D02*
G01*
X150900687Y-72250367D01*
X151039234Y-72342941D01*
X151157059Y-72460766D01*
X151249633Y-72599313D01*
X151313399Y-72753258D01*
X151345907Y-72916685D01*
X151345907Y-73083315D01*
X151313399Y-73246742D01*
X151249633Y-73400687D01*
X151157059Y-73539234D01*
X151039234Y-73657059D01*
X150900687Y-73749633D01*
X150746742Y-73813399D01*
X150583315Y-73845907D01*
X150416685Y-73845907D01*
X150253258Y-73813399D01*
X150099313Y-73749633D01*
X149960766Y-73657059D01*
X149842941Y-73539234D01*
X149750367Y-73400687D01*
X149686601Y-73246742D01*
X149654093Y-73083315D01*
X149654093Y-72916685D01*
X149686601Y-72753258D01*
X149750367Y-72599313D01*
X149842941Y-72460766D01*
X149960766Y-72342941D01*
X150099313Y-72250367D01*
X150253258Y-72186601D01*
X150416685Y-72154093D01*
X150583315Y-72154093D01*
X150746742Y-72186601D01*
G37*
G36*
X141866790Y-69390393D02*
G01*
X142030952Y-69443733D01*
X142184748Y-69522096D01*
X142324393Y-69623553D01*
X142446447Y-69745607D01*
X142547904Y-69885252D01*
X142626267Y-70039048D01*
X142679607Y-70203210D01*
X142706609Y-70373695D01*
X142706609Y-70546305D01*
X142679607Y-70716790D01*
X142626267Y-70880952D01*
X142547904Y-71034748D01*
X142446447Y-71174393D01*
X142324393Y-71296447D01*
X142184748Y-71397904D01*
X142030952Y-71476267D01*
X141866790Y-71529607D01*
X141696305Y-71556609D01*
X141523695Y-71556609D01*
X141353210Y-71529607D01*
X141189048Y-71476267D01*
X141035252Y-71397904D01*
X140895607Y-71296447D01*
X140773553Y-71174393D01*
X140672096Y-71034748D01*
X140593733Y-70880952D01*
X140540393Y-70716790D01*
X140513391Y-70546305D01*
X140513391Y-70373695D01*
X140540393Y-70203210D01*
X140593733Y-70039048D01*
X140672096Y-69885252D01*
X140773553Y-69745607D01*
X140895607Y-69623553D01*
X141035252Y-69522096D01*
X141189048Y-69443733D01*
X141353210Y-69390393D01*
X141523695Y-69363391D01*
X141696305Y-69363391D01*
X141866790Y-69390393D01*
G37*
G36*
X148216790Y-66850393D02*
G01*
X148380952Y-66903733D01*
X148534748Y-66982096D01*
X148674393Y-67083553D01*
X148796447Y-67205607D01*
X148897904Y-67345252D01*
X148976267Y-67499048D01*
X149029607Y-67663210D01*
X149056609Y-67833695D01*
X149056609Y-68006305D01*
X149029607Y-68176790D01*
X148976267Y-68340952D01*
X148897904Y-68494748D01*
X148796447Y-68634393D01*
X148674393Y-68756447D01*
X148534748Y-68857904D01*
X148380952Y-68936267D01*
X148216790Y-68989607D01*
X148046305Y-69016609D01*
X147873695Y-69016609D01*
X147703210Y-68989607D01*
X147539048Y-68936267D01*
X147385252Y-68857904D01*
X147245607Y-68756447D01*
X147123553Y-68634393D01*
X147022096Y-68494748D01*
X146943733Y-68340952D01*
X146890393Y-68176790D01*
X146863391Y-68006305D01*
X146863391Y-67833695D01*
X146890393Y-67663210D01*
X146943733Y-67499048D01*
X147022096Y-67345252D01*
X147123553Y-67205607D01*
X147245607Y-67083553D01*
X147385252Y-66982096D01*
X147539048Y-66903733D01*
X147703210Y-66850393D01*
X147873695Y-66823391D01*
X148046305Y-66823391D01*
X148216790Y-66850393D01*
G37*
M02*
