M48
; DRILL file KiCad 10.0.2 date 2026-05-29T19:20:42
; FORMAT={-:-/ absolute / metric / decimal}
; #@! TF.CreationDate,2026-05-29T19:20:42+05:30
; #@! TF.GenerationSoftware,Kicad,Pcbnew,10.0.2
; #@! TF.FileFunction,Plated,1,4,PTH
FMAT,2
METRIC
; #@! TA.AperFunction,Plated,PTH,ComponentDrill
T1C1.000
; #@! TA.AperFunction,Plated,PTH,ComponentDrill
T2C1.500
%
G90
G05
T1
X114.675Y-87.52
X114.675Y-90.06
X114.675Y-92.6
X114.675Y-95.14
X114.675Y-97.68
X114.675Y-100.22
X114.675Y-102.76
X114.675Y-105.3
X114.675Y-107.84
X114.675Y-110.38
X114.675Y-112.92
X114.675Y-115.46
X114.675Y-118.0
X114.675Y-120.54
X114.675Y-123.08
X114.675Y-125.62
X114.675Y-128.16
X114.675Y-130.7
X114.675Y-133.24
X114.675Y-135.78
X132.455Y-87.52
X132.455Y-90.06
X132.455Y-92.6
X132.455Y-95.14
X132.455Y-97.68
X132.455Y-100.22
X132.455Y-102.76
X132.455Y-105.3
X132.455Y-107.84
X132.455Y-110.38
X132.455Y-112.92
X132.455Y-115.46
X132.455Y-118.0
X132.455Y-120.54
X132.455Y-123.08
X132.455Y-125.62
X132.455Y-128.16
X132.455Y-130.7
X132.455Y-133.24
X132.455Y-135.78
T2
X141.61Y-70.46
X141.61Y-89.46
X141.61Y-108.46
X141.61Y-127.46
X147.96Y-67.92
X147.96Y-86.92
X147.96Y-105.92
X147.96Y-124.92
M30
