%TF.GenerationSoftware,KiCad,Pcbnew,10.0.2*%
%TF.CreationDate,2026-05-29T19:20:37+05:30*%
%TF.ProjectId,PulsePad,50756c73-6550-4616-942e-6b696361645f,rev?*%
%TF.SameCoordinates,Original*%
%TF.FileFunction,Legend,Top*%
%TF.FilePolarity,Positive*%
%FSLAX46Y46*%
G04 Gerber Fmt 4.6, Leading zero omitted, Abs format (unit mm)*
G04 Created by KiCad (PCBNEW 10.0.2) date 2026-05-29 19:20:37*
%MOMM*%
%LPD*%
G01*
G04 APERTURE LIST*
%ADD10C,0.150000*%
%ADD11C,0.120000*%
G04 APERTURE END LIST*
D10*
X144086667Y-103533200D02*
X144229524Y-103580819D01*
X144229524Y-103580819D02*
X144467619Y-103580819D01*
X144467619Y-103580819D02*
X144562857Y-103533200D01*
X144562857Y-103533200D02*
X144610476Y-103485580D01*
X144610476Y-103485580D02*
X144658095Y-103390342D01*
X144658095Y-103390342D02*
X144658095Y-103295104D01*
X144658095Y-103295104D02*
X144610476Y-103199866D01*
X144610476Y-103199866D02*
X144562857Y-103152247D01*
X144562857Y-103152247D02*
X144467619Y-103104628D01*
X144467619Y-103104628D02*
X144277143Y-103057009D01*
X144277143Y-103057009D02*
X144181905Y-103009390D01*
X144181905Y-103009390D02*
X144134286Y-102961771D01*
X144134286Y-102961771D02*
X144086667Y-102866533D01*
X144086667Y-102866533D02*
X144086667Y-102771295D01*
X144086667Y-102771295D02*
X144134286Y-102676057D01*
X144134286Y-102676057D02*
X144181905Y-102628438D01*
X144181905Y-102628438D02*
X144277143Y-102580819D01*
X144277143Y-102580819D02*
X144515238Y-102580819D01*
X144515238Y-102580819D02*
X144658095Y-102628438D01*
X144991429Y-102580819D02*
X145229524Y-103580819D01*
X145229524Y-103580819D02*
X145420000Y-102866533D01*
X145420000Y-102866533D02*
X145610476Y-103580819D01*
X145610476Y-103580819D02*
X145848572Y-102580819D01*
X146134286Y-102580819D02*
X146753333Y-102580819D01*
X146753333Y-102580819D02*
X146420000Y-102961771D01*
X146420000Y-102961771D02*
X146562857Y-102961771D01*
X146562857Y-102961771D02*
X146658095Y-103009390D01*
X146658095Y-103009390D02*
X146705714Y-103057009D01*
X146705714Y-103057009D02*
X146753333Y-103152247D01*
X146753333Y-103152247D02*
X146753333Y-103390342D01*
X146753333Y-103390342D02*
X146705714Y-103485580D01*
X146705714Y-103485580D02*
X146658095Y-103533200D01*
X146658095Y-103533200D02*
X146562857Y-103580819D01*
X146562857Y-103580819D02*
X146277143Y-103580819D01*
X146277143Y-103580819D02*
X146181905Y-103533200D01*
X146181905Y-103533200D02*
X146134286Y-103485580D01*
X144086667Y-65533200D02*
X144229524Y-65580819D01*
X144229524Y-65580819D02*
X144467619Y-65580819D01*
X144467619Y-65580819D02*
X144562857Y-65533200D01*
X144562857Y-65533200D02*
X144610476Y-65485580D01*
X144610476Y-65485580D02*
X144658095Y-65390342D01*
X144658095Y-65390342D02*
X144658095Y-65295104D01*
X144658095Y-65295104D02*
X144610476Y-65199866D01*
X144610476Y-65199866D02*
X144562857Y-65152247D01*
X144562857Y-65152247D02*
X144467619Y-65104628D01*
X144467619Y-65104628D02*
X144277143Y-65057009D01*
X144277143Y-65057009D02*
X144181905Y-65009390D01*
X144181905Y-65009390D02*
X144134286Y-64961771D01*
X144134286Y-64961771D02*
X144086667Y-64866533D01*
X144086667Y-64866533D02*
X144086667Y-64771295D01*
X144086667Y-64771295D02*
X144134286Y-64676057D01*
X144134286Y-64676057D02*
X144181905Y-64628438D01*
X144181905Y-64628438D02*
X144277143Y-64580819D01*
X144277143Y-64580819D02*
X144515238Y-64580819D01*
X144515238Y-64580819D02*
X144658095Y-64628438D01*
X144991429Y-64580819D02*
X145229524Y-65580819D01*
X145229524Y-65580819D02*
X145420000Y-64866533D01*
X145420000Y-64866533D02*
X145610476Y-65580819D01*
X145610476Y-65580819D02*
X145848572Y-64580819D01*
X146753333Y-65580819D02*
X146181905Y-65580819D01*
X146467619Y-65580819D02*
X146467619Y-64580819D01*
X146467619Y-64580819D02*
X146372381Y-64723676D01*
X146372381Y-64723676D02*
X146277143Y-64818914D01*
X146277143Y-64818914D02*
X146181905Y-64866533D01*
X144086667Y-122533200D02*
X144229524Y-122580819D01*
X144229524Y-122580819D02*
X144467619Y-122580819D01*
X144467619Y-122580819D02*
X144562857Y-122533200D01*
X144562857Y-122533200D02*
X144610476Y-122485580D01*
X144610476Y-122485580D02*
X144658095Y-122390342D01*
X144658095Y-122390342D02*
X144658095Y-122295104D01*
X144658095Y-122295104D02*
X144610476Y-122199866D01*
X144610476Y-122199866D02*
X144562857Y-122152247D01*
X144562857Y-122152247D02*
X144467619Y-122104628D01*
X144467619Y-122104628D02*
X144277143Y-122057009D01*
X144277143Y-122057009D02*
X144181905Y-122009390D01*
X144181905Y-122009390D02*
X144134286Y-121961771D01*
X144134286Y-121961771D02*
X144086667Y-121866533D01*
X144086667Y-121866533D02*
X144086667Y-121771295D01*
X144086667Y-121771295D02*
X144134286Y-121676057D01*
X144134286Y-121676057D02*
X144181905Y-121628438D01*
X144181905Y-121628438D02*
X144277143Y-121580819D01*
X144277143Y-121580819D02*
X144515238Y-121580819D01*
X144515238Y-121580819D02*
X144658095Y-121628438D01*
X144991429Y-121580819D02*
X145229524Y-122580819D01*
X145229524Y-122580819D02*
X145420000Y-121866533D01*
X145420000Y-121866533D02*
X145610476Y-122580819D01*
X145610476Y-122580819D02*
X145848572Y-121580819D01*
X146658095Y-121914152D02*
X146658095Y-122580819D01*
X146420000Y-121533200D02*
X146181905Y-122247485D01*
X146181905Y-122247485D02*
X146800952Y-122247485D01*
X135601660Y-136584104D02*
X136077850Y-136584104D01*
X135506422Y-136869819D02*
X135839755Y-135869819D01*
X135839755Y-135869819D02*
X136173088Y-136869819D01*
X137030231Y-136869819D02*
X136458803Y-136869819D01*
X136744517Y-136869819D02*
X136744517Y-135869819D01*
X136744517Y-135869819D02*
X136649279Y-136012676D01*
X136649279Y-136012676D02*
X136554041Y-136107914D01*
X136554041Y-136107914D02*
X136458803Y-136155533D01*
X144086667Y-84533200D02*
X144229524Y-84580819D01*
X144229524Y-84580819D02*
X144467619Y-84580819D01*
X144467619Y-84580819D02*
X144562857Y-84533200D01*
X144562857Y-84533200D02*
X144610476Y-84485580D01*
X144610476Y-84485580D02*
X144658095Y-84390342D01*
X144658095Y-84390342D02*
X144658095Y-84295104D01*
X144658095Y-84295104D02*
X144610476Y-84199866D01*
X144610476Y-84199866D02*
X144562857Y-84152247D01*
X144562857Y-84152247D02*
X144467619Y-84104628D01*
X144467619Y-84104628D02*
X144277143Y-84057009D01*
X144277143Y-84057009D02*
X144181905Y-84009390D01*
X144181905Y-84009390D02*
X144134286Y-83961771D01*
X144134286Y-83961771D02*
X144086667Y-83866533D01*
X144086667Y-83866533D02*
X144086667Y-83771295D01*
X144086667Y-83771295D02*
X144134286Y-83676057D01*
X144134286Y-83676057D02*
X144181905Y-83628438D01*
X144181905Y-83628438D02*
X144277143Y-83580819D01*
X144277143Y-83580819D02*
X144515238Y-83580819D01*
X144515238Y-83580819D02*
X144658095Y-83628438D01*
X144991429Y-83580819D02*
X145229524Y-84580819D01*
X145229524Y-84580819D02*
X145420000Y-83866533D01*
X145420000Y-83866533D02*
X145610476Y-84580819D01*
X145610476Y-84580819D02*
X145848572Y-83580819D01*
X146181905Y-83676057D02*
X146229524Y-83628438D01*
X146229524Y-83628438D02*
X146324762Y-83580819D01*
X146324762Y-83580819D02*
X146562857Y-83580819D01*
X146562857Y-83580819D02*
X146658095Y-83628438D01*
X146658095Y-83628438D02*
X146705714Y-83676057D01*
X146705714Y-83676057D02*
X146753333Y-83771295D01*
X146753333Y-83771295D02*
X146753333Y-83866533D01*
X146753333Y-83866533D02*
X146705714Y-84009390D01*
X146705714Y-84009390D02*
X146134286Y-84580819D01*
X146134286Y-84580819D02*
X146753333Y-84580819D01*
%TO.C,SW3*%
D11*
X138435000Y-104015000D02*
X152405000Y-104015000D01*
X138435000Y-117985000D02*
X138435000Y-104015000D01*
X152405000Y-104015000D02*
X152405000Y-117985000D01*
X152405000Y-117985000D02*
X138435000Y-117985000D01*
%TO.C,SW1*%
X138435000Y-66015000D02*
X152405000Y-66015000D01*
X138435000Y-79985000D02*
X138435000Y-66015000D01*
X152405000Y-66015000D02*
X152405000Y-79985000D01*
X152405000Y-79985000D02*
X138435000Y-79985000D01*
%TO.C,SW4*%
X138435000Y-123015000D02*
X152405000Y-123015000D01*
X138435000Y-136985000D02*
X138435000Y-123015000D01*
X152405000Y-123015000D02*
X152405000Y-136985000D01*
X152405000Y-136985000D02*
X138435000Y-136985000D01*
%TO.C,A1*%
X112955000Y-88580000D02*
X112475000Y-88580000D01*
X112955000Y-88580000D02*
X112955000Y-89000000D01*
X112955000Y-91120000D02*
X112955000Y-91540000D01*
X112955000Y-93660000D02*
X112955000Y-94080000D01*
X112955000Y-96200000D02*
X112955000Y-96620000D01*
X112955000Y-98740000D02*
X112955000Y-99160000D01*
X112955000Y-101280000D02*
X112955000Y-101700000D01*
X112955000Y-103820000D02*
X112955000Y-104240000D01*
X112955000Y-106360000D02*
X112955000Y-106780000D01*
X112955000Y-108900000D02*
X112955000Y-109320000D01*
X112955000Y-111440000D02*
X112955000Y-111860000D01*
X112955000Y-113980000D02*
X112955000Y-114400000D01*
X112955000Y-116520000D02*
X112955000Y-116940000D01*
X112955000Y-119060000D02*
X112955000Y-119480000D01*
X112955000Y-121600000D02*
X112955000Y-122020000D01*
X112955000Y-124140000D02*
X112955000Y-124560000D01*
X112955000Y-126680000D02*
X112955000Y-127100000D01*
X112955000Y-129220000D02*
X112955000Y-129640000D01*
X112955000Y-131760000D02*
X112955000Y-132180000D01*
X112955000Y-134300000D02*
X112955000Y-134720000D01*
X112985324Y-86460000D02*
X112475000Y-86460000D01*
X113295000Y-86460063D02*
X113295000Y-86103000D01*
X113295000Y-88580000D02*
X113295000Y-89000000D01*
X113295000Y-91120000D02*
X113295000Y-91540000D01*
X113295000Y-93660000D02*
X113295000Y-94080000D01*
X113295000Y-96200000D02*
X113295000Y-96620000D01*
X113295000Y-98740000D02*
X113295000Y-99160000D01*
X113295000Y-101280000D02*
X113295000Y-101700000D01*
X113295000Y-103820000D02*
X113295000Y-104240000D01*
X113295000Y-106360000D02*
X113295000Y-106780000D01*
X113295000Y-108900000D02*
X113295000Y-109320000D01*
X113295000Y-111440000D02*
X113295000Y-111860000D01*
X113295000Y-113980000D02*
X113295000Y-114400000D01*
X113295000Y-116520000D02*
X113295000Y-116940000D01*
X113295000Y-119060000D02*
X113295000Y-119480000D01*
X113295000Y-121600000D02*
X113295000Y-122020000D01*
X113295000Y-124140000D02*
X113295000Y-124560000D01*
X113295000Y-126680000D02*
X113295000Y-127100000D01*
X113295000Y-129220000D02*
X113295000Y-129640000D01*
X113295000Y-131760000D02*
X113295000Y-132180000D01*
X113295000Y-134300000D02*
X113295000Y-134720000D01*
X113295000Y-136839937D02*
X113295000Y-137197000D01*
X113565000Y-86040000D02*
X116055000Y-86040000D01*
X113565000Y-137260000D02*
X117402939Y-137260000D01*
X116055000Y-86040000D02*
X116055000Y-86953520D01*
X116055000Y-86040000D02*
X117402940Y-86040000D01*
X116055000Y-89346480D02*
X116055000Y-133953520D01*
X116055000Y-136346480D02*
X116055000Y-137260000D01*
X118327061Y-86040000D02*
X119330000Y-86040000D01*
X119330000Y-86040000D02*
X127800000Y-86040000D01*
X119665000Y-86040000D02*
X119665000Y-86956000D01*
X119665000Y-89344000D02*
X119665000Y-90560000D01*
X119665000Y-90560000D02*
X119961090Y-90560000D01*
X119965000Y-137260000D02*
X118327061Y-137260000D01*
X122318910Y-90560000D02*
X124811090Y-90560000D01*
X127165000Y-137260000D02*
X119965000Y-137260000D01*
X127168910Y-90560000D02*
X127465000Y-90560000D01*
X127465000Y-86040000D02*
X127465000Y-86956000D01*
X127465000Y-89344000D02*
X127465000Y-90560000D01*
X127800000Y-86040000D02*
X128802939Y-86040000D01*
X128802939Y-137260000D02*
X127165000Y-137260000D01*
X129727061Y-86040000D02*
X131075000Y-86040000D01*
X129727061Y-137260000D02*
X133565000Y-137260000D01*
X131075000Y-86040000D02*
X131075000Y-86953520D01*
X131075000Y-89346480D02*
X131075000Y-133953520D01*
X131075000Y-136346480D02*
X131075000Y-137260000D01*
X133565000Y-86040000D02*
X131075000Y-86040000D01*
X133835000Y-86460063D02*
X133835000Y-86103000D01*
X133835000Y-88580000D02*
X133835000Y-89000000D01*
X133835000Y-91120000D02*
X133835000Y-91540000D01*
X133835000Y-93660000D02*
X133835000Y-94080000D01*
X133835000Y-96200000D02*
X133835000Y-96620000D01*
X133835000Y-98740000D02*
X133835000Y-99160000D01*
X133835000Y-101280000D02*
X133835000Y-101700000D01*
X133835000Y-103820000D02*
X133835000Y-104240000D01*
X133835000Y-106360000D02*
X133835000Y-106780000D01*
X133835000Y-108900000D02*
X133835000Y-109320000D01*
X133835000Y-111440000D02*
X133835000Y-111860000D01*
X133835000Y-113980000D02*
X133835000Y-114400000D01*
X133835000Y-116520000D02*
X133835000Y-116940000D01*
X133835000Y-119060000D02*
X133835000Y-119480000D01*
X133835000Y-121600000D02*
X133835000Y-122020000D01*
X133835000Y-124140000D02*
X133835000Y-124560000D01*
X133835000Y-126680000D02*
X133835000Y-127100000D01*
X133835000Y-129220000D02*
X133835000Y-129640000D01*
X133835000Y-131760000D02*
X133835000Y-132180000D01*
X133835000Y-134300000D02*
X133835000Y-134720000D01*
X133835000Y-136839937D02*
X133835000Y-137197000D01*
X134175000Y-88580000D02*
X134175000Y-89000000D01*
X134175000Y-91120000D02*
X134175000Y-91540000D01*
X134175000Y-93660000D02*
X134175000Y-94080000D01*
X134175000Y-96200000D02*
X134175000Y-96620000D01*
X134175000Y-98740000D02*
X134175000Y-99160000D01*
X134175000Y-101280000D02*
X134175000Y-101700000D01*
X134175000Y-103820000D02*
X134175000Y-104240000D01*
X134175000Y-106360000D02*
X134175000Y-106780000D01*
X134175000Y-108900000D02*
X134175000Y-109320000D01*
X134175000Y-111440000D02*
X134175000Y-111860000D01*
X134175000Y-113980000D02*
X134175000Y-114400000D01*
X134175000Y-116520000D02*
X134175000Y-116940000D01*
X134175000Y-119060000D02*
X134175000Y-119480000D01*
X134175000Y-121600000D02*
X134175000Y-122020000D01*
X134175000Y-124140000D02*
X134175000Y-124560000D01*
X134175000Y-126680000D02*
X134175000Y-127100000D01*
X134175000Y-129220000D02*
X134175000Y-129640000D01*
X134175000Y-131760000D02*
X134175000Y-132180000D01*
X134175000Y-134300000D02*
X134175000Y-134720000D01*
X112985324Y-86460000D02*
G75*
G02*
X113565000Y-86040000I579692J-190051D01*
G01*
X113565000Y-137260000D02*
G75*
G02*
X112985324Y-136839937I1J610002D01*
G01*
X133565000Y-86040000D02*
G75*
G02*
X134144676Y-86460063I0J-610000D01*
G01*
X134144676Y-136839937D02*
G75*
G02*
X133565000Y-137260069I-579676J189837D01*
G01*
%TO.C,SW2*%
X138435000Y-85015000D02*
X152405000Y-85015000D01*
X138435000Y-98985000D02*
X138435000Y-85015000D01*
X152405000Y-85015000D02*
X152405000Y-98985000D01*
X152405000Y-98985000D02*
X138435000Y-98985000D01*
%TD*%
M02*
