%TF.GenerationSoftware,KiCad,Pcbnew,10.0.2*%
%TF.CreationDate,2026-06-28T15:23:38+05:30*%
%TF.ProjectId,PulsePad,50756c73-6550-4616-942e-6b696361645f,rev?*%
%TF.SameCoordinates,Original*%
%TF.FileFunction,Copper,L1,Top*%
%TF.FilePolarity,Positive*%
%FSLAX46Y46*%
G04 Gerber Fmt 4.6, Leading zero omitted, Abs format (unit mm)*
G04 Created by KiCad (PCBNEW 10.0.2) date 2026-06-28 15:23:38*
%MOMM*%
%LPD*%
G01*
G04 APERTURE LIST*
G04 Aperture macros list*
%AMRoundRect*
0 Rectangle with rounded corners*
0 $1 Rounding radius*
0 $2 $3 $4 $5 $6 $7 $8 $9 X,Y pos of 4 corners*
0 Add a 4 corners polygon primitive as box body*
4,1,4,$2,$3,$4,$5,$6,$7,$8,$9,$2,$3,0*
0 Add four circle primitives for the rounded corners*
1,1,$1+$1,$2,$3*
1,1,$1+$1,$4,$5*
1,1,$1+$1,$6,$7*
1,1,$1+$1,$8,$9*
0 Add four rect primitives between the rounded corners*
20,1,$1+$1,$2,$3,$4,$5,0*
20,1,$1+$1,$4,$5,$6,$7,0*
20,1,$1+$1,$6,$7,$8,$9,0*
20,1,$1+$1,$8,$9,$2,$3,0*%
G04 Aperture macros list end*
%TA.AperFunction,ComponentPad*%
%ADD10C,2.200000*%
%TD*%
%TA.AperFunction,SMDPad,CuDef*%
%ADD11RoundRect,0.500000X-0.875000X-0.500000X0.875000X-0.500000X0.875000X0.500000X-0.875000X0.500000X0*%
%TD*%
%TA.AperFunction,SMDPad,CuDef*%
%ADD12C,1.700000*%
%TD*%
%TA.AperFunction,SMDPad,CuDef*%
%ADD13RoundRect,0.275000X-0.275000X0.975000X-0.275000X-0.975000X0.275000X-0.975000X0.275000X0.975000X0*%
%TD*%
%TA.AperFunction,Conductor*%
%ADD14C,0.200000*%
%TD*%
G04 APERTURE END LIST*
D10*
%TO.P,SW3,1,1_1*%
%TO.N,GND*%
X79400000Y-116290000D03*
%TO.P,SW3,2,2_2*%
%TO.N,Net-(U1-P28_A2_D2)*%
X85750000Y-113750000D03*
%TD*%
%TO.P,SW4,1,1_1*%
%TO.N,GND*%
X79460000Y-132080000D03*
%TO.P,SW4,2,2_2*%
%TO.N,Net-(U1-P29_A3_D3)*%
X85810000Y-129540000D03*
%TD*%
D11*
%TO.P,U1,1,P26_A0_D0_1*%
%TO.N,Net-(U1-P26_A0_D0)*%
X92504500Y-75760250D03*
%TO.P,U1,2,P27_A1_D1_2*%
%TO.N,Net-(U1-P27_A1_D1)*%
X92504500Y-78300250D03*
%TO.P,U1,3,P28_A2_D2_3*%
%TO.N,Net-(U1-P28_A2_D2)*%
X92504500Y-80840250D03*
%TO.P,U1,4,P29_A3_D3_4*%
%TO.N,Net-(U1-P29_A3_D3)*%
X92504500Y-83380250D03*
%TO.P,U1,5,P6_SDA_D4_5*%
%TO.N,unconnected-(U1-P6_SDA_D4-Pad5)*%
X92504500Y-85920250D03*
%TO.P,U1,6,P7_SCL_D5_6*%
%TO.N,unconnected-(U1-P7_SCL_D5-Pad6)*%
X92504500Y-88460250D03*
%TO.P,U1,7,P0_D6_TX_7*%
%TO.N,unconnected-(U1-P0_D6_TX-Pad7)*%
X92504500Y-91000250D03*
%TO.P,U1,8,P1_D7_RX_8*%
%TO.N,unconnected-(U1-P1_D7_RX-Pad8)*%
X108669500Y-91000250D03*
%TO.P,U1,9,P2_D8_SCK_9*%
%TO.N,unconnected-(U1-P2_D8_SCK-Pad9)*%
X108669500Y-88460250D03*
%TO.P,U1,10,P4_D9_MISO_10*%
%TO.N,unconnected-(U1-P4_D9_MISO-Pad10)*%
X108669500Y-85920250D03*
%TO.P,U1,11,P3_D10_MOSI_11*%
%TO.N,unconnected-(U1-P3_D10_MOSI-Pad11)*%
X108669500Y-83380250D03*
%TO.P,U1,12,3V3_12*%
%TO.N,unconnected-(U1-3V3-Pad12)*%
X108669500Y-80840250D03*
%TO.P,U1,13,GND_13*%
%TO.N,unconnected-(U1-GND-Pad13)*%
X108669500Y-78300250D03*
%TO.P,U1,14,VBUS_14*%
%TO.N,unconnected-(U1-VBUS-Pad14)*%
X108669500Y-75760250D03*
D12*
%TO.P,U1,24,SWDIO_24*%
%TO.N,unconnected-(U1-SWDIO-Pad24)*%
X99416500Y-75002250D03*
%TO.P,U1,25,SWDCLK_25*%
%TO.N,unconnected-(U1-SWDCLK-Pad25)*%
X101956500Y-75002250D03*
%TO.P,U1,26,RST_26*%
%TO.N,unconnected-(U1-RST-Pad26)*%
X99416500Y-77542250D03*
%TO.P,U1,27,GND_27*%
%TO.N,unconnected-(U1-GND-Pad27)*%
X101956500Y-77542250D03*
D13*
%TO.P,U1,32,BAT_32*%
%TO.N,unconnected-(U1-BAT-Pad32)*%
X99416500Y-92020250D03*
%TO.P,U1,33,GND_33*%
%TO.N,GND*%
X101956500Y-92020250D03*
%TD*%
D10*
%TO.P,SW1,1,1_1*%
%TO.N,GND*%
X79380000Y-85080000D03*
%TO.P,SW1,2,2_2*%
%TO.N,Net-(U1-P26_A0_D0)*%
X85730000Y-82540000D03*
%TD*%
%TO.P,SW2,1,1_1*%
%TO.N,GND*%
X79400000Y-100830000D03*
%TO.P,SW2,2,2_2*%
%TO.N,Net-(U1-P27_A1_D1)*%
X85750000Y-98290000D03*
%TD*%
%TO.N,Net-(U1-P29_A3_D3)*%
D14*
X87460000Y-129540000D02*
X85810000Y-129540000D01*
X89500000Y-84500000D02*
X89500000Y-127500000D01*
X89500000Y-127500000D02*
X87460000Y-129540000D01*
X90619750Y-83380250D02*
X89500000Y-84500000D01*
X92504500Y-83380250D02*
X90619750Y-83380250D01*
%TO.N,Net-(U1-P28_A2_D2)*%
X89000000Y-110927056D02*
X86177056Y-113750000D01*
X89000000Y-82500000D02*
X89000000Y-110927056D01*
X90659750Y-80840250D02*
X89000000Y-82500000D01*
X86177056Y-113750000D02*
X85750000Y-113750000D01*
X92504500Y-80840250D02*
X90659750Y-80840250D01*
%TO.N,Net-(U1-P27_A1_D1)*%
X88500000Y-96500000D02*
X86710000Y-98290000D01*
X88500000Y-81891320D02*
X88500000Y-96500000D01*
X92091070Y-78300250D02*
X88500000Y-81891320D01*
X92504500Y-78300250D02*
X92091070Y-78300250D01*
X86710000Y-98290000D02*
X85750000Y-98290000D01*
%TO.N,Net-(U1-P26_A0_D0)*%
X87285634Y-82540000D02*
X85730000Y-82540000D01*
X89200000Y-80625634D02*
X87285634Y-82540000D01*
X89200000Y-79064750D02*
X89200000Y-80625634D01*
X92504500Y-75760250D02*
X89200000Y-79064750D01*
%TD*%
%TA.AperFunction,Conductor*%
%TO.N,GND*%
G36*
X111083117Y-71520185D02*
G01*
X111128872Y-71572989D01*
X111140078Y-71624500D01*
X111140078Y-134875499D01*
X111120393Y-134942538D01*
X111067589Y-134988293D01*
X111016078Y-134999499D01*
X73874500Y-134999499D01*
X73807461Y-134979814D01*
X73761706Y-134927010D01*
X73750500Y-134875499D01*
X73750500Y-131954071D01*
X77860000Y-131954071D01*
X77860000Y-132205928D01*
X77899397Y-132454669D01*
X77977219Y-132694184D01*
X78091557Y-132918583D01*
X78165748Y-133020697D01*
X78165748Y-133020698D01*
X78782421Y-132404024D01*
X78795359Y-132435258D01*
X78877437Y-132558097D01*
X78981903Y-132662563D01*
X79104742Y-132744641D01*
X79135974Y-132757577D01*
X78519300Y-133374250D01*
X78621416Y-133448442D01*
X78845815Y-133562780D01*
X79085330Y-133640602D01*
X79334072Y-133680000D01*
X79585928Y-133680000D01*
X79834669Y-133640602D01*
X80074184Y-133562780D01*
X80298575Y-133448446D01*
X80298581Y-133448442D01*
X80400697Y-133374250D01*
X80400698Y-133374250D01*
X79784025Y-132757578D01*
X79815258Y-132744641D01*
X79938097Y-132662563D01*
X80042563Y-132558097D01*
X80124641Y-132435258D01*
X80137577Y-132404025D01*
X80754250Y-133020698D01*
X80754250Y-133020697D01*
X80828442Y-132918581D01*
X80828446Y-132918575D01*
X80942780Y-132694184D01*
X81020602Y-132454669D01*
X81060000Y-132205928D01*
X81060000Y-131954071D01*
X81020602Y-131705330D01*
X80942780Y-131465815D01*
X80828442Y-131241416D01*
X80754250Y-131139301D01*
X80754250Y-131139300D01*
X80137577Y-131755973D01*
X80124641Y-131724742D01*
X80042563Y-131601903D01*
X79938097Y-131497437D01*
X79815258Y-131415359D01*
X79784024Y-131402421D01*
X80400698Y-130785748D01*
X80298583Y-130711557D01*
X80074184Y-130597219D01*
X79834669Y-130519397D01*
X79585928Y-130480000D01*
X79334072Y-130480000D01*
X79085330Y-130519397D01*
X78845815Y-130597219D01*
X78621413Y-130711559D01*
X78519301Y-130785747D01*
X78519300Y-130785748D01*
X79135974Y-131402421D01*
X79104742Y-131415359D01*
X78981903Y-131497437D01*
X78877437Y-131601903D01*
X78795359Y-131724742D01*
X78782421Y-131755974D01*
X78165748Y-131139300D01*
X78165747Y-131139301D01*
X78091559Y-131241413D01*
X77977219Y-131465815D01*
X77899397Y-131705330D01*
X77860000Y-131954071D01*
X73750500Y-131954071D01*
X73750500Y-126913389D01*
X75819500Y-126913389D01*
X75819500Y-127086610D01*
X75837443Y-127199902D01*
X75846598Y-127257701D01*
X75900127Y-127422445D01*
X75978768Y-127576788D01*
X76080586Y-127716928D01*
X76203072Y-127839414D01*
X76343212Y-127941232D01*
X76497555Y-128019873D01*
X76662299Y-128073402D01*
X76833389Y-128100500D01*
X76833390Y-128100500D01*
X77006610Y-128100500D01*
X77006611Y-128100500D01*
X77177701Y-128073402D01*
X77342445Y-128019873D01*
X77496788Y-127941232D01*
X77636928Y-127839414D01*
X77759414Y-127716928D01*
X77861232Y-127576788D01*
X77939873Y-127422445D01*
X77993402Y-127257701D01*
X78020500Y-127086611D01*
X78020500Y-126913389D01*
X78010854Y-126852486D01*
X79749500Y-126852486D01*
X79749500Y-127147513D01*
X79781571Y-127391113D01*
X79788007Y-127439993D01*
X79862212Y-127716930D01*
X79864361Y-127724951D01*
X79864364Y-127724961D01*
X79977254Y-127997500D01*
X79977258Y-127997510D01*
X80124761Y-128252993D01*
X80304352Y-128487040D01*
X80304358Y-128487047D01*
X80512952Y-128695641D01*
X80512959Y-128695647D01*
X80747006Y-128875238D01*
X81002489Y-129022741D01*
X81002490Y-129022741D01*
X81002493Y-129022743D01*
X81275048Y-129135639D01*
X81560007Y-129211993D01*
X81852494Y-129250500D01*
X81852501Y-129250500D01*
X82147499Y-129250500D01*
X82147506Y-129250500D01*
X82439993Y-129211993D01*
X82724952Y-129135639D01*
X82997507Y-129022743D01*
X83252994Y-128875238D01*
X83487042Y-128695646D01*
X83695646Y-128487042D01*
X83875238Y-128252994D01*
X84022743Y-127997507D01*
X84135639Y-127724952D01*
X84211993Y-127439993D01*
X84250500Y-127147506D01*
X84250500Y-126852494D01*
X84211993Y-126560007D01*
X84135639Y-126275048D01*
X84022743Y-126002493D01*
X83875238Y-125747006D01*
X83695646Y-125512958D01*
X83695641Y-125512952D01*
X83487047Y-125304358D01*
X83487040Y-125304352D01*
X83252993Y-125124761D01*
X82997510Y-124977258D01*
X82997500Y-124977254D01*
X82724961Y-124864364D01*
X82724954Y-124864362D01*
X82724952Y-124864361D01*
X82439993Y-124788007D01*
X82391113Y-124781571D01*
X82147513Y-124749500D01*
X82147506Y-124749500D01*
X81852494Y-124749500D01*
X81852486Y-124749500D01*
X81574085Y-124786153D01*
X81560007Y-124788007D01*
X81275048Y-124864361D01*
X81275038Y-124864364D01*
X81002499Y-124977254D01*
X81002489Y-124977258D01*
X80747006Y-125124761D01*
X80512959Y-125304352D01*
X80512952Y-125304358D01*
X80304358Y-125512952D01*
X80304352Y-125512959D01*
X80124761Y-125747006D01*
X79977258Y-126002489D01*
X79977254Y-126002499D01*
X79864364Y-126275038D01*
X79864361Y-126275048D01*
X79788008Y-126560004D01*
X79788006Y-126560015D01*
X79749500Y-126852486D01*
X78010854Y-126852486D01*
X77993402Y-126742299D01*
X77939873Y-126577555D01*
X77861232Y-126423212D01*
X77759414Y-126283072D01*
X77636928Y-126160586D01*
X77496788Y-126058768D01*
X77342445Y-125980127D01*
X77177701Y-125926598D01*
X77177699Y-125926597D01*
X77177698Y-125926597D01*
X77046271Y-125905781D01*
X77006611Y-125899500D01*
X76833389Y-125899500D01*
X76793728Y-125905781D01*
X76662302Y-125926597D01*
X76497552Y-125980128D01*
X76343211Y-126058768D01*
X76263256Y-126116859D01*
X76203072Y-126160586D01*
X76203070Y-126160588D01*
X76203069Y-126160588D01*
X76080588Y-126283069D01*
X76080588Y-126283070D01*
X76080586Y-126283072D01*
X76036859Y-126343256D01*
X75978768Y-126423211D01*
X75900128Y-126577552D01*
X75846597Y-126742302D01*
X75819500Y-126913389D01*
X73750500Y-126913389D01*
X73750500Y-116164071D01*
X77800000Y-116164071D01*
X77800000Y-116415928D01*
X77839397Y-116664669D01*
X77917219Y-116904184D01*
X78031557Y-117128583D01*
X78105748Y-117230697D01*
X78105748Y-117230698D01*
X78722421Y-116614024D01*
X78735359Y-116645258D01*
X78817437Y-116768097D01*
X78921903Y-116872563D01*
X79044742Y-116954641D01*
X79075974Y-116967577D01*
X78459300Y-117584250D01*
X78561416Y-117658442D01*
X78785815Y-117772780D01*
X79025330Y-117850602D01*
X79274072Y-117890000D01*
X79525928Y-117890000D01*
X79774669Y-117850602D01*
X80014184Y-117772780D01*
X80238575Y-117658446D01*
X80238581Y-117658442D01*
X80340697Y-117584250D01*
X80340698Y-117584250D01*
X79724025Y-116967578D01*
X79755258Y-116954641D01*
X79878097Y-116872563D01*
X79982563Y-116768097D01*
X80064641Y-116645258D01*
X80077577Y-116614025D01*
X80694250Y-117230698D01*
X80694250Y-117230697D01*
X80768442Y-117128581D01*
X80768446Y-117128575D01*
X80882780Y-116904184D01*
X80960602Y-116664669D01*
X81000000Y-116415928D01*
X81000000Y-116164071D01*
X80960602Y-115915330D01*
X80882780Y-115675815D01*
X80768442Y-115451416D01*
X80694250Y-115349301D01*
X80694250Y-115349300D01*
X80077577Y-115965973D01*
X80064641Y-115934742D01*
X79982563Y-115811903D01*
X79878097Y-115707437D01*
X79755258Y-115625359D01*
X79724024Y-115612421D01*
X80340698Y-114995748D01*
X80238583Y-114921557D01*
X80014184Y-114807219D01*
X79774669Y-114729397D01*
X79525928Y-114690000D01*
X79274072Y-114690000D01*
X79025330Y-114729397D01*
X78785815Y-114807219D01*
X78561413Y-114921559D01*
X78459301Y-114995747D01*
X78459300Y-114995748D01*
X79075974Y-115612421D01*
X79044742Y-115625359D01*
X78921903Y-115707437D01*
X78817437Y-115811903D01*
X78735359Y-115934742D01*
X78722421Y-115965974D01*
X78105748Y-115349300D01*
X78105747Y-115349301D01*
X78031559Y-115451413D01*
X77917219Y-115675815D01*
X77839397Y-115915330D01*
X77800000Y-116164071D01*
X73750500Y-116164071D01*
X73750500Y-111123389D01*
X75759500Y-111123389D01*
X75759500Y-111296611D01*
X75786598Y-111467701D01*
X75840127Y-111632445D01*
X75918768Y-111786788D01*
X76020586Y-111926928D01*
X76143072Y-112049414D01*
X76283212Y-112151232D01*
X76437555Y-112229873D01*
X76602299Y-112283402D01*
X76773389Y-112310500D01*
X76773390Y-112310500D01*
X76946610Y-112310500D01*
X76946611Y-112310500D01*
X77117701Y-112283402D01*
X77282445Y-112229873D01*
X77436788Y-112151232D01*
X77576928Y-112049414D01*
X77699414Y-111926928D01*
X77801232Y-111786788D01*
X77879873Y-111632445D01*
X77933402Y-111467701D01*
X77960500Y-111296611D01*
X77960500Y-111123389D01*
X77950854Y-111062486D01*
X79689500Y-111062486D01*
X79689500Y-111357513D01*
X79721571Y-111601113D01*
X79728007Y-111649993D01*
X79802212Y-111926930D01*
X79804361Y-111934951D01*
X79804364Y-111934961D01*
X79917254Y-112207500D01*
X79917258Y-112207510D01*
X80064761Y-112462993D01*
X80244352Y-112697040D01*
X80244358Y-112697047D01*
X80452952Y-112905641D01*
X80452959Y-112905647D01*
X80687006Y-113085238D01*
X80942489Y-113232741D01*
X80942490Y-113232741D01*
X80942493Y-113232743D01*
X81215048Y-113345639D01*
X81500007Y-113421993D01*
X81792494Y-113460500D01*
X81792501Y-113460500D01*
X82087499Y-113460500D01*
X82087506Y-113460500D01*
X82379993Y-113421993D01*
X82664952Y-113345639D01*
X82937507Y-113232743D01*
X83192994Y-113085238D01*
X83427042Y-112905646D01*
X83635646Y-112697042D01*
X83815238Y-112462994D01*
X83962743Y-112207507D01*
X84075639Y-111934952D01*
X84151993Y-111649993D01*
X84190500Y-111357506D01*
X84190500Y-111062494D01*
X84151993Y-110770007D01*
X84075639Y-110485048D01*
X83962743Y-110212493D01*
X83815238Y-109957006D01*
X83635646Y-109722958D01*
X83635641Y-109722952D01*
X83427047Y-109514358D01*
X83427040Y-109514352D01*
X83192993Y-109334761D01*
X82937510Y-109187258D01*
X82937500Y-109187254D01*
X82664961Y-109074364D01*
X82664954Y-109074362D01*
X82664952Y-109074361D01*
X82379993Y-108998007D01*
X82331113Y-108991571D01*
X82087513Y-108959500D01*
X82087506Y-108959500D01*
X81792494Y-108959500D01*
X81792486Y-108959500D01*
X81514085Y-108996153D01*
X81500007Y-108998007D01*
X81215048Y-109074361D01*
X81215038Y-109074364D01*
X80942499Y-109187254D01*
X80942489Y-109187258D01*
X80687006Y-109334761D01*
X80452959Y-109514352D01*
X80452952Y-109514358D01*
X80244358Y-109722952D01*
X80244352Y-109722959D01*
X80064761Y-109957006D01*
X79917258Y-110212489D01*
X79917254Y-110212499D01*
X79804364Y-110485038D01*
X79804361Y-110485048D01*
X79758449Y-110656397D01*
X79728008Y-110770004D01*
X79728006Y-110770015D01*
X79689500Y-111062486D01*
X77950854Y-111062486D01*
X77933402Y-110952299D01*
X77879873Y-110787555D01*
X77801232Y-110633212D01*
X77699414Y-110493072D01*
X77576928Y-110370586D01*
X77436788Y-110268768D01*
X77282445Y-110190127D01*
X77117701Y-110136598D01*
X77117699Y-110136597D01*
X77117698Y-110136597D01*
X76986271Y-110115781D01*
X76946611Y-110109500D01*
X76773389Y-110109500D01*
X76733728Y-110115781D01*
X76602302Y-110136597D01*
X76437552Y-110190128D01*
X76283211Y-110268768D01*
X76203256Y-110326859D01*
X76143072Y-110370586D01*
X76143070Y-110370588D01*
X76143069Y-110370588D01*
X76020588Y-110493069D01*
X76020588Y-110493070D01*
X76020586Y-110493072D01*
X75976859Y-110553256D01*
X75918768Y-110633211D01*
X75840128Y-110787552D01*
X75786597Y-110952302D01*
X75759500Y-111123389D01*
X73750500Y-111123389D01*
X73750500Y-100704071D01*
X77800000Y-100704071D01*
X77800000Y-100955928D01*
X77839397Y-101204669D01*
X77917219Y-101444184D01*
X78031557Y-101668583D01*
X78105748Y-101770697D01*
X78105748Y-101770698D01*
X78722421Y-101154024D01*
X78735359Y-101185258D01*
X78817437Y-101308097D01*
X78921903Y-101412563D01*
X79044742Y-101494641D01*
X79075974Y-101507577D01*
X78459300Y-102124250D01*
X78561416Y-102198442D01*
X78785815Y-102312780D01*
X79025330Y-102390602D01*
X79274072Y-102430000D01*
X79525928Y-102430000D01*
X79774669Y-102390602D01*
X80014184Y-102312780D01*
X80238575Y-102198446D01*
X80238581Y-102198442D01*
X80340697Y-102124250D01*
X80340698Y-102124250D01*
X79724025Y-101507578D01*
X79755258Y-101494641D01*
X79878097Y-101412563D01*
X79982563Y-101308097D01*
X80064641Y-101185258D01*
X80077577Y-101154025D01*
X80694250Y-101770698D01*
X80694250Y-101770697D01*
X80768442Y-101668581D01*
X80768446Y-101668575D01*
X80882780Y-101444184D01*
X80960602Y-101204669D01*
X81000000Y-100955928D01*
X81000000Y-100704071D01*
X80960602Y-100455330D01*
X80882780Y-100215815D01*
X80768442Y-99991416D01*
X80694250Y-99889301D01*
X80694250Y-99889300D01*
X80077577Y-100505973D01*
X80064641Y-100474742D01*
X79982563Y-100351903D01*
X79878097Y-100247437D01*
X79755258Y-100165359D01*
X79724024Y-100152421D01*
X80340698Y-99535748D01*
X80238583Y-99461557D01*
X80014184Y-99347219D01*
X79774669Y-99269397D01*
X79525928Y-99230000D01*
X79274072Y-99230000D01*
X79025330Y-99269397D01*
X78785815Y-99347219D01*
X78561413Y-99461559D01*
X78459301Y-99535747D01*
X78459300Y-99535748D01*
X79075974Y-100152421D01*
X79044742Y-100165359D01*
X78921903Y-100247437D01*
X78817437Y-100351903D01*
X78735359Y-100474742D01*
X78722421Y-100505974D01*
X78105748Y-99889300D01*
X78105747Y-99889301D01*
X78031559Y-99991413D01*
X77917219Y-100215815D01*
X77839397Y-100455330D01*
X77800000Y-100704071D01*
X73750500Y-100704071D01*
X73750500Y-95663389D01*
X75759500Y-95663389D01*
X75759500Y-95836611D01*
X75786598Y-96007701D01*
X75840127Y-96172445D01*
X75918768Y-96326788D01*
X76020586Y-96466928D01*
X76143072Y-96589414D01*
X76283212Y-96691232D01*
X76437555Y-96769873D01*
X76602299Y-96823402D01*
X76773389Y-96850500D01*
X76773390Y-96850500D01*
X76946610Y-96850500D01*
X76946611Y-96850500D01*
X77117701Y-96823402D01*
X77282445Y-96769873D01*
X77436788Y-96691232D01*
X77576928Y-96589414D01*
X77699414Y-96466928D01*
X77801232Y-96326788D01*
X77879873Y-96172445D01*
X77933402Y-96007701D01*
X77960500Y-95836611D01*
X77960500Y-95663389D01*
X77950854Y-95602486D01*
X79689500Y-95602486D01*
X79689500Y-95897513D01*
X79721571Y-96141113D01*
X79728007Y-96189993D01*
X79802212Y-96466930D01*
X79804361Y-96474951D01*
X79804364Y-96474961D01*
X79917254Y-96747500D01*
X79917258Y-96747510D01*
X80064761Y-97002993D01*
X80244352Y-97237040D01*
X80244358Y-97237047D01*
X80452952Y-97445641D01*
X80452959Y-97445647D01*
X80687006Y-97625238D01*
X80942489Y-97772741D01*
X80942490Y-97772741D01*
X80942493Y-97772743D01*
X81215048Y-97885639D01*
X81500007Y-97961993D01*
X81792494Y-98000500D01*
X81792501Y-98000500D01*
X82087499Y-98000500D01*
X82087506Y-98000500D01*
X82379993Y-97961993D01*
X82664952Y-97885639D01*
X82937507Y-97772743D01*
X83192994Y-97625238D01*
X83427042Y-97445646D01*
X83635646Y-97237042D01*
X83815238Y-97002994D01*
X83962743Y-96747507D01*
X84075639Y-96474952D01*
X84151993Y-96189993D01*
X84190500Y-95897506D01*
X84190500Y-95602494D01*
X84151993Y-95310007D01*
X84075639Y-95025048D01*
X83962743Y-94752493D01*
X83815238Y-94497006D01*
X83635646Y-94262958D01*
X83635641Y-94262952D01*
X83427047Y-94054358D01*
X83427040Y-94054352D01*
X83192993Y-93874761D01*
X82937510Y-93727258D01*
X82937500Y-93727254D01*
X82664961Y-93614364D01*
X82664954Y-93614362D01*
X82664952Y-93614361D01*
X82379993Y-93538007D01*
X82331113Y-93531571D01*
X82087513Y-93499500D01*
X82087506Y-93499500D01*
X81792494Y-93499500D01*
X81792486Y-93499500D01*
X81514085Y-93536153D01*
X81500007Y-93538007D01*
X81249973Y-93605003D01*
X81215048Y-93614361D01*
X81215038Y-93614364D01*
X80942499Y-93727254D01*
X80942489Y-93727258D01*
X80687006Y-93874761D01*
X80452959Y-94054352D01*
X80452952Y-94054358D01*
X80244358Y-94262952D01*
X80244352Y-94262959D01*
X80064761Y-94497006D01*
X79917258Y-94752489D01*
X79917254Y-94752499D01*
X79804364Y-95025038D01*
X79804361Y-95025048D01*
X79728008Y-95310004D01*
X79728006Y-95310015D01*
X79689500Y-95602486D01*
X77950854Y-95602486D01*
X77933402Y-95492299D01*
X77879873Y-95327555D01*
X77801232Y-95173212D01*
X77699414Y-95033072D01*
X77576928Y-94910586D01*
X77436788Y-94808768D01*
X77282445Y-94730127D01*
X77117701Y-94676598D01*
X77117699Y-94676597D01*
X77117698Y-94676597D01*
X76986271Y-94655781D01*
X76946611Y-94649500D01*
X76773389Y-94649500D01*
X76733728Y-94655781D01*
X76602302Y-94676597D01*
X76437552Y-94730128D01*
X76283211Y-94808768D01*
X76223191Y-94852376D01*
X76143072Y-94910586D01*
X76143070Y-94910588D01*
X76143069Y-94910588D01*
X76020588Y-95033069D01*
X76020588Y-95033070D01*
X76020586Y-95033072D01*
X75980500Y-95088245D01*
X75918768Y-95173211D01*
X75840128Y-95327552D01*
X75786597Y-95492302D01*
X75759500Y-95663389D01*
X73750500Y-95663389D01*
X73750500Y-84954071D01*
X77780000Y-84954071D01*
X77780000Y-85205928D01*
X77819397Y-85454669D01*
X77897219Y-85694184D01*
X78011557Y-85918583D01*
X78085748Y-86020697D01*
X78085748Y-86020698D01*
X78702421Y-85404024D01*
X78715359Y-85435258D01*
X78797437Y-85558097D01*
X78901903Y-85662563D01*
X79024742Y-85744641D01*
X79055974Y-85757577D01*
X78439300Y-86374250D01*
X78541416Y-86448442D01*
X78765815Y-86562780D01*
X79005330Y-86640602D01*
X79254072Y-86680000D01*
X79505928Y-86680000D01*
X79754669Y-86640602D01*
X79994184Y-86562780D01*
X80218575Y-86448446D01*
X80218581Y-86448442D01*
X80320697Y-86374250D01*
X80320698Y-86374250D01*
X79704025Y-85757578D01*
X79735258Y-85744641D01*
X79858097Y-85662563D01*
X79962563Y-85558097D01*
X80044641Y-85435258D01*
X80057577Y-85404025D01*
X80674250Y-86020698D01*
X80674250Y-86020697D01*
X80748442Y-85918581D01*
X80748446Y-85918575D01*
X80862780Y-85694184D01*
X80940602Y-85454669D01*
X80980000Y-85205928D01*
X80980000Y-84954071D01*
X80940602Y-84705330D01*
X80862780Y-84465815D01*
X80748442Y-84241416D01*
X80674250Y-84139301D01*
X80674250Y-84139300D01*
X80057577Y-84755973D01*
X80044641Y-84724742D01*
X79962563Y-84601903D01*
X79858097Y-84497437D01*
X79735258Y-84415359D01*
X79704024Y-84402421D01*
X80320698Y-83785748D01*
X80218583Y-83711557D01*
X79994184Y-83597219D01*
X79754669Y-83519397D01*
X79505928Y-83480000D01*
X79254072Y-83480000D01*
X79005330Y-83519397D01*
X78765815Y-83597219D01*
X78541413Y-83711559D01*
X78439301Y-83785747D01*
X78439300Y-83785748D01*
X79055974Y-84402421D01*
X79024742Y-84415359D01*
X78901903Y-84497437D01*
X78797437Y-84601903D01*
X78715359Y-84724742D01*
X78702421Y-84755974D01*
X78085748Y-84139300D01*
X78085747Y-84139301D01*
X78011559Y-84241413D01*
X77897219Y-84465815D01*
X77819397Y-84705330D01*
X77780000Y-84954071D01*
X73750500Y-84954071D01*
X73750500Y-82414038D01*
X84129500Y-82414038D01*
X84129500Y-82665962D01*
X84154248Y-82822213D01*
X84168910Y-82914785D01*
X84246760Y-83154383D01*
X84300447Y-83259748D01*
X84355137Y-83367084D01*
X84361132Y-83378848D01*
X84509201Y-83582649D01*
X84509205Y-83582654D01*
X84687345Y-83760794D01*
X84687350Y-83760798D01*
X84865117Y-83889952D01*
X84891155Y-83908870D01*
X85034184Y-83981747D01*
X85115616Y-84023239D01*
X85115618Y-84023239D01*
X85115621Y-84023241D01*
X85355215Y-84101090D01*
X85604038Y-84140500D01*
X85604039Y-84140500D01*
X85855961Y-84140500D01*
X85855962Y-84140500D01*
X86104785Y-84101090D01*
X86344379Y-84023241D01*
X86568845Y-83908870D01*
X86772656Y-83760793D01*
X86950793Y-83582656D01*
X87098870Y-83378845D01*
X87185815Y-83208206D01*
X87233790Y-83157410D01*
X87296300Y-83140501D01*
X87364688Y-83140501D01*
X87364691Y-83140501D01*
X87517419Y-83099577D01*
X87567538Y-83070639D01*
X87654350Y-83020520D01*
X87695270Y-82979599D01*
X87703870Y-82973514D01*
X87727350Y-82965464D01*
X87749140Y-82953566D01*
X87759829Y-82954330D01*
X87769964Y-82950856D01*
X87794070Y-82956779D01*
X87818832Y-82958550D01*
X87827409Y-82964971D01*
X87837816Y-82967528D01*
X87854893Y-82985544D01*
X87874766Y-83000420D01*
X87878510Y-83010459D01*
X87885882Y-83018236D01*
X87890507Y-83042623D01*
X87899184Y-83065884D01*
X87899500Y-83074732D01*
X87899500Y-94785337D01*
X87879815Y-94852376D01*
X87827011Y-94898131D01*
X87757853Y-94908075D01*
X87702615Y-94885655D01*
X87596791Y-94808770D01*
X87596790Y-94808769D01*
X87596788Y-94808768D01*
X87442445Y-94730127D01*
X87277701Y-94676598D01*
X87277699Y-94676597D01*
X87277698Y-94676597D01*
X87146271Y-94655781D01*
X87106611Y-94649500D01*
X86933389Y-94649500D01*
X86893728Y-94655781D01*
X86762302Y-94676597D01*
X86597552Y-94730128D01*
X86443211Y-94808768D01*
X86383191Y-94852376D01*
X86303072Y-94910586D01*
X86303070Y-94910588D01*
X86303069Y-94910588D01*
X86180588Y-95033069D01*
X86180588Y-95033070D01*
X86180586Y-95033072D01*
X86140500Y-95088245D01*
X86078768Y-95173211D01*
X86000128Y-95327552D01*
X85946597Y-95492302D01*
X85919500Y-95663389D01*
X85919500Y-95836611D01*
X85946598Y-96007701D01*
X86000127Y-96172445D01*
X86078768Y-96326788D01*
X86180586Y-96466928D01*
X86180588Y-96466930D01*
X86232517Y-96518859D01*
X86266002Y-96580182D01*
X86261018Y-96649874D01*
X86219146Y-96705807D01*
X86153682Y-96730224D01*
X86125438Y-96729013D01*
X85943594Y-96700211D01*
X85875962Y-96689500D01*
X85624038Y-96689500D01*
X85499626Y-96709205D01*
X85375214Y-96728910D01*
X85135616Y-96806760D01*
X84911151Y-96921132D01*
X84707350Y-97069201D01*
X84707345Y-97069205D01*
X84529205Y-97247345D01*
X84529201Y-97247350D01*
X84381132Y-97451151D01*
X84266760Y-97675616D01*
X84188910Y-97915214D01*
X84149500Y-98164038D01*
X84149500Y-98415961D01*
X84188910Y-98664785D01*
X84266760Y-98904383D01*
X84381132Y-99128848D01*
X84529201Y-99332649D01*
X84529205Y-99332654D01*
X84707345Y-99510794D01*
X84707350Y-99510798D01*
X84885117Y-99639952D01*
X84911155Y-99658870D01*
X85054184Y-99731747D01*
X85135616Y-99773239D01*
X85135618Y-99773239D01*
X85135621Y-99773241D01*
X85375215Y-99851090D01*
X85624038Y-99890500D01*
X85624039Y-99890500D01*
X85875961Y-99890500D01*
X85875962Y-99890500D01*
X86124785Y-99851090D01*
X86364379Y-99773241D01*
X86588845Y-99658870D01*
X86792656Y-99510793D01*
X86970793Y-99332656D01*
X87118870Y-99128845D01*
X87233241Y-98904379D01*
X87311090Y-98664785D01*
X87328620Y-98554101D01*
X87358547Y-98490971D01*
X87363393Y-98485840D01*
X88187820Y-97661414D01*
X88249142Y-97627930D01*
X88318834Y-97632914D01*
X88374767Y-97674786D01*
X88399184Y-97740250D01*
X88399500Y-97749096D01*
X88399500Y-110626957D01*
X88390855Y-110656397D01*
X88384332Y-110686384D01*
X88380577Y-110691399D01*
X88379815Y-110693996D01*
X88363181Y-110714639D01*
X88244360Y-110833459D01*
X88183037Y-110866943D01*
X88113345Y-110861959D01*
X88057412Y-110820087D01*
X88042676Y-110791657D01*
X88041734Y-110792048D01*
X88039873Y-110787556D01*
X88039873Y-110787555D01*
X87961232Y-110633212D01*
X87859414Y-110493072D01*
X87736928Y-110370586D01*
X87596788Y-110268768D01*
X87442445Y-110190127D01*
X87277701Y-110136598D01*
X87277699Y-110136597D01*
X87277698Y-110136597D01*
X87146271Y-110115781D01*
X87106611Y-110109500D01*
X86933389Y-110109500D01*
X86893728Y-110115781D01*
X86762302Y-110136597D01*
X86597552Y-110190128D01*
X86443211Y-110268768D01*
X86363256Y-110326859D01*
X86303072Y-110370586D01*
X86303070Y-110370588D01*
X86303069Y-110370588D01*
X86180588Y-110493069D01*
X86180588Y-110493070D01*
X86180586Y-110493072D01*
X86136859Y-110553256D01*
X86078768Y-110633211D01*
X86000128Y-110787552D01*
X85946597Y-110952302D01*
X85919500Y-111123389D01*
X85919500Y-111296611D01*
X85946598Y-111467701D01*
X86000127Y-111632445D01*
X86078768Y-111786788D01*
X86180586Y-111926928D01*
X86180588Y-111926930D01*
X86232517Y-111978859D01*
X86266002Y-112040182D01*
X86261018Y-112109874D01*
X86219146Y-112165807D01*
X86153682Y-112190224D01*
X86125438Y-112189013D01*
X85943594Y-112160211D01*
X85875962Y-112149500D01*
X85624038Y-112149500D01*
X85511616Y-112167306D01*
X85375214Y-112188910D01*
X85135616Y-112266760D01*
X84911151Y-112381132D01*
X84707350Y-112529201D01*
X84707345Y-112529205D01*
X84529205Y-112707345D01*
X84529201Y-112707350D01*
X84381132Y-112911151D01*
X84266760Y-113135616D01*
X84188910Y-113375214D01*
X84149500Y-113624038D01*
X84149500Y-113875961D01*
X84188910Y-114124785D01*
X84266760Y-114364383D01*
X84381132Y-114588848D01*
X84529201Y-114792649D01*
X84529205Y-114792654D01*
X84707345Y-114970794D01*
X84707350Y-114970798D01*
X84885117Y-115099952D01*
X84911155Y-115118870D01*
X85054184Y-115191747D01*
X85135616Y-115233239D01*
X85135618Y-115233239D01*
X85135621Y-115233241D01*
X85375215Y-115311090D01*
X85624038Y-115350500D01*
X85624039Y-115350500D01*
X85875961Y-115350500D01*
X85875962Y-115350500D01*
X86124785Y-115311090D01*
X86364379Y-115233241D01*
X86588845Y-115118870D01*
X86792656Y-114970793D01*
X86970793Y-114792656D01*
X87118870Y-114588845D01*
X87233241Y-114364379D01*
X87311090Y-114124785D01*
X87350500Y-113875962D01*
X87350500Y-113624038D01*
X87333277Y-113515299D01*
X87342231Y-113446006D01*
X87368066Y-113408223D01*
X88687820Y-112088469D01*
X88749142Y-112054986D01*
X88818834Y-112059970D01*
X88874767Y-112101842D01*
X88899184Y-112167306D01*
X88899500Y-112176152D01*
X88899500Y-127199902D01*
X88879815Y-127266941D01*
X88863181Y-127287583D01*
X87390938Y-128759825D01*
X87329615Y-128793310D01*
X87259923Y-128788326D01*
X87203990Y-128746454D01*
X87192773Y-128728440D01*
X87178869Y-128701153D01*
X87030798Y-128497350D01*
X87030794Y-128497345D01*
X86852650Y-128319201D01*
X86846336Y-128314614D01*
X86803672Y-128259283D01*
X86797694Y-128189670D01*
X86830302Y-128127875D01*
X86891141Y-128093520D01*
X86938618Y-128091825D01*
X86993389Y-128100500D01*
X86993391Y-128100500D01*
X87166610Y-128100500D01*
X87166611Y-128100500D01*
X87337701Y-128073402D01*
X87502445Y-128019873D01*
X87656788Y-127941232D01*
X87796928Y-127839414D01*
X87919414Y-127716928D01*
X88021232Y-127576788D01*
X88099873Y-127422445D01*
X88153402Y-127257701D01*
X88180500Y-127086611D01*
X88180500Y-126913389D01*
X88153402Y-126742299D01*
X88099873Y-126577555D01*
X88021232Y-126423212D01*
X87919414Y-126283072D01*
X87796928Y-126160586D01*
X87656788Y-126058768D01*
X87502445Y-125980127D01*
X87337701Y-125926598D01*
X87337699Y-125926597D01*
X87337698Y-125926597D01*
X87206271Y-125905781D01*
X87166611Y-125899500D01*
X86993389Y-125899500D01*
X86953728Y-125905781D01*
X86822302Y-125926597D01*
X86657552Y-125980128D01*
X86503211Y-126058768D01*
X86423256Y-126116859D01*
X86363072Y-126160586D01*
X86363070Y-126160588D01*
X86363069Y-126160588D01*
X86240588Y-126283069D01*
X86240588Y-126283070D01*
X86240586Y-126283072D01*
X86196859Y-126343256D01*
X86138768Y-126423211D01*
X86060128Y-126577552D01*
X86006597Y-126742302D01*
X85979500Y-126913389D01*
X85979500Y-127086610D01*
X85997443Y-127199902D01*
X86006598Y-127257701D01*
X86060127Y-127422445D01*
X86138768Y-127576788D01*
X86240586Y-127716928D01*
X86240588Y-127716930D01*
X86292517Y-127768859D01*
X86326002Y-127830182D01*
X86321018Y-127899874D01*
X86279146Y-127955807D01*
X86213682Y-127980224D01*
X86185438Y-127979013D01*
X86003594Y-127950211D01*
X85935962Y-127939500D01*
X85684038Y-127939500D01*
X85559626Y-127959205D01*
X85435214Y-127978910D01*
X85195616Y-128056760D01*
X84971151Y-128171132D01*
X84767350Y-128319201D01*
X84767345Y-128319205D01*
X84589205Y-128497345D01*
X84589201Y-128497350D01*
X84441132Y-128701151D01*
X84326760Y-128925616D01*
X84248910Y-129165214D01*
X84209500Y-129414038D01*
X84209500Y-129665961D01*
X84248910Y-129914785D01*
X84326760Y-130154383D01*
X84441132Y-130378848D01*
X84589201Y-130582649D01*
X84589205Y-130582654D01*
X84767345Y-130760794D01*
X84767350Y-130760798D01*
X84945117Y-130889952D01*
X84971155Y-130908870D01*
X85114184Y-130981747D01*
X85195616Y-131023239D01*
X85195618Y-131023239D01*
X85195621Y-131023241D01*
X85435215Y-131101090D01*
X85684038Y-131140500D01*
X85684039Y-131140500D01*
X85935961Y-131140500D01*
X85935962Y-131140500D01*
X86184785Y-131101090D01*
X86424379Y-131023241D01*
X86648845Y-130908870D01*
X86852656Y-130760793D01*
X87030793Y-130582656D01*
X87178870Y-130378845D01*
X87265815Y-130208206D01*
X87313790Y-130157410D01*
X87376300Y-130140501D01*
X87539054Y-130140501D01*
X87539057Y-130140501D01*
X87691785Y-130099577D01*
X87741904Y-130070639D01*
X87828716Y-130020520D01*
X87940520Y-129908716D01*
X87940520Y-129908714D01*
X87950728Y-129898507D01*
X87950729Y-129898504D01*
X89980520Y-127868716D01*
X90059577Y-127731784D01*
X90100501Y-127579057D01*
X90100501Y-127420942D01*
X90100501Y-127413347D01*
X90100500Y-127413329D01*
X90100500Y-84800097D01*
X90120185Y-84733058D01*
X90136819Y-84712416D01*
X90277346Y-84571889D01*
X90541993Y-84307241D01*
X90603314Y-84273758D01*
X90673005Y-84278742D01*
X90728939Y-84320613D01*
X90739581Y-84337513D01*
X90789802Y-84433657D01*
X90902515Y-84571889D01*
X90929624Y-84636286D01*
X90917615Y-84705115D01*
X90902515Y-84728611D01*
X90789804Y-84866840D01*
X90695589Y-85047204D01*
X90639614Y-85242833D01*
X90639613Y-85242836D01*
X90629000Y-85362216D01*
X90629000Y-86478278D01*
X90629001Y-86478284D01*
X90639613Y-86597665D01*
X90695589Y-86793295D01*
X90695590Y-86793298D01*
X90695591Y-86793299D01*
X90789802Y-86973657D01*
X90789804Y-86973659D01*
X90902515Y-87111889D01*
X90929624Y-87176286D01*
X90917615Y-87245115D01*
X90902515Y-87268611D01*
X90789804Y-87406840D01*
X90695589Y-87587204D01*
X90639614Y-87782833D01*
X90639613Y-87782836D01*
X90629000Y-87902216D01*
X90629000Y-89018278D01*
X90629001Y-89018284D01*
X90639613Y-89137665D01*
X90695589Y-89333295D01*
X90695590Y-89333298D01*
X90695591Y-89333299D01*
X90789802Y-89513657D01*
X90789804Y-89513659D01*
X90902515Y-89651889D01*
X90929624Y-89716286D01*
X90917615Y-89785115D01*
X90902515Y-89808611D01*
X90789804Y-89946840D01*
X90695589Y-90127204D01*
X90639614Y-90322833D01*
X90639613Y-90322836D01*
X90629000Y-90442216D01*
X90629000Y-91558278D01*
X90629001Y-91558284D01*
X90639613Y-91677665D01*
X90695589Y-91873295D01*
X90695590Y-91873298D01*
X90695591Y-91873299D01*
X90789802Y-92053657D01*
X90789804Y-92053659D01*
X90918390Y-92211359D01*
X91012303Y-92287934D01*
X91076093Y-92339948D01*
X91256451Y-92434159D01*
X91452082Y-92490136D01*
X91571463Y-92500750D01*
X93437536Y-92500749D01*
X93556918Y-92490136D01*
X93752549Y-92434159D01*
X93932907Y-92339948D01*
X94090609Y-92211359D01*
X94219198Y-92053657D01*
X94313409Y-91873299D01*
X94369386Y-91677668D01*
X94380000Y-91558287D01*
X94380000Y-91001691D01*
X98366000Y-91001691D01*
X98366000Y-93038808D01*
X98380657Y-93168898D01*
X98380659Y-93168907D01*
X98438378Y-93333856D01*
X98531353Y-93481826D01*
X98654924Y-93605397D01*
X98802894Y-93698372D01*
X98967843Y-93756091D01*
X98967849Y-93756091D01*
X98967851Y-93756092D01*
X99009250Y-93760756D01*
X99097942Y-93770749D01*
X99097945Y-93770750D01*
X99097948Y-93770750D01*
X99735055Y-93770750D01*
X99735056Y-93770749D01*
X99865157Y-93756091D01*
X100030106Y-93698372D01*
X100178076Y-93605397D01*
X100301647Y-93481826D01*
X100387878Y-93344589D01*
X100985712Y-93344589D01*
X101071746Y-93481512D01*
X101195237Y-93605003D01*
X101343113Y-93697919D01*
X101507960Y-93755601D01*
X101637969Y-93770249D01*
X101637973Y-93770250D01*
X102275027Y-93770250D01*
X102275030Y-93770249D01*
X102405039Y-93755601D01*
X102569886Y-93697919D01*
X102717762Y-93605003D01*
X102841256Y-93481509D01*
X102927287Y-93344590D01*
X101956500Y-92373803D01*
X100985712Y-93344589D01*
X100387878Y-93344589D01*
X100394622Y-93333856D01*
X100452341Y-93168907D01*
X100467000Y-93038802D01*
X100467000Y-92716697D01*
X100906500Y-92716697D01*
X101602947Y-92020250D01*
X101602947Y-92020249D01*
X102310053Y-92020249D01*
X102310053Y-92020250D01*
X103006499Y-92716697D01*
X103006500Y-92716696D01*
X103006500Y-91323803D01*
X103006499Y-91323802D01*
X102310053Y-92020249D01*
X101602947Y-92020249D01*
X100906500Y-91323802D01*
X100906500Y-92716697D01*
X100467000Y-92716697D01*
X100467000Y-91001698D01*
X100452341Y-90871593D01*
X100394622Y-90706644D01*
X100387877Y-90695909D01*
X100985712Y-90695909D01*
X101956500Y-91666697D01*
X101956501Y-91666697D01*
X102927286Y-90695909D01*
X102841253Y-90558987D01*
X102717762Y-90435496D01*
X102569886Y-90342580D01*
X102405039Y-90284898D01*
X102275030Y-90270250D01*
X101637969Y-90270250D01*
X101507960Y-90284898D01*
X101343113Y-90342580D01*
X101195237Y-90435496D01*
X101071745Y-90558988D01*
X100985712Y-90695909D01*
X100387877Y-90695909D01*
X100301647Y-90558674D01*
X100178076Y-90435103D01*
X100030106Y-90342128D01*
X100030105Y-90342127D01*
X100030104Y-90342127D01*
X99865158Y-90284409D01*
X99865148Y-90284407D01*
X99735058Y-90269750D01*
X99735052Y-90269750D01*
X99097948Y-90269750D01*
X99097941Y-90269750D01*
X98967851Y-90284407D01*
X98967841Y-90284409D01*
X98802895Y-90342127D01*
X98654923Y-90435103D01*
X98531353Y-90558673D01*
X98438377Y-90706645D01*
X98380659Y-90871591D01*
X98380657Y-90871601D01*
X98366000Y-91001691D01*
X94380000Y-91001691D01*
X94379999Y-90442214D01*
X94369386Y-90322832D01*
X94313409Y-90127201D01*
X94219198Y-89946843D01*
X94106483Y-89808609D01*
X94079375Y-89744215D01*
X94091384Y-89675385D01*
X94106481Y-89651892D01*
X94219198Y-89513657D01*
X94313409Y-89333299D01*
X94369386Y-89137668D01*
X94380000Y-89018287D01*
X94379999Y-87902214D01*
X94369386Y-87782832D01*
X94313409Y-87587201D01*
X94219198Y-87406843D01*
X94106483Y-87268609D01*
X94079375Y-87204215D01*
X94091384Y-87135385D01*
X94106481Y-87111892D01*
X94219198Y-86973657D01*
X94313409Y-86793299D01*
X94369386Y-86597668D01*
X94380000Y-86478287D01*
X94379999Y-85362214D01*
X94369386Y-85242832D01*
X94313409Y-85047201D01*
X94219198Y-84866843D01*
X94106483Y-84728609D01*
X94079375Y-84664215D01*
X94091384Y-84595385D01*
X94106481Y-84571892D01*
X94219198Y-84433657D01*
X94313409Y-84253299D01*
X94369386Y-84057668D01*
X94380000Y-83938287D01*
X94379999Y-82822214D01*
X94369386Y-82702832D01*
X94313409Y-82507201D01*
X94219198Y-82326843D01*
X94106483Y-82188609D01*
X94079375Y-82124215D01*
X94091384Y-82055385D01*
X94106481Y-82031892D01*
X94219198Y-81893657D01*
X94313409Y-81713299D01*
X94369386Y-81517668D01*
X94380000Y-81398287D01*
X94379999Y-80282214D01*
X94369386Y-80162832D01*
X94313409Y-79967201D01*
X94219198Y-79786843D01*
X94106483Y-79648609D01*
X94079375Y-79584215D01*
X94091384Y-79515385D01*
X94106481Y-79491892D01*
X94219198Y-79353657D01*
X94313409Y-79173299D01*
X94369386Y-78977668D01*
X94380000Y-78858287D01*
X94379999Y-77742214D01*
X94369386Y-77622832D01*
X94313409Y-77427201D01*
X94219198Y-77246843D01*
X94106483Y-77108609D01*
X94079375Y-77044215D01*
X94091384Y-76975385D01*
X94106481Y-76951892D01*
X94219198Y-76813657D01*
X94313409Y-76633299D01*
X94369386Y-76437668D01*
X94380000Y-76318287D01*
X94379999Y-75202214D01*
X94369386Y-75082832D01*
X94346586Y-75003150D01*
X94324283Y-74925202D01*
X94324283Y-74925200D01*
X94315917Y-74895963D01*
X98066000Y-74895963D01*
X98066000Y-75108536D01*
X98099253Y-75318489D01*
X98164944Y-75520664D01*
X98261451Y-75710070D01*
X98386390Y-75882036D01*
X98536713Y-76032359D01*
X98708682Y-76157300D01*
X98717446Y-76161766D01*
X98768242Y-76209741D01*
X98785036Y-76277562D01*
X98762498Y-76343697D01*
X98717446Y-76382734D01*
X98708682Y-76387199D01*
X98536713Y-76512140D01*
X98386390Y-76662463D01*
X98261451Y-76834429D01*
X98164944Y-77023835D01*
X98099253Y-77226010D01*
X98067388Y-77427201D01*
X98066000Y-77435963D01*
X98066000Y-77648537D01*
X98099254Y-77858493D01*
X98137843Y-77977258D01*
X98164944Y-78060664D01*
X98261451Y-78250070D01*
X98386390Y-78422036D01*
X98536713Y-78572359D01*
X98708679Y-78697298D01*
X98708681Y-78697299D01*
X98708684Y-78697301D01*
X98898088Y-78793807D01*
X99100257Y-78859496D01*
X99310213Y-78892750D01*
X99310214Y-78892750D01*
X99522786Y-78892750D01*
X99522787Y-78892750D01*
X99732743Y-78859496D01*
X99934912Y-78793807D01*
X100124316Y-78697301D01*
X100159731Y-78671571D01*
X100296286Y-78572359D01*
X100296288Y-78572356D01*
X100296292Y-78572354D01*
X100446604Y-78422042D01*
X100446606Y-78422038D01*
X100446609Y-78422036D01*
X100571548Y-78250070D01*
X100571547Y-78250070D01*
X100571551Y-78250066D01*
X100576014Y-78241304D01*
X100623988Y-78190509D01*
X100691808Y-78173713D01*
X100757944Y-78196249D01*
X100796986Y-78241306D01*
X100801451Y-78250070D01*
X100926390Y-78422036D01*
X101076713Y-78572359D01*
X101248679Y-78697298D01*
X101248681Y-78697299D01*
X101248684Y-78697301D01*
X101438088Y-78793807D01*
X101640257Y-78859496D01*
X101850213Y-78892750D01*
X101850214Y-78892750D01*
X102062786Y-78892750D01*
X102062787Y-78892750D01*
X102272743Y-78859496D01*
X102474912Y-78793807D01*
X102664316Y-78697301D01*
X102699731Y-78671571D01*
X102836286Y-78572359D01*
X102836288Y-78572356D01*
X102836292Y-78572354D01*
X102986604Y-78422042D01*
X102986606Y-78422038D01*
X102986609Y-78422036D01*
X103111548Y-78250070D01*
X103111547Y-78250070D01*
X103111551Y-78250066D01*
X103208057Y-78060662D01*
X103273746Y-77858493D01*
X103307000Y-77648537D01*
X103307000Y-77435963D01*
X103273746Y-77226007D01*
X103208057Y-77023838D01*
X103111551Y-76834434D01*
X103111549Y-76834431D01*
X103111548Y-76834429D01*
X102986609Y-76662463D01*
X102836286Y-76512140D01*
X102664320Y-76387201D01*
X102663615Y-76386841D01*
X102655554Y-76382735D01*
X102604759Y-76334762D01*
X102587963Y-76266942D01*
X102610499Y-76200806D01*
X102655554Y-76161765D01*
X102664316Y-76157301D01*
X102686289Y-76141336D01*
X102836286Y-76032359D01*
X102836288Y-76032356D01*
X102836292Y-76032354D01*
X102986604Y-75882042D01*
X102986606Y-75882038D01*
X102986609Y-75882036D01*
X103111548Y-75710070D01*
X103111547Y-75710070D01*
X103111551Y-75710066D01*
X103208057Y-75520662D01*
X103273746Y-75318493D01*
X103292163Y-75202216D01*
X106794000Y-75202216D01*
X106794000Y-76318278D01*
X106794001Y-76318284D01*
X106804613Y-76437665D01*
X106860589Y-76633295D01*
X106860590Y-76633298D01*
X106860591Y-76633299D01*
X106954802Y-76813657D01*
X106978888Y-76843196D01*
X107067515Y-76951889D01*
X107094624Y-77016286D01*
X107082615Y-77085115D01*
X107067515Y-77108611D01*
X106954804Y-77246840D01*
X106860589Y-77427204D01*
X106804614Y-77622833D01*
X106804613Y-77622836D01*
X106794000Y-77742216D01*
X106794000Y-78858278D01*
X106794000Y-78858283D01*
X106794001Y-78858286D01*
X106796071Y-78881580D01*
X106804613Y-78977665D01*
X106860589Y-79173295D01*
X106860590Y-79173298D01*
X106860591Y-79173299D01*
X106954802Y-79353657D01*
X107011516Y-79423211D01*
X107067515Y-79491889D01*
X107094624Y-79556286D01*
X107082615Y-79625115D01*
X107067515Y-79648611D01*
X106954804Y-79786840D01*
X106860589Y-79967204D01*
X106804614Y-80162833D01*
X106804613Y-80162836D01*
X106794000Y-80282216D01*
X106794000Y-81398278D01*
X106794001Y-81398284D01*
X106804613Y-81517665D01*
X106860589Y-81713295D01*
X106860590Y-81713298D01*
X106860591Y-81713299D01*
X106954802Y-81893657D01*
X106954804Y-81893659D01*
X107067515Y-82031889D01*
X107094624Y-82096286D01*
X107082615Y-82165115D01*
X107067515Y-82188611D01*
X106954804Y-82326840D01*
X106860589Y-82507204D01*
X106804614Y-82702833D01*
X106804613Y-82702836D01*
X106794000Y-82822216D01*
X106794000Y-83938278D01*
X106794001Y-83938284D01*
X106804613Y-84057665D01*
X106860589Y-84253295D01*
X106860590Y-84253298D01*
X106860591Y-84253299D01*
X106954802Y-84433657D01*
X107006808Y-84497437D01*
X107067515Y-84571889D01*
X107094624Y-84636286D01*
X107082615Y-84705115D01*
X107067515Y-84728611D01*
X106954804Y-84866840D01*
X106860589Y-85047204D01*
X106804614Y-85242833D01*
X106804613Y-85242836D01*
X106794000Y-85362216D01*
X106794000Y-86478278D01*
X106794001Y-86478284D01*
X106804613Y-86597665D01*
X106860589Y-86793295D01*
X106860590Y-86793298D01*
X106860591Y-86793299D01*
X106954802Y-86973657D01*
X106954804Y-86973659D01*
X107067515Y-87111889D01*
X107094624Y-87176286D01*
X107082615Y-87245115D01*
X107067515Y-87268611D01*
X106954804Y-87406840D01*
X106860589Y-87587204D01*
X106804614Y-87782833D01*
X106804613Y-87782836D01*
X106794000Y-87902216D01*
X106794000Y-89018278D01*
X106794001Y-89018284D01*
X106804613Y-89137665D01*
X106860589Y-89333295D01*
X106860590Y-89333298D01*
X106860591Y-89333299D01*
X106954802Y-89513657D01*
X106954804Y-89513659D01*
X107067515Y-89651889D01*
X107094624Y-89716286D01*
X107082615Y-89785115D01*
X107067515Y-89808611D01*
X106954804Y-89946840D01*
X106860589Y-90127204D01*
X106804614Y-90322833D01*
X106804613Y-90322836D01*
X106794000Y-90442216D01*
X106794000Y-91558278D01*
X106794001Y-91558284D01*
X106804613Y-91677665D01*
X106860589Y-91873295D01*
X106860590Y-91873298D01*
X106860591Y-91873299D01*
X106954802Y-92053657D01*
X106954804Y-92053659D01*
X107083390Y-92211359D01*
X107177303Y-92287934D01*
X107241093Y-92339948D01*
X107421451Y-92434159D01*
X107617082Y-92490136D01*
X107736463Y-92500750D01*
X109602536Y-92500749D01*
X109721918Y-92490136D01*
X109917549Y-92434159D01*
X110097907Y-92339948D01*
X110255609Y-92211359D01*
X110384198Y-92053657D01*
X110478409Y-91873299D01*
X110534386Y-91677668D01*
X110545000Y-91558287D01*
X110544999Y-90442214D01*
X110534386Y-90322832D01*
X110478409Y-90127201D01*
X110384198Y-89946843D01*
X110271483Y-89808609D01*
X110244375Y-89744215D01*
X110256384Y-89675385D01*
X110271481Y-89651892D01*
X110384198Y-89513657D01*
X110478409Y-89333299D01*
X110534386Y-89137668D01*
X110545000Y-89018287D01*
X110544999Y-87902214D01*
X110534386Y-87782832D01*
X110478409Y-87587201D01*
X110384198Y-87406843D01*
X110271483Y-87268609D01*
X110244375Y-87204215D01*
X110256384Y-87135385D01*
X110271481Y-87111892D01*
X110384198Y-86973657D01*
X110478409Y-86793299D01*
X110534386Y-86597668D01*
X110545000Y-86478287D01*
X110544999Y-85362214D01*
X110534386Y-85242832D01*
X110478409Y-85047201D01*
X110384198Y-84866843D01*
X110271483Y-84728609D01*
X110244375Y-84664215D01*
X110256384Y-84595385D01*
X110271481Y-84571892D01*
X110384198Y-84433657D01*
X110478409Y-84253299D01*
X110534386Y-84057668D01*
X110545000Y-83938287D01*
X110544999Y-82822214D01*
X110534386Y-82702832D01*
X110478409Y-82507201D01*
X110384198Y-82326843D01*
X110271483Y-82188609D01*
X110244375Y-82124215D01*
X110256384Y-82055385D01*
X110271481Y-82031892D01*
X110384198Y-81893657D01*
X110478409Y-81713299D01*
X110534386Y-81517668D01*
X110545000Y-81398287D01*
X110544999Y-80282214D01*
X110534386Y-80162832D01*
X110478409Y-79967201D01*
X110384198Y-79786843D01*
X110271483Y-79648609D01*
X110244375Y-79584215D01*
X110256384Y-79515385D01*
X110271481Y-79491892D01*
X110384198Y-79353657D01*
X110478409Y-79173299D01*
X110534386Y-78977668D01*
X110545000Y-78858287D01*
X110544999Y-77742214D01*
X110534386Y-77622832D01*
X110478409Y-77427201D01*
X110384198Y-77246843D01*
X110271483Y-77108609D01*
X110244375Y-77044215D01*
X110256384Y-76975385D01*
X110271481Y-76951892D01*
X110384198Y-76813657D01*
X110478409Y-76633299D01*
X110534386Y-76437668D01*
X110545000Y-76318287D01*
X110544999Y-75202214D01*
X110534386Y-75082832D01*
X110480916Y-74895963D01*
X110478410Y-74887204D01*
X110478409Y-74887203D01*
X110478409Y-74887201D01*
X110384198Y-74706843D01*
X110332184Y-74643053D01*
X110255609Y-74549140D01*
X110097909Y-74420554D01*
X110097910Y-74420554D01*
X110097907Y-74420552D01*
X109917549Y-74326341D01*
X109917548Y-74326340D01*
X109917545Y-74326339D01*
X109800329Y-74292800D01*
X109721918Y-74270364D01*
X109721915Y-74270363D01*
X109721913Y-74270363D01*
X109655602Y-74264467D01*
X109602537Y-74259750D01*
X109602532Y-74259750D01*
X107736471Y-74259750D01*
X107736465Y-74259750D01*
X107736464Y-74259751D01*
X107724816Y-74260786D01*
X107617084Y-74270363D01*
X107421454Y-74326339D01*
X107336365Y-74370786D01*
X107241093Y-74420552D01*
X107241091Y-74420553D01*
X107241090Y-74420554D01*
X107083390Y-74549140D01*
X106954804Y-74706840D01*
X106860589Y-74887204D01*
X106804614Y-75082833D01*
X106804613Y-75082836D01*
X106794000Y-75202216D01*
X103292163Y-75202216D01*
X103307000Y-75108537D01*
X103307000Y-74895963D01*
X103273746Y-74686007D01*
X103208057Y-74483838D01*
X103111551Y-74294434D01*
X103111549Y-74294431D01*
X103111548Y-74294429D01*
X102986609Y-74122463D01*
X102836286Y-73972140D01*
X102664320Y-73847201D01*
X102474914Y-73750694D01*
X102474913Y-73750693D01*
X102474912Y-73750693D01*
X102272743Y-73685004D01*
X102272741Y-73685003D01*
X102272740Y-73685003D01*
X102111457Y-73659458D01*
X102062787Y-73651750D01*
X101850213Y-73651750D01*
X101801542Y-73659458D01*
X101640260Y-73685003D01*
X101438085Y-73750694D01*
X101248679Y-73847201D01*
X101076713Y-73972140D01*
X100926390Y-74122463D01*
X100801449Y-74294432D01*
X100796984Y-74303196D01*
X100749009Y-74353992D01*
X100681188Y-74370786D01*
X100615053Y-74348248D01*
X100576016Y-74303196D01*
X100571550Y-74294432D01*
X100446609Y-74122463D01*
X100296286Y-73972140D01*
X100124320Y-73847201D01*
X99934914Y-73750694D01*
X99934913Y-73750693D01*
X99934912Y-73750693D01*
X99732743Y-73685004D01*
X99732741Y-73685003D01*
X99732740Y-73685003D01*
X99571457Y-73659458D01*
X99522787Y-73651750D01*
X99310213Y-73651750D01*
X99261542Y-73659458D01*
X99100260Y-73685003D01*
X98898085Y-73750694D01*
X98708679Y-73847201D01*
X98536713Y-73972140D01*
X98386390Y-74122463D01*
X98261451Y-74294429D01*
X98164944Y-74483835D01*
X98099253Y-74686010D01*
X98066000Y-74895963D01*
X94315917Y-74895963D01*
X94313411Y-74887206D01*
X94313409Y-74887203D01*
X94313409Y-74887201D01*
X94219198Y-74706843D01*
X94167184Y-74643053D01*
X94090609Y-74549140D01*
X93932909Y-74420554D01*
X93932910Y-74420554D01*
X93932907Y-74420552D01*
X93752549Y-74326341D01*
X93752548Y-74326340D01*
X93752545Y-74326339D01*
X93635329Y-74292800D01*
X93556918Y-74270364D01*
X93556915Y-74270363D01*
X93556913Y-74270363D01*
X93490602Y-74264467D01*
X93437537Y-74259750D01*
X93437532Y-74259750D01*
X91571471Y-74259750D01*
X91571465Y-74259750D01*
X91571464Y-74259751D01*
X91559816Y-74260786D01*
X91452084Y-74270363D01*
X91256454Y-74326339D01*
X91171365Y-74370786D01*
X91076093Y-74420552D01*
X91076091Y-74420553D01*
X91076090Y-74420554D01*
X90918390Y-74549140D01*
X90789804Y-74706840D01*
X90695589Y-74887204D01*
X90639614Y-75082833D01*
X90639613Y-75082836D01*
X90629000Y-75202216D01*
X90629000Y-76318278D01*
X90629001Y-76318284D01*
X90639613Y-76437665D01*
X90694782Y-76630473D01*
X90694299Y-76700341D01*
X90663247Y-76752265D01*
X89241801Y-78173713D01*
X88831286Y-78584228D01*
X88831284Y-78584230D01*
X88775383Y-78640131D01*
X88719482Y-78696031D01*
X88719476Y-78696040D01*
X88718745Y-78697307D01*
X88718730Y-78697333D01*
X88640424Y-78832961D01*
X88640423Y-78832965D01*
X88599499Y-78985693D01*
X88599499Y-78985695D01*
X88599499Y-79153796D01*
X88599500Y-79153809D01*
X88599500Y-80325536D01*
X88579815Y-80392575D01*
X88563181Y-80413217D01*
X87275750Y-81700647D01*
X87214427Y-81734132D01*
X87144735Y-81729148D01*
X87088802Y-81687276D01*
X87087751Y-81685851D01*
X86950798Y-81497349D01*
X86772650Y-81319201D01*
X86766336Y-81314614D01*
X86723672Y-81259283D01*
X86717694Y-81189670D01*
X86750302Y-81127875D01*
X86811141Y-81093520D01*
X86858618Y-81091825D01*
X86913389Y-81100500D01*
X86913391Y-81100500D01*
X87086610Y-81100500D01*
X87086611Y-81100500D01*
X87257701Y-81073402D01*
X87422445Y-81019873D01*
X87576788Y-80941232D01*
X87716928Y-80839414D01*
X87839414Y-80716928D01*
X87941232Y-80576788D01*
X88019873Y-80422445D01*
X88073402Y-80257701D01*
X88100500Y-80086611D01*
X88100500Y-79913389D01*
X88073402Y-79742299D01*
X88019873Y-79577555D01*
X87941232Y-79423212D01*
X87839414Y-79283072D01*
X87716928Y-79160586D01*
X87576788Y-79058768D01*
X87422445Y-78980127D01*
X87257701Y-78926598D01*
X87257699Y-78926597D01*
X87257698Y-78926597D01*
X87126271Y-78905781D01*
X87086611Y-78899500D01*
X86913389Y-78899500D01*
X86873728Y-78905781D01*
X86742302Y-78926597D01*
X86577552Y-78980128D01*
X86423211Y-79058768D01*
X86343256Y-79116859D01*
X86283072Y-79160586D01*
X86283070Y-79160588D01*
X86283069Y-79160588D01*
X86160588Y-79283069D01*
X86160588Y-79283070D01*
X86160586Y-79283072D01*
X86138490Y-79313485D01*
X86058768Y-79423211D01*
X85980128Y-79577552D01*
X85926597Y-79742302D01*
X85899500Y-79913389D01*
X85899500Y-80086610D01*
X85911572Y-80162834D01*
X85926598Y-80257701D01*
X85980127Y-80422445D01*
X86058768Y-80576788D01*
X86160586Y-80716928D01*
X86160588Y-80716930D01*
X86212517Y-80768859D01*
X86246002Y-80830182D01*
X86241018Y-80899874D01*
X86199146Y-80955807D01*
X86133682Y-80980224D01*
X86105438Y-80979013D01*
X85923594Y-80950211D01*
X85855962Y-80939500D01*
X85604038Y-80939500D01*
X85479626Y-80959205D01*
X85355214Y-80978910D01*
X85115616Y-81056760D01*
X84891151Y-81171132D01*
X84687350Y-81319201D01*
X84687345Y-81319205D01*
X84509205Y-81497345D01*
X84509201Y-81497350D01*
X84361132Y-81701151D01*
X84246760Y-81925616D01*
X84168942Y-82165115D01*
X84168910Y-82165215D01*
X84129500Y-82414038D01*
X73750500Y-82414038D01*
X73750500Y-79913389D01*
X75739500Y-79913389D01*
X75739500Y-80086610D01*
X75751572Y-80162834D01*
X75766598Y-80257701D01*
X75820127Y-80422445D01*
X75898768Y-80576788D01*
X76000586Y-80716928D01*
X76123072Y-80839414D01*
X76263212Y-80941232D01*
X76417555Y-81019873D01*
X76582299Y-81073402D01*
X76753389Y-81100500D01*
X76753390Y-81100500D01*
X76926610Y-81100500D01*
X76926611Y-81100500D01*
X77097701Y-81073402D01*
X77262445Y-81019873D01*
X77416788Y-80941232D01*
X77556928Y-80839414D01*
X77679414Y-80716928D01*
X77781232Y-80576788D01*
X77859873Y-80422445D01*
X77913402Y-80257701D01*
X77940500Y-80086611D01*
X77940500Y-79913389D01*
X77930854Y-79852486D01*
X79669500Y-79852486D01*
X79669500Y-80147513D01*
X79692938Y-80325536D01*
X79708007Y-80439993D01*
X79782212Y-80716930D01*
X79784361Y-80724951D01*
X79784364Y-80724961D01*
X79897254Y-80997500D01*
X79897258Y-80997510D01*
X80044761Y-81252993D01*
X80224352Y-81487040D01*
X80224358Y-81487047D01*
X80432952Y-81695641D01*
X80432959Y-81695647D01*
X80667006Y-81875238D01*
X80922489Y-82022741D01*
X80922490Y-82022741D01*
X80922493Y-82022743D01*
X81195048Y-82135639D01*
X81480007Y-82211993D01*
X81772494Y-82250500D01*
X81772501Y-82250500D01*
X82067499Y-82250500D01*
X82067506Y-82250500D01*
X82359993Y-82211993D01*
X82644952Y-82135639D01*
X82917507Y-82022743D01*
X83172994Y-81875238D01*
X83407042Y-81695646D01*
X83615646Y-81487042D01*
X83795238Y-81252994D01*
X83942743Y-80997507D01*
X84055639Y-80724952D01*
X84131993Y-80439993D01*
X84170500Y-80147506D01*
X84170500Y-79852494D01*
X84131993Y-79560007D01*
X84055639Y-79275048D01*
X83942743Y-79002493D01*
X83928410Y-78977668D01*
X83795238Y-78747006D01*
X83615647Y-78512959D01*
X83615641Y-78512952D01*
X83407047Y-78304358D01*
X83407040Y-78304352D01*
X83172993Y-78124761D01*
X82917510Y-77977258D01*
X82917500Y-77977254D01*
X82644961Y-77864364D01*
X82644954Y-77864362D01*
X82644952Y-77864361D01*
X82359993Y-77788007D01*
X82311113Y-77781571D01*
X82067513Y-77749500D01*
X82067506Y-77749500D01*
X81772494Y-77749500D01*
X81772486Y-77749500D01*
X81494085Y-77786153D01*
X81480007Y-77788007D01*
X81216963Y-77858489D01*
X81195048Y-77864361D01*
X81195038Y-77864364D01*
X80922499Y-77977254D01*
X80922489Y-77977258D01*
X80667006Y-78124761D01*
X80432959Y-78304352D01*
X80432952Y-78304358D01*
X80224358Y-78512952D01*
X80224352Y-78512959D01*
X80044761Y-78747006D01*
X79897258Y-79002489D01*
X79897254Y-79002499D01*
X79784364Y-79275038D01*
X79784361Y-79275048D01*
X79719964Y-79515385D01*
X79708008Y-79560004D01*
X79708006Y-79560015D01*
X79669500Y-79852486D01*
X77930854Y-79852486D01*
X77913402Y-79742299D01*
X77859873Y-79577555D01*
X77781232Y-79423212D01*
X77679414Y-79283072D01*
X77556928Y-79160586D01*
X77416788Y-79058768D01*
X77262445Y-78980127D01*
X77097701Y-78926598D01*
X77097699Y-78926597D01*
X77097698Y-78926597D01*
X76966271Y-78905781D01*
X76926611Y-78899500D01*
X76753389Y-78899500D01*
X76713728Y-78905781D01*
X76582302Y-78926597D01*
X76417552Y-78980128D01*
X76263211Y-79058768D01*
X76183256Y-79116859D01*
X76123072Y-79160586D01*
X76123070Y-79160588D01*
X76123069Y-79160588D01*
X76000588Y-79283069D01*
X76000588Y-79283070D01*
X76000586Y-79283072D01*
X75978490Y-79313485D01*
X75898768Y-79423211D01*
X75820128Y-79577552D01*
X75766597Y-79742302D01*
X75739500Y-79913389D01*
X73750500Y-79913389D01*
X73750500Y-71624500D01*
X73770185Y-71557461D01*
X73822989Y-71511706D01*
X73874500Y-71500500D01*
X111016078Y-71500500D01*
X111083117Y-71520185D01*
G37*
%TD.AperFunction*%
%TD*%
M02*
